<?xml version="1.0" encoding="utf-8"?>
<svg version="1.1" id="svg2" width="1066.6667" height="800" viewBox="395.748 310.054 267.381 175.217" xmlns="http://www.w3.org/2000/svg">
  <defs id="defs6">
    <clipPath clipPathUnits="userSpaceOnUse" id="clipPath16">
      <path d="M 0,600 H 800 V 0 H 0 Z" id="path14"/>
    </clipPath>
  </defs>
  <g id="g8" transform="matrix(1.3333333,0,0,-1.3333333,0,800)">
    <g id="g10">
      <g id="g12" clip-path="url(#clipPath16)">
        <g id="g18" transform="translate(310.2617,324.0986)">
          <path d="m 0,0 c 0,0 -0.942,-17.583 19.584,-28.761 0,0 8.264,-4.404 27.713,-7.982 17.085,-3.146 26.26,-9.796 29.9,-13.975 4.656,-5.342 9.222,-15.023 11.276,-23.513 0,0 0,-2.206 1.583,-2.106 0,0 1.384,-0.1 1.286,1.879 0,0 -0.495,13.354 3.361,19.781 2.954,5.281 8.25,9.846 17.014,13.058 0,0 5.836,-4.452 14.144,-4.452 6.033,0 11.374,2.573 11.374,2.573 0,0 10.582,-3.66 11.772,-9.396 0,0 0.099,-1.386 -0.297,-2.375 l 13.253,-0.693 7.221,6.529 c 0,0 -13.452,0.99 -13.748,4.848 0,0 -0.208,1.789 3.422,1.789 0,0 8.369,0.14 16.163,-11.515 l 4.462,11.724 c 0,0 -3.422,1.711 -3.353,4.854 0,0 -0.069,1.92 1.433,5.758 l -5.548,2.522 c 0,0 -3.007,2.82 -21.019,14.057 l 2.335,1.501 -19.931,8.627 c 0,0 -6.382,10.058 -24.184,10.127 0,0 -13.897,22.798 -36.072,22.798 0,0 -8.185,0.487 -17.549,-4.439 0,0 -3.747,-1.711 -7.376,-3.77 0,0 -7.608,-5.27 -16.302,6.221 0,0 -3.167,-13.571 6.359,-19.377 0,0 -9.11,-1.919 -12.324,5.896 0,0 -2.936,5.965 -2.126,15.955 0,0 -6.983,-6.313 -6.983,-18.428 0,0 -0.07,-7.724 5.062,-12.995 0,0 -2.589,0.393 -6.705,-2.198 C 15.198,-5.476 8.008,-10.68 0,0" style="fill:#13264b;fill-opacity:1;fill-rule:nonzero;stroke:none" id="path20"/>
        </g>
        <g id="g22" transform="translate(315.0547,315.9873)">
          <path d="m 0,0 c 0,0 1.598,-8.681 11.564,-8.681 0,0 6.975,-0.166 16.812,5.837 0,0 -3.396,1.321 -5.119,2.441 0,0 -3.616,2.735 -7.452,1.67 0,0 -0.661,-0.127 -4.167,-1.616 0,0 -2.46,-1.596 -5.965,-1.596 C 5.672,-1.945 2.111,-1.891 0,0 m 16.576,27.367 c 0,0 -5.896,-16.26 7.011,-23.528 2.402,-1.564 6.239,-3.013 10.572,-3.123 0,0 17.639,8.405 36.837,10.627 0,0 -2.221,4.735 -10.901,4.735 0,0 -5.304,0.313 -14.924,-2.349 0,0 -2.606,-0.661 -5.662,-1.707 -4.37,-1.07 -11.658,-2.146 -16.363,0.825 0,0.001 -6.406,3.176 -6.57,14.52 m 12.601,0.4 c 0,0 1.337,-11.97 11.526,-11.97 0,0 4.005,0 7.663,1.387 3.66,1.385 9.001,4.109 16.123,4.109 0,0 9.296,0.886 14.489,-9.403 0,0 11.872,0.648 22.998,-1.434 0,0 -12.661,22.308 -34.665,21.962 0,0 -6.432,0.346 -14.991,-3.955 l -3.461,-1.632 c -2.518,-1.189 -3.511,-1.78 -3.511,-1.78 0,0 -3.561,-2.133 -6.968,-2.029 0,0.001 -4.452,-0.35 -9.203,4.745" style="fill:#de6226;fill-opacity:1;fill-rule:nonzero;stroke:none" id="path24"/>
        </g>
        <g id="g26" transform="translate(368.9209,287.9434)">
          <path d="m 0,0 c 0,0 19.856,21.003 48.524,13.7 0,0 1.418,-16.442 19.133,-17.442 0,0 6.032,-0.363 11.735,3.652 L 90.529,-4.252 78.847,3.107 c 0,0 -3.742,-3.651 -10.5,-3.651 -6.759,0 -14.969,6.85 -14.243,16.57 0,0 -12.282,6.158 -25.98,9.356 l 4.105,-6.486 c 0,0 -26.614,1.689 -48.434,-15.243 0,0 -20.818,4.616 -23.326,8.629 0,0 42.86,34.839 97.719,20.707 0,0 0.642,0.942 -0.953,2.254 0,0 -2.058,1.543 -5.114,2.459 0,0 13.42,0.717 20.421,-9.46 l 15.426,-6.485 -1.62,-1.142 c 0,0 23.582,-14.662 25.16,-16.713 l 3.289,-1.375 c 0,0 -2.34,-6.849 2.459,-10.546 l -1.78,-4.713 c 0,0 -7.886,8.496 -15.753,8.834 0,0 -5.815,0.136 -5.815,-4.529 0,0 -0.696,-4.982 10.886,-6.423 l -2.393,-2.208 -8.833,0.562 c 0,0 0.203,7.189 -15.211,12.801 0,0 -12.652,-7.525 -24.637,1.758 0,0 -21.841,-5.247 -23.812,-25.352 0,0 -2.4,7.597 -7.741,14.08 0,0 2.876,10.254 18.424,15.405 0,0 -13.958,0.716 -23.766,-10.445 C 16.825,-8.248 10.324,-2.954 0,0" style="fill:#ffffff;fill-opacity:1;fill-rule:nonzero;stroke:none" id="path28"/>
        </g>
        <g id="g30" transform="translate(440.2813,311.7217)">
          <path d="m 0,0 c 0,0 10.882,-1.622 29.59,-16.901 l -17.685,9.659 c 0,0 -1.143,-0.585 -1.86,-1.222 0,0 -4,4.623 -10.045,8.464" style="fill:#13264b;fill-opacity:1;fill-rule:nonzero;stroke:none" id="path32"/>
        </g>
        <g id="g34" transform="translate(449.1494,308.4834)">
          <path d="m 0,0 c 0,0 -0.91,-0.752 -0.543,-2.065 0,0 0.446,-1.239 1.849,-1.267 0,0 1.587,-0.022 1.864,1.711 l -0.751,0.404 -1.954,-1.462 0.549,2.186 z" style="fill:#de6226;fill-opacity:1;fill-rule:nonzero;stroke:none" id="path36"/>
        </g>
        <g id="g38" transform="translate(480.5791,289.998)">
          <path d="m 0,0 c 0,0 -1.501,-0.558 -1.501,-1.903 0,0 -0.362,-1.401 2.656,-4.417 0,0 -4.484,3.279 -5.324,5.254 0,0 -0.772,1.448 1.411,1.448 -10e-4,0 1.326,0 2.758,-0.382" style="fill:#13264b;fill-opacity:1;fill-rule:nonzero;stroke:none" id="path40"/>
        </g>
        <g id="g42" transform="translate(429.6377,319.9072)">
          <path d="m 0,0 c 0,0 2.765,-0.041 3.084,0.637 0,0 0.677,0.705 -3.044,2.445 0,0 5.74,-1.173 8.345,-5.809 0,0 -3.72,1.703 -8.385,2.727" style="fill:#13264b;fill-opacity:1;fill-rule:nonzero;stroke:none" id="path44"/>
        </g>
      </g>
    </g>
  </g>
</svg>