<svg xmlns="http://www.w3.org/2000/svg" xmlns:xlink="http://www.w3.org/1999/xlink" viewBox="0 0 299 162.97"><defs><style>.a{fill:none;}.b{clip-path:url(#a);}.c{fill:#ffb612;}.d{fill:#5a1414;}</style><clipPath id="a" transform="translate(-362.5 -430.52)"><rect class="a" x="362.5" y="430.52" width="299" height="162.97"/></clipPath></defs><title>Washington Commanders logo - Brandlogos.net</title><g class="b"><path class="c" d="M566.67,430.52l9.56,29.3-7.11,21.78-16.6-51.08H478.1l-13.35,40.94-13.29-40.94h-89l27.95,45.38,38.28,117.59h72L515.24,549l14.44,44.45h78.81l53-163ZM400.39,471.28,382,441.39h61.58L459,489,432.6,570.22Zm92.43,111.57H439.94l43.19-132.67,26.4,81.27ZM491.7,441.39h52.91l18.82,57.8-26.48,81.36ZM600.49,582.78H547.62l40-122.9-6-18.5h64.88Z" transform="translate(-362.5 -430.52)"/><path class="d" d="M563.39,499.2l-26.48,81.36L491.7,441.39h52.91Zm18.21-57.81,6,18.5-40,122.9h52.87l46.05-141.39Zm-138,0H382l18.42,29.89,32.26,98.93L459,489Zm-3.62,141.39h52.95l16.71-51.33-26.47-81.27Z" transform="translate(-362.5 -430.52)"/></g></svg>