<?xml version="1.0" encoding="utf-8"?>
<svg viewBox="0 0 384.663 278.732" height="652.34668" width="383.33334" id="svg2" version="1.1" xmlns="http://www.w3.org/2000/svg">
  <g transform="matrix(1.3333333,0,0,-1.3333333,0,652.34667)" id="g10">
    <g transform="scale(0.1)" id="g12">
      <path id="path38" style="fill:#23527b;fill-opacity:1;fill-rule:nonzero;stroke:none" d="m 587.828,3511.61 c -16.461,-13.61 -32.68,-18.14 -53.387,-9.49 -22.789,8.74 36.571,-13.06 62.961,-8.42 11.961,14.74 12.996,22.78 18.817,33.02 11.941,21.06 22.383,66.19 12.297,88.72 -15.411,-34.3 -12.301,-80.37 -40.688,-103.83"/>
      <path id="path40" style="fill:#348f99;fill-opacity:1;fill-rule:nonzero;stroke:none" d="m 415.02,3545.17 c 41.085,-16.25 47.05,-18.95 87.867,-35.84 2.336,-0.97 47.265,-15.61 68.355,-13.7 -0.937,4.33 4.453,-3.41 20.196,15.98 24.777,29.23 28.16,64.48 37.8,100.94 -4.64,25.07 -25.617,-28.69 -56.465,-29.42 -42.328,-7.37 -54.546,-1.53 -87.097,4.46 -56.567,5.96 -85.723,6.54 -101.969,0.04 -12.195,-2.41 -22.086,-18.65 -22.086,-18.65"/>
      <path id="path42" style="fill:#348f99;fill-opacity:1;fill-rule:nonzero;stroke:none" d="m 2212.18,3824.58 c 9.51,24.76 10.58,32.24 19.04,57.41 -1.41,1.02 4.39,20.09 2.97,21.11 -11.69,-8.79 -36.17,-35.02 -47.26,-44.51 -45.36,-38.81 -92.08,-75.59 -139.91,-110.69 -1.22,-21.39 0.26,-50.84 -3.58,-72.1 -8.98,-49.8 -20.01,-99.21 -29.57,-148.91 -2.26,-15.87 2.91,-15.71 3.08,-15.86 24.24,16.44 36.18,29.54 40.04,32.79 72.78,69.56 101.78,136.44 142.21,243.23"/>
      <path id="path44" style="fill:#23527b;fill-opacity:1;fill-rule:nonzero;stroke:none" d="m 2839.47,4465.22 c -29.46,-6.74 -45.08,-12.86 -74.28,-20.66 -60.11,-16.07 -116.27,-41.77 -170.43,-71.95 -136.61,-76.15 -253.87,-178.2 -372.23,-278.74 -51.03,-43.35 -101.44,-87.44 -152.31,-130.98 -75.36,-64.53 -101.82,-88.48 -178.77,-155.73 -17.75,-17.16 -61.94,-49.66 -85.71,-65.82 16.88,33.97 36.17,59.44 40.55,66.92 32.96,55.24 67.87,109.33 100.07,165 44.61,77.15 94.87,149.14 167.76,202.77 25.43,18.71 78.5,59.27 238.23,150.99 -6.61,-0.02 -154.71,-75.44 -160.2,-77.67 -95.35,-39.11 -194.53,-122.56 -248.33,-211.06 -54.97,-90.43 -106.88,-182.86 -165.3,-270.99 -91.85,-138.54 -199.94,-263.08 -336.48,-360.35 -9.53,-6.78 -21.48,-10.14 -32.97,-13.44 0.16,0.28 0.31,0.56 0.47,0.83 27.37,47.01 51.17,94.99 70.99,144.44 l 8.28,10.25 c -10.95,-4.77 -21.37,-10.63 -25.48,-12.52 -101.53,-46.79 -203.65,-91.83 -311.57,-122.65 -82.18,-23.48 -165.502,-40.25 -250.69,-44.88 -85.172,-4.64 -170.836,-2.03 -253.847,18.25 -13.262,3.24 -26.469,6.66 -39.555,10.38 -1.387,0.26 -2.758,0.57 -4.078,0.94 -129.516,34.71 -141.192,58.68 -193.945,96.94 -13.137,13.94 -30.915,40.72 -53.063,54.41 15.141,-25.29 38.211,-62.13 53.359,-87.45 -132.961,-35.32 -340.3082,88.12 -409.862875,246.51 0.792969,-27.84 6.062505,-37.2 10.574175,-50.44 23.7305,-53.19 58.754,-98.01 104.3787,-134.52 49.539,-39.61 70.641,-53.83 167.035,-83.62 36.301,-7.83 44.477,-10.3 114.36,-11.79 10.179,-1.36 45.492,4.74 55.703,3.9 12.726,-5.67 -0.051,-0.15 23.551,-11.86 51.578,-24.83 137,-54.59 209.082,-71.1 48.742,-11.16 97.695,-21.67 146.937,-30.27 23.699,-4.13 48.274,-4.06 72.473,-4.34 86.848,-1.01 173.668,-1.57 259.718,13.83 81.16,14.53 160.79,34.39 238.42,64.36 -2.76,-14.65 25.25,-15.31 40.7,-8.75 9.31,3.94 18.83,7.91 27.18,13.5 24.3,16.27 46.92,35.37 72.27,49.67 40.95,23.12 83.88,42.71 125.42,64.83 131.91,70.21 259.13,147.46 379.14,235.54 47.83,35.1 94.55,71.88 139.91,110.69 10.61,5.94 37.4,31.93 42.12,35.66 -8.45,-25.17 -18.91,-62.95 -28.41,-87.71 -54.17,-169.98 -117.92,-230.69 -183.78,-295.51 5.83,-1.89 8.35,-0.95 16.21,2.92 5.06,1.8 101.97,93.95 135.71,155.55 44.51,81.26 78.33,178.33 106.45,266.65 0,0 14.17,15.58 35.18,34.8 61.34,59.71 118.97,119.5 181.78,177.67 32.46,30.06 64.33,61.27 99.75,87.54 70.91,52.59 144.43,101.65 216.13,153.2 26.69,19.19 59.54,34.18 64.73,75.96 -2.57,4.51 -5.56,6.34 -11.39,5"/>
      <path id="path46" style="fill:#23527b;fill-opacity:1;fill-rule:nonzero;stroke:none" d="m 911.219,3413.32 c 75.926,16.26 150.551,37.02 222.451,66.71 134.99,55.75 260.94,128.26 383.09,207.68 4.51,2.93 15.8,10.4 16.85,15.36 5.09,23.91 8.54,40.07 8.57,64.13 6.81,2.68 4.28,19.05 4.58,21.73 -4.63,-2.63 -14.18,-13.31 -18.6,-16.1 -16.94,-12.95 -32.91,-25.09 -48.59,-37.51 -134.27,-106.37 -275.87,-201.7 -437.4,-260.99 -108.811,-39.95 -222.154,-62.2 -338.775,-69.34 -27.465,-0.75 -56.497,2.11 -81.235,-2.65 76.395,-8.5 219.156,-3.47 289.059,10.98"/>
      <path id="path48" style="fill:#23527b;fill-opacity:1;fill-rule:nonzero;stroke:none" d="m 1317.1,4088.3 c 37.03,-1.89 66.65,3.75 106.65,0.94 88.5,-6.2 106.44,21.73 146.89,57.28 -75.39,-19.09 -77.81,-17.65 -131.25,-19.41 -87.11,-2.36 -122.07,-4.45 -175.21,-14.91 -54.63,-11.09 -87.19,-26.24 -106.67,-36.09 -16.96,-11.8 -31.35,-13.84 -60.09,-55.16 31.55,0.01 168.16,66.55 199.78,67.86"/>
      <path id="path50" style="fill:#23527b;fill-opacity:1;fill-rule:nonzero;stroke:none" d="m 2361.77,4399.79 c 27.04,8.73 54.38,16.64 81.56,25.05 19.99,6.2 62.56,24.31 81.88,32.66 -12.98,1.72 -60.18,-2.2 -71.31,-2.64 -30.5,-1.24 -43.7,-1.32 -74.19,-2.64 -40.79,-1.76 -82.88,-12.52 -120.49,-55.66 28.79,16.73 77.16,24.13 98.55,24.43 21.39,0.31 17.84,-5.47 4,-21.2"/>
      <path id="path52" style="fill:#348f99;fill-opacity:1;fill-rule:nonzero;stroke:none" d="m 364.52,3537.64 c 72.675,-84.38 173.734,-139.72 283.226,-135.99 18.531,0.51 82.285,1.84 100.746,2.97 116.621,7.15 184.867,29.76 293.678,69.7 161.53,59.31 303.13,154.63 437.4,261 15.68,12.42 31.65,24.55 48.59,37.51 4.55,3.48 9.13,6.98 13.84,10.61 -0.09,-0.82 -0.21,-1.63 -0.29,-2.45 -0.3,-2.68 -0.66,-5.34 -0.98,-8.01 -9.76,-82.62 -30.47,-160.07 -60.2,-234.2 -19.82,-49.45 -51.19,-99.96 -78.56,-146.96 -2.33,-3.88 1.85,-5.25 1.69,-5.53 11.48,3.31 28.85,13.88 38.38,20.66 136.54,97.27 244.64,221.81 336.47,360.35 58.43,88.13 110.34,180.56 165.31,270.99 53.8,88.5 121.85,134.19 224.86,191.67 170.8,99.59 177.5,89.52 251.55,128.94 77.94,41.33 158.87,75.51 244.2,99.6 58.89,16.61 127.9,41.61 189.59,43.98 13.19,0.88 13.42,-0.03 20.96,-3.21 -4.01,42.26 -72.52,52 -122.22,40.2 -42.74,-11.54 -84.79,-25.67 -127.64,-36.68 -16.28,-4.19 -34.28,-5.58 -50.92,-3.51 -15.22,1.88 -30.29,4.87 -45.35,8.02 -199.25,58.18 -396.5,-12.88 -396.5,-12.88 l 0.08,0.01 c -42.92,-12.22 -84.71,-28.14 -125.96,-45.7 -69.77,-29.69 -134.47,-68.64 -197.84,-109.98 -83.59,-54.52 -163.04,-114.91 -233.85,-184.81 -18.53,-16.53 -87.98,-58.17 -98.98,-58.06 -40.65,0.31 -127.28,-0.79 -167.88,-2.47 -31.63,-1.32 -53.94,-1.01 -99.27,-12.26 -51.58,-10.44 -107.69,-41.74 -120.65,-77.75 -0.74,-14.74 16.1,-12.13 17.69,-12.18 38.5,-1.22 65.27,5.94 103.77,6.12 28.29,0.12 54.9,-5.85 78.81,-19.69 40.04,-23.18 46.1,-69.47 13.83,-101.56 -58.16,-57.84 -116.48,-115.55 -175.72,-172.28 -57.39,-54.94 -118.93,-104.8 -186.544,-146.97 -69.371,-43.26 -144.637,-72.62 -225.074,-83.08 -50.797,-6.61 -103.782,-5.94 -154.684,0.34 -59.027,7.28 -114.75,30.98 -163.402,65.73 -75.516,53.92 -160.703,81.33 -250.434,95.57 -34.691,5.51 -64.8865,16.63 -92.6209,37 -7.6797,5.64 -33.4961,27.63 -44.71094,37.17 -12.97266,12.02 -8.281254,-2.85 -7.17188,-7.88 C 71.2891,3543.3 298.988,3417.75 431.949,3453.07 m 1859.021,964.42 c 0,0 36.66,21.21 83.69,28.96 46.08,7.59 92.35,-1.46 139.73,10.32 -19.33,-8.34 -30.15,-14.91 -71.06,-31.93 -27.18,-8.41 -54.52,-16.32 -81.56,-25.05 -47.11,-13.88 -59.76,-16.26 -106.08,-42.83 -12.62,-6.65 -25.07,-17.25 -40.48,-29.85 15.4,28.9 20.76,47.87 43.29,66.57"/>
      <path id="path54" style="fill:#f47116;fill-opacity:1;fill-rule:nonzero;stroke:none" d="m 2469.18,3846.17 c 28.79,17.39 58.18,33.91 88.14,49.17 21.26,10.84 59.76,25.33 84.14,35.9 -32.44,-1.32 -59.65,3.11 -77.06,4.48 -32.16,2.76 -78.43,14.92 -108.56,34.02 -15.11,9.59 -22.9,20.26 -22.47,40.4 0.23,10.37 1.52,20.07 5.59,36 -19.29,-19.87 -39.9,-38.58 -59.86,-59.9 0.36,-7.27 1.11,-35.54 2.33,-55.84 2.85,-47.35 1.75,-94.85 -5.92,-142.57 -8.23,-51.18 -20.12,-100.96 -37.31,-149.48 -44.62,-125.95 -125.76,-226.25 -226.12,-311.47 -68.11,-57.84 -146.81,-97.58 -232.07,-125.16 -69.25,-22.39 -140.64,-29.57 -212.4,-34.9 -15.14,-1.12 -47.27,0.27 -62.73,1.37 -31.61,2.25 -47.38,4.24 -78.22,10.14 -95.87,18.37 -185.49,53.26 -266.69,108.68 -10.13,6.92 -17.52,11.97 -25.46,17.31 -22.45,-3.8 -55.9,-7.91 -78.31,-10.56 -28.38,-3.35 -56.61,-8 -79.79,-11.36 -18.28,-40.08 -34.36,-75.34 -50.45,-110.6 15.93,6.57 28.7,15.76 41.62,24.73 40.42,28.04 80.79,56.57 132.85,57.05 15.25,0.14 32.49,2.7 42.07,-14.33 17.21,-30.61 15.82,-63.9 13.3,-97.3 -0.92,-12.22 -1.69,-24.46 -2.88,-41.71 12.19,6.37 20.2,10.81 28.43,14.79 28.33,13.69 56.13,28.79 85.35,40.27 20.65,8.11 34.19,0.3 37.01,-18.16 3.64,-23.78 7.14,-47.84 7.49,-71.83 0.99,-67.86 0.35,-135.75 0.35,-206.44 7.75,9.96 16.19,18.34 21.69,28.35 13.77,25 24.45,51.84 39.57,75.94 28.03,44.71 57.04,88.94 88.22,131.48 17.53,23.92 45.45,22.87 62.72,-0.13 18.55,-24.71 32.94,-52.55 49.25,-79.19 1.79,3.01 5.52,8.8 8.76,14.86 17.2,32.21 36.44,62.78 64.72,86.82 23.21,19.74 53.86,17.4 69.24,-8.82 19.35,-32.96 35.87,-67.59 53.18,-101.72 9.05,-17.85 17.2,-36.17 26.39,-55.62 3.21,14.47 3.53,36.09 5.79,46.92 0.71,3.41 3.2,37.97 3.37,41.46 1.65,33.25 1.02,12.36 5.77,57.72 6.8,39.31 21.21,48.17 50.98,42.37 10.01,-1.95 19.39,-8.47 28.38,-14.01 12.36,-7.61 24.07,-16.28 35.62,-24.21 3.2,18.03 2.9,39.09 5.17,55.24 2.49,17.71 6.45,30.76 10.4,48.09 8.92,15.86 26.26,8.66 31.53,7.19 16.96,-4.73 21.98,-8.35 36.16,-18.21 40.55,-28.17 79.52,-58.61 118.86,-88.48 20.68,-15.71 40.83,-32.13 61.22,-48.22 -36.6,76.26 -40.95,81.83 -47.81,94.22 -21.55,47.48 -46.15,94.06 -53.7,145.91 -4.69,32.3 -10.37,56.7 40.2,62.69 27.56,3.26 56.03,-0.37 84.03,-1.9 16.73,-0.91 33.35,-3.78 46.84,-5.38 -14.47,39.54 -28.87,77.26 -42.03,115.39 -9.47,27.43 9.64,46.77 41.68,45.4 21.33,1.04 33.57,0.06 50.09,-1.83 11.35,-1.31 22.62,-3.29 33.97,-4.62 17.44,-2.05 35.14,-2.63 52.34,-5.9 59.11,-5.38 79.36,-9.31 126.54,-15.51 -22.09,10.85 -29.74,13.04 -40.4,19.99 -65.86,32.07 -118.57,71.54 -171.21,122.43 -19.8,21.35 -20.94,28.24 -15.84,48.99 18.83,26.09 117.44,38.54 184.85,44.31 -18.22,12.4 -32.02,21.4 -45.41,30.97 -21.66,15.49 -45.21,29.17 -63.96,47.68 -17.78,17.55 -17.73,35.64 0.46,46.63"/>
      <path id="path56" style="fill:#f47116;fill-opacity:1;fill-rule:nonzero;stroke:none" d="m 831.672,3873.13 c 93.398,-34.44 26.914,-135.6 -57.832,-185.39 47.105,-0.56 53.844,-1.48 78.422,-6.02 46.773,-8.64 65.347,-29.83 48.269,-78.35 -4.84,-13.74 -11.039,-27 -18.183,-44.28 50.882,26.41 76.511,45.05 102.062,66.03 -22.265,46.82 -27.847,76.44 -34.676,110.73 -8.632,43.32 -14.718,87.32 -18.769,131.3 -2.32,25.21 -0.055,51.2 3.035,76.48 5.359,43.85 9.672,88.25 20.246,130.98 28.664,115.87 85.514,217.91 165.384,305.98 91.98,101.43 203.58,172.94 336.64,209.65 57.45,15.85 116.01,24.12 175.13,27.49 66.47,0.05 99.34,-0.91 177.76,-15.16 78.6,-17.03 153.28,-45.2 222.59,-87 16.33,-8.83 25.01,-13.28 25.01,-13.28 37.28,13.01 83.52,26.84 145.15,43.94 -7.38,17.7 -5.34,21.18 -2.07,38.03 -82.7,-36.78 -121.91,-39.33 -148.16,-28.84 -36.04,14.31 -27.2,71 -17.56,109.4 4.07,16.35 16.47,51.55 28.3,78.05 -33.3,-38.1 -41.67,-47.67 -53.63,-56.8 -41.23,-32.94 -70.63,-62.35 -101.81,-48.34 -37.67,12.53 -24.3,178.49 -18.64,254.9 -31.91,-77.35 -49.51,-111.61 -72.41,-157.37 -14,-27.68 -34.3,-52.65 -54.47,-76.57 -13.93,-16.54 -25.73,-14.14 -41.53,-0.64 -30.76,33.18 -40.03,71.66 -53.12,112.88 -12.04,-36.52 -16.72,-57.77 -28.6,-78.84 -18.44,-32.71 -55.77,-39.99 -85.39,-17.61 -35.65,26.94 -58.02,64.22 -77.56,103.3 -16.32,26.73 -23.33,51.98 -34.11,73.04 -5.2,-38.64 -8.94,-81.17 -16.11,-119.44 -4.84,-25.83 -13.42,-57.66 -22.53,-82.41 -4.21,-11.43 -15.55,-20.07 -28.83,-15.38 -17.52,6.18 -34.47,14.39 -50.8,23.31 -10.5,5.75 -28.1,28.78 -37.77,36.12 6.9,-36.59 20.07,-106.66 -6.72,-127.29 -62.33,-48.01 -218.48,103.02 -257.03,133.07 27.27,-69.51 109.44,-198.15 82.9,-264.8 -20.72,-37.93 -92.64,-20.04 -147.053,1.36 32.293,-40.19 66.663,-91.85 51.533,-120.52 -47.474,-64.29 -226.248,8.83 -280.361,25.26 28.703,-23.93 64.137,-43.37 90.75,-62.27 41.57,-29.67 80.672,-50.03 109.184,-94.65 32.402,-47.48 -59.661,-77.77 -107.68,-81.16 47.203,-15.67 89.168,-45.03 84.242,-68.6 -10.156,-67.15 -124.57,-80.89 -258.852,-97.93"/>
    </g>
  </g>
</svg>