<svg id="Layer_1" data-name="Layer 1" xmlns="http://www.w3.org/2000/svg" viewBox="0 0 399.81 379.63"><title>Atlanta Falcons logo - Brandlogos.net</title><path d="M559.1,275.62c-53.85-34-177.2-60-269.21-81.43L184.1,308,274.9,306c-45.21,73.09-36,245,78.34,267.8-5.89-11.29-16.11-32-2.86-57.71,9.44-18.26,61.89-118.66,61.89-118.66h12.56c17,0,22.6,6.4,15.06,15.41,45.33-.58,73.16-17.73,85.65-36.05-9.51-17.41-39.76-37.9-52-46.2h63.42c18.19,0,22.29,7.62,18,15.92,29.68-5.84,44.85-45.2,4.14-70.91" transform="translate(-184.1 -194.19)" style="fill:#a5acaf"/><path d="M551.85,279.08c-73.35-41.16-255-68.6-255-68.6l-77.8,83.38h80.66C240.19,372.6,253.39,531.54,341,564.58c-6.21-14.78-9.36-31.93,1.84-53.76,12.63-24.61,32.74-66,61.55-121.22h23.51c19.51,0,25.75,8.25,23.1,14.62,16,0,45.38-1.57,66.67-27.42-17.73-24.79-76.37-53.69-76.37-53.69H541.86c14.78,0,22.17,5.26,20.13,14.17,25.7-12.55,19-41.85-10.14-58.21" transform="translate(-184.1 -194.19)" style="fill:#fffffe"/><path d="M432.8,325.82s64.83,31.74,77.43,51c-6.64,8.84-16.79,15-30.39,18.13,8.69-6.67,10.33-13.09,5-13.09H465.62c-3.28,3.23-5,9.07-.63,15-7.43-1.63-14.58-7.74-15.14-15H409.17c5.43-10.88,21.11-42,25.49-50.52l-1.85-5.5Zm116-41.21c28.39,15.58,26.51,37.05,18.12,44.14.15-7.66-7.38-13.37-21-13.37H413.34L427.59,323S342.23,493.08,335.68,506.5c-7.56,15.51-9.64,32.92-3.12,47.42-16.89-10.71-30.15-27.95-39.48-49l-7.58-.52L366,386.24c-.17-.76-.32-1.53-.45-2.29l-81.29,95.88a215.27,215.27,0,0,1-7.08-49.23L268,428.29l99.86-78.84c.25-.84.51-1.67.78-2.5l-90.55,55a227.39,227.39,0,0,1,8.62-45l-9.37-5.31,106.58-35.54c.48-.73,1-1.45,1.45-2.16l-89.46,18.29a179.91,179.91,0,0,1,17.35-30.58L305,293.87h107l.89-1.76L253.54,279.92l45.29-48.79-7.08-9s195.37,28.64,257.05,62.5Z" transform="translate(-184.1 -194.19)"/><path d="M555.81,296.85l1.7,7.54c-11.61,2.18-32.15,3.92-38,4.39-.28.58-.58,1.16-.88,1.75h30.57c12.13,0,17.24,5.76,18.32,9.06C569.17,315.06,567.7,302.92,555.81,296.85Zm-34-14.9c6.78,2.26,22,10.78,27.81,17.44h-11c-4.32-7.11-16.85-17.44-16.85-17.44Z" transform="translate(-184.1 -194.19)" style="fill:#fffffe"/><path d="M292.5,376.14l65.15-35.6c.35-.88.72-1.77,1.1-2.65l-62.7,22.54c-1.39,5.17-2.57,10.42-3.55,15.71Zm29.13-70.6a146.34,146.34,0,0,0-8,12.27l63.73-11.39c.56-.73,1.13-1.47,1.69-2.18l-57.4,1.31ZM362.07,422.8c-.42-.76-.84-1.53-1.24-2.29l-52.91,79.82A115.15,115.15,0,0,0,317.1,515ZM291.4,448.13l58.81-65.64c0-.94-.08-1.87-.1-2.81l-60.62,51.56c.41,5.71,1.05,11.36,1.9,16.89ZM474.54,373l-46.17-6.9-4.68,9.07h49.77l1.09-2.18Zm31.89-82.6L295,261.11l12.93-14c71.21,11,156.37,28.42,199.61,41-.37.74-.75,1.5-1.14,2.27Z" transform="translate(-184.1 -194.19)" style="fill:#a71930"/></svg>