<?xml version="1.0" encoding="utf-8"?>
<svg viewBox="175.28 -13.248 347.318 219.446" height="547.58667" width="688.70667" id="svg2" version="1.1" xmlns="http://www.w3.org/2000/svg">
  <g transform="matrix(1.3333333,0,0,-1.3333333,0,547.58667)" id="g10">
    <g transform="scale(0.1)" id="g12">
      <path id="path156" style="fill:#4696d5;fill-opacity:1;fill-rule:evenodd;stroke:none" d="m 3198.96,2846.44 -112.99,2.04 c -186.25,4.83 -445.59,111.04 -445.59,111.04 l -203.77,82.71 c -193.82,78.44 -374.92,99.31 -421.23,103.59 l -11.39,0.93 c -418.29,22.63 -589.18,-47.69 -589.18,-47.69 504.63,600.33 916.92,741.39 916.92,741.39 -66.81,78.41 -72.85,130.37 -72.85,130.37 -6.03,54.75 52.63,47.07 52.63,47.07 70.02,-3.34 138.36,15.84 138.36,15.84 76.68,24.16 188.36,45 188.36,45 156.7,30.01 319.26,27.51 319.26,27.51 215.04,8.33 430.9,-70.01 430.9,-70.01 46.68,-24.18 140.06,-30 140.06,-30 30.84,3.32 29.18,-10.01 29.18,-10.01 4.16,-74.18 -60.86,-127.52 -60.86,-127.52 15.02,-15 11.68,-53.34 11.68,-53.34 125.84,-9.17 178.36,-46.68 178.36,-46.68 -69.18,26.67 -180.02,29.18 -180.02,29.18 -4.18,-35.01 -6.68,-31.68 -6.68,-31.68 170.04,-7.5 228.38,-55.01 228.38,-55.01 -103.36,40.01 -231.72,35.84 -231.72,35.84 -6.66,-25.84 -8.85,-33.57 -8.85,-33.57 228.26,-25.74 262.56,-73.81 262.56,-73.81 -163.07,63.5 -271.13,53.2 -271.13,53.2 -65.3,-195.86 -188.95,-320.84 -211.57,-342.75 0,0 9.85,-32.34 6.25,-87.58 0,0 -4.7,-166.6 -126.77,-202.29 l 0.86,-2.34 c 30.89,-89.24 50.84,-211.43 50.84,-211.43"/>
      <path id="path158" style="fill:#ffffff;fill-opacity:1;fill-rule:evenodd;stroke:none" d="m 3045.67,3919.41 c -51.46,1.72 -117.14,16.31 -184.55,12.51 -6.38,7.94 5.75,17.42 6.25,28.16 -23.04,4.06 -47.38,6.84 -75.08,6.25 88.89,38.88 205.45,3.47 253.38,-46.92"/>
      <path id="path160" style="fill:#ffffff;fill-opacity:1;fill-rule:evenodd;stroke:none" d="m 3414.81,3922.54 c -37.48,-0.59 -94.66,1.29 -118.86,-21.9 -10.32,55.33 92.17,52.25 118.86,21.9"/>
      <path id="path162" style="fill:#ffffff;fill-opacity:1;fill-rule:evenodd;stroke:none" d="m 3299.07,3853.71 c -36.68,-25.87 -75.43,-49.71 -93.85,-93.84 -18.24,52.67 -60.58,81.22 -109.49,103.23 60.24,22.31 150.49,11.53 203.34,-9.39"/>
      <path id="path164" style="fill:#ffffff;fill-opacity:1;fill-rule:evenodd;stroke:none" d="m 3308.45,3650.39 c -16.02,-59.06 -35.43,-114.73 -71.96,-153.28 2.29,30.55 19.54,81.09 9.4,125.12 -36.08,19.59 -105.33,12.83 -147.03,3.13 -23.17,-35.32 -46.68,-84.1 -75.08,-118.88 -8.18,-10.02 -17.66,-26.28 -28.15,-21.89 19.42,42.17 33.62,113.85 15.65,165.8 72.68,36.74 225.16,39.55 297.17,0"/>
      <path id="path166" style="fill:#ffffff;fill-opacity:1;fill-rule:evenodd;stroke:none" d="m 3208.35,3362.6 c 57.89,-118.46 -91.5,-154.22 -181.45,-115.75 20.61,32.6 40.32,66.06 53.19,106.37 9.63,-22.13 10.17,-54.26 3.12,-78.22 73.28,-24.52 124.87,19.1 125.14,87.6"/>
      <path id="path168" style="fill:#ffffff;fill-opacity:1;fill-rule:evenodd;stroke:none" d="m 2961.22,3844.34 c -7.44,-9.25 -18.5,-14.89 -28.14,-21.9 -106.86,25.55 -253.81,37.37 -381.65,21.9 -4.81,1.65 -0.2,3.26 3.13,3.12 121.37,27.29 287.38,22.42 406.66,-3.12"/>
      <path id="path170" style="fill:#ffffff;fill-opacity:1;fill-rule:evenodd;stroke:none" d="m 2908.04,3797.41 c -0.73,-11.78 -11.78,-13.25 -12.5,-25.03 -99.44,18.22 -256.66,7.17 -337.86,0 98.5,25.89 226.61,34.31 350.36,25.03"/>
      <path id="path172" style="fill:#ffffff;fill-opacity:1;fill-rule:evenodd;stroke:none" d="m 2883.02,3725.47 c -96.8,-0.24 -221.98,-16.62 -319.08,-28.17 7.77,0.93 -19.04,-8.33 0,0 67.89,26.88 179.6,40.63 265.89,43.8 17.21,0.64 54.59,15.87 53.19,-15.63"/>
      <path id="path174" style="fill:#ffffff;fill-opacity:1;fill-rule:evenodd;stroke:none" d="m 2476.35,3625.36 c 32.07,-164.26 143.07,-255.82 284.68,-315.94 4.78,-2.04 18.43,-0.42 15.62,-9.38 -180.16,26.47 -327.68,101.66 -300.3,325.32"/>
      <path id="path176" style="fill:#231f20;fill-opacity:1;fill-rule:evenodd;stroke:none" d="m 2958.1,3503.36 c -56.16,-164.01 -8.15,-401.34 181.42,-381.64 63.81,6.64 104.86,46.21 125.14,103.24 -9.59,-99.91 -65.78,-180.31 -193.95,-172.06 41.74,-57.32 96.31,-128.91 128.25,-206.46 -450.53,-12.47 -683.72,219.21 -1066.71,284.67 40.09,159.07 129.38,268.94 234.61,362.86 -156.9,-79.77 -274.37,-199.01 -362.87,-347.22 -126.73,11.32 -266.47,5.59 -387.89,-6.26 186.8,327.26 482.48,545.64 816.45,725.74 -64.25,-20.91 -89.39,12.99 -122,56.31 -20.35,27.03 -43.75,53.62 -40.66,78.2 109.77,-6.68 287.02,-30.49 347.23,46.92 140.59,63.91 395.25,54.22 459.84,-71.94 4.22,72.23 -81.48,81 -121.99,118.87 139.38,-19.11 289.59,-27.41 347.23,-128.26 82.58,25.59 161.23,-15.37 190.82,-71.95 -8.85,40.17 -26.8,71.22 -56.31,90.72 37.67,5.26 85.41,16.53 121.99,12.52 2.54,-48.57 -33.34,-85.41 -62.56,-112.62 -66.33,12.99 -157.6,13.94 -190.82,-31.29 74.42,-13.25 110.39,-130.68 46.94,-184.55 56.99,11.91 82.52,115.9 40.66,153.28 126.78,-51.73 32.56,-216.85 -15.64,-303.44 -36.27,-65.12 -75.32,-126.19 -109.5,-168.92 7.95,-23.33 6.19,-56.37 6.25,-87.58 -3.02,121.96 -117.3,214.1 -53.16,334.71 -110.57,-90.82 38.3,-204.36 18.77,-315.94 -13.01,-74.25 -141.88,-111.25 -218.99,-68.82 -79.31,43.64 -81.46,187.12 -62.55,290.91"/>
      <path id="path178" style="fill:#d1d2d4;fill-opacity:1;fill-rule:evenodd;stroke:none" d="m 2792.29,3966.33 c 27.7,0.59 52.04,-2.19 75.08,-6.25 -0.5,-10.74 -12.63,-20.22 -6.25,-28.16 67.41,3.8 133.09,-10.79 184.55,-12.51 -47.93,50.39 -164.49,85.8 -253.38,46.92"/>
      <path id="path180" style="fill:#d1d2d4;fill-opacity:1;fill-rule:evenodd;stroke:none" d="m 3295.95,3900.64 c 24.2,23.19 81.38,21.31 118.86,21.9 -26.69,30.35 -129.18,33.43 -118.86,-21.9"/>
      <path id="path182" style="fill:#4696d5;fill-opacity:1;fill-rule:evenodd;stroke:none" d="m 3095.73,3863.1 c 48.91,-22.01 91.25,-50.56 109.49,-103.23 18.42,44.13 57.17,67.97 93.85,93.84 -52.85,20.92 -143.1,31.7 -203.34,9.39"/>
      <path id="path184" style="fill:#4696d5;fill-opacity:1;fill-rule:evenodd;stroke:none" d="m 2554.56,3847.46 c -3.33,0.14 -7.94,-1.47 -3.13,-3.12 127.84,15.47 274.79,3.65 381.65,-21.9 9.64,7.01 20.7,12.65 28.14,21.9 -119.28,25.54 -285.29,30.41 -406.66,3.12"/>
      <path id="path186" style="fill:#4696d5;fill-opacity:1;fill-rule:evenodd;stroke:none" d="m 2557.68,3772.38 c 81.2,7.17 238.42,18.22 337.86,0 0.72,11.78 11.77,13.25 12.5,25.03 -123.75,9.28 -251.86,0.86 -350.36,-25.03"/>
      <path id="path188" style="fill:#4696d5;fill-opacity:1;fill-rule:evenodd;stroke:none" d="m 2829.83,3741.1 c -86.29,-3.17 -198,-16.92 -265.89,-43.8 -19.04,-8.33 7.77,0.93 0,0 97.1,11.55 222.28,27.93 319.08,28.17 1.4,31.5 -35.98,16.27 -53.19,15.63"/>
      <path id="path190" style="fill:#d1d2d4;fill-opacity:1;fill-rule:evenodd;stroke:none" d="m 3011.28,3650.39 c 17.97,-51.95 3.77,-123.63 -15.65,-165.8 10.49,-4.39 19.97,11.87 28.15,21.89 28.4,34.78 51.91,83.56 75.08,118.88 41.7,9.7 110.95,16.46 147.03,-3.13 10.14,-44.03 -7.11,-94.57 -9.4,-125.12 36.53,38.55 55.94,94.22 71.96,153.28 -72.01,39.55 -224.49,36.74 -297.17,0"/>
      <path id="path192" style="fill:#4696d5;fill-opacity:1;fill-rule:evenodd;stroke:none" d="m 2776.65,3300.04 c 2.81,8.96 -10.84,7.34 -15.62,9.38 -141.61,60.12 -252.61,151.68 -284.68,315.94 -27.38,-223.66 120.14,-298.85 300.3,-325.32"/>
      <path id="path194" style="fill:#d1d2d4;fill-opacity:1;fill-rule:evenodd;stroke:none" d="m 3083.21,3275 c 7.05,23.96 6.51,56.09 -3.12,78.22 -12.87,-40.31 -32.58,-73.77 -53.19,-106.37 89.95,-38.47 239.34,-2.71 181.45,115.75 -0.27,-68.5 -51.86,-112.12 -125.14,-87.6"/>
      <path id="path196" style="fill:#4696d5;fill-opacity:1;fill-rule:evenodd;stroke:none" d="m 2908.33,3980.47 c 0,0 -66.95,11.37 -122.15,-15.42 0,0 63.71,-0.81 81.15,-6.49 0,0 8.93,21.1 41,21.91"/>
    </g>
  </g>
</svg>