<svg xmlns="http://www.w3.org/2000/svg" xmlns:xlink="http://www.w3.org/1999/xlink" viewBox="0 0 297 213.2"><defs><style>.a{fill:#003594;}.b{fill:url(#a);}.c{fill:#d7d2cb;}.d{fill:#ffd100;}.e{fill:#ffa300;}.f{fill:#ff8200;}.g{fill:url(#b);}.h{fill:#fff;}</style><linearGradient id="a" x1="207.59" y1="908.13" x2="207.59" y2="907.48" gradientTransform="matrix(276.77, 0, 0, -228.63, -56892.16, 208034.66)" gradientUnits="userSpaceOnUse"><stop offset="0.22" stop-color="#ffd100"/><stop offset="0.3" stop-color="#ffd724"/><stop offset="0.47" stop-color="#ffe87f"/><stop offset="0.71" stop-color="#fff"/></linearGradient><linearGradient id="b" x1="207.39" y1="907.96" x2="208.03" y2="907.96" gradientTransform="matrix(266.1, 0, 0, -265.85, -54759.91, 241891.8)" gradientUnits="userSpaceOnUse"><stop offset="0" stop-color="#ffa300"/><stop offset="0.13" stop-color="#ffa800"/><stop offset="0.29" stop-color="#ffb600"/><stop offset="0.45" stop-color="#ffcd00"/><stop offset="0.48" stop-color="#ffd100"/></linearGradient></defs><title>Los Angeles Rams logo - Brandlogos.net</title><path class="a" d="M624.28,441.61a123.58,123.58,0,0,0-152.81-17.48h0a128.51,128.51,0,0,0-34.34,33.54l-.1.12H411.55L363.5,566.51h62.34a99.39,99.39,0,0,0,39.35,39.92,98.25,98.25,0,0,0,101.08-3.8,9.56,9.56,0,0,0-5.12-17.56,9.73,9.73,0,0,0-2.81.42,66.38,66.38,0,0,1-19.16,2.8,65.5,65.5,0,0,1-48.93-21.78h58.22l10-13.93h38.81s-1.18,3-1.83,4.47l-4.17,9.46h63.51l1.35-5A123.63,123.63,0,0,0,624.28,441.61Zm25.36,118.16h-48a97.22,97.22,0,0,0,4.92-13.93H555L545,559.77H498.79L567.91,463h0a74.8,74.8,0,0,0-28.71-5.56q-1.88,0-3.74.1c-37.5,1.89-67.4,32-67.4,68.72a67.12,67.12,0,0,0,.38,7.14h40.83L497.1,550.46c-3.84,5.16-8.92,9.31-16.67,9.31H477.1A71.61,71.61,0,0,0,539.19,595a73.09,73.09,0,0,0,21.1-3.09,3,3,0,0,1,.86-.13,2.82,2.82,0,0,1,1.43,5.18A91.51,91.51,0,0,1,430,559.77H373.85l42.1-95.24h24.32a91.45,91.45,0,0,1,70.33-35.65l2,0c38.93,0,71.58,23.29,84.8,57.56L573.45,520h36.44A97.83,97.83,0,0,0,475,429.85a116.88,116.88,0,0,1,174.6,129.93ZM514.18,526.61H474.8c0-.13,0-.27,0-.4,0-33,26.79-60.27,61-62,1.14-.06,2.28-.09,3.4-.09a69.79,69.79,0,0,1,17.93,2.32Zm85.39-31.55a90.55,90.55,0,0,1,3.3,18.15H586.62Z" transform="translate(-363.5 -405.4)"/><path class="b" d="M475,429.85A97.83,97.83,0,0,1,601.62,559.77h48A116.87,116.87,0,0,0,475,429.85" transform="translate(-363.5 -405.4)"/><path class="c" d="M597.37,486.43l-9.24,13a47,47,0,0,0-33.75-14.23q-1.19,0-2.36.06L567.9,463A67.56,67.56,0,0,1,597.37,486.43Zm9.16,59.41a97.81,97.81,0,0,0,3.36-25.48v-.41h-10a47.25,47.25,0,0,1-.33,25.89Z" transform="translate(-363.5 -405.4)"/><path class="d" d="M562.58,597a91.52,91.52,0,0,1-94.13,3.54h0a88.34,88.34,0,0,1-15.87-31.12c10.23-.48,25,.41,36,5.11A72.13,72.13,0,0,0,539.19,595a73.09,73.09,0,0,0,21.1-3.09,3,3,0,0,1,.86-.13,2.82,2.82,0,0,1,1.43,5.18Zm-94.15-63.63a67,67,0,0,1-.38-7.14c0-36.73,29.91-66.84,67.4-68.72-43.47,1.77-79.07,34.17-85.15,75.87Z" transform="translate(-363.5 -405.4)"/><path class="e" d="M477.1,559.77H450.47a86.89,86.89,0,0,0,2.1,9.63h0c10.23-.48,25,.41,36,5.11A69.49,69.49,0,0,1,477.1,559.77Z" transform="translate(-363.5 -405.4)"/><path class="f" d="M430,559.77a91.6,91.6,0,0,0,12.44,19.33,30.52,30.52,0,0,1,10.14-9.7,86.89,86.89,0,0,1-2.1-9.63Z" transform="translate(-363.5 -405.4)"/><path class="g" d="M567.9,462.95a74.8,74.8,0,0,0-28.71-5.56q-1.88,0-3.74.1c-43.47,1.77-79.07,34.17-85.15,75.87H425.55L456,464.53H440.26a91.45,91.45,0,0,1,70.33-35.65l2,0c38.93,0,71.58,23.29,84.8,57.56v0A67.55,67.55,0,0,0,567.9,462.95ZM452.57,569.4h0a30.52,30.52,0,0,0-10.14,9.7,91.94,91.94,0,0,0,26,21.43,88.35,88.35,0,0,1-15.87-31.12Z" transform="translate(-363.5 -405.4)"/><path class="h" d="M601.54,532.32a47.24,47.24,0,0,1-2,13.53H555L545,559.77H498.79L552,485.21q1.17-.06,2.36-.06a47,47,0,0,1,33.75,14.23L573.45,520H599.9a47.23,47.23,0,0,1,1.65,12.37Zm-185.6-67.79-42.1,95.24H480.42c7.75,0,12.84-4.15,16.67-9.31l12.16-17.11H425.55L456,464.53Z" transform="translate(-363.5 -405.4)"/></svg>