<svg id="Layer_1" data-name="Layer 1" xmlns="http://www.w3.org/2000/svg" viewBox="0 0 379.63 379.63"><defs><style>.cls-1{fill:#a5acaf;}.cls-2{fill:#fffffe;}.cls-3{fill:#ffb612;}.cls-4{fill:#c60c30;}.cls-5{fill:#00539b;}</style></defs><title>Pittsburgh Steelers logo - Brandlogos.net</title><path d="M194.18,384c0,104.67,85.15,189.81,189.82,189.81S573.82,488.66,573.82,384,488.66,194.19,384,194.19,194.18,279.34,194.18,384" transform="translate(-194.18 -194.19)"/><path class="cls-1" d="M384,569.65c102.53,0,185.65-83.12,185.65-185.65S486.53,198.35,384,198.35,198.35,281.47,198.35,384,281.47,569.65,384,569.65" transform="translate(-194.18 -194.19)"/><path class="cls-2" d="M384,539.32A154.87,154.87,0,1,0,229.13,384.46,154.86,154.86,0,0,0,384,539.32" transform="translate(-194.18 -194.19)"/><path class="cls-3" d="M384.8,384.66c1.79-63.43,61.71-78.32,76.77-77-37.11-2-73.74-17.69-76.57-76.38-4.47,54.57-26.37,70.09-76.84,76.57,36,1.82,72.54,16.09,76.64,76.77" transform="translate(-194.18 -194.19)"/><path class="cls-4" d="M461.78,463.18c1.79-63.44,60.66-79.09,75.71-77.72-37.23-1.38-73.1-19.08-75.92-77.76-4.47,54.58-26.3,70.49-76.77,77,36.05,1.83,72.87,17.83,77,78.52" transform="translate(-194.18 -194.19)"/><path class="cls-5" d="M385.73,538.68c1.79-63.44,61-76.87,76-75.5-37.11-2-74.15-19.83-77-78.52-4.47,54.58-25.72,71-76.18,77.45,36,1.84,73,15.89,77.11,76.57" transform="translate(-194.18 -194.19)"/><path d="M341.65,371.1l6.05-.06,0,2.92c.91-1.61,1.45-2.56,3.51-3h1.5V378c-5.2-.37-4.86,1.46-4.92,2.86v13.46h-6.16V371.1Zm27.24,7.58-5.39,0a6.8,6.8,0,0,0-.09-1.48,1.9,1.9,0,0,0-1.76-1.17,1.88,1.88,0,0,0-2,1.23c-.38,1.12-.2,2.77,2.71,3.1l1.48.37c1.65.55,3.25,1,4.49,3.38a7.57,7.57,0,0,1,.58,1.7,7.1,7.1,0,0,1-.55,5.68,8,8,0,0,1-2.07,2.19,10.18,10.18,0,0,1-8.17.71,6.22,6.22,0,0,1-3.61-2.92c-.77-1.49-.79-2.71-.89-4.72l5.22,0a2,2,0,0,0,1.21,2.07c.81.32,2.85.33,3.21-.58a1.57,1.57,0,0,0-.15-1.84c-1-1.54-3.2-1.79-5.12-2.27-3.43-.87-4.26-4.19-4.11-6.71a6.2,6.2,0,0,1,1-3.49,5.92,5.92,0,0,1,3.22-2.32,8.34,8.34,0,0,1,9.17,1.68c1.18,1.18,1.56,3.36,1.61,5.46Zm-100.08-7.44h-4.27l-2.33,0c-.06-1-.21-2.35-.89-3a2.78,2.78,0,0,0-3.86.86c-1.08,2.27.31,4.41,3.8,5.52l1,.48c3.3,1.61,4.22,2.4,5.45,4.14a9.71,9.71,0,0,1,1.39,3.57,12.5,12.5,0,0,1-1.08,7.76,4.54,4.54,0,0,1-1.16,1.71A10.63,10.63,0,0,1,255,394a6.65,6.65,0,0,1-3.8-3.57,12.26,12.26,0,0,1-.83-6.71l6.64,0c-.12.93.15,3.28.78,3.94s3.14,1.28,4.1-.44c.35-.6.43-3.22-.63-4.23-2-1.91-3.71-2.11-6.06-3.58a10.5,10.5,0,0,1-4.92-9.4,9.36,9.36,0,0,1,1.38-4.34,7.93,7.93,0,0,1,3.66-3.53c4.47-2,9.93-.84,12.33,3.41a10.28,10.28,0,0,1,1.17,5.71Zm3.4-.12V369l6.22-3.42,0,5.64,2.37-.05,0,5.49-2.39,0v9.15c0,1.25-.23,1.75,2.28,1.71v7c-3-.07-8.57.94-8.6-5.61l-.05-12.33-2.32.08,0-5.36,2.47-.08Zm44-9.32,6.28,0v32.71h-6.28V361.8Zm13.26,26c0,2.08,4.56,2.51,4.67-.12V387l5.13,0v2.74c.06,1.82-.7,3.8-3.77,4.86a12.32,12.32,0,0,1-7.21,0c-2.51-.92-3.73-2.91-3.84-5.72V377.49a6,6,0,0,1,3.12-5.32,9.34,9.34,0,0,1,8.05-.21c2.5,1.36,3.63,3.05,3.66,5.41v7.19h-9.83l0,3.2Zm.22-8.05,4.64,0C335.26,375.67,328.9,375.14,329.67,379.71Zm-25.18,8.05c0,2.08,4.57,2.51,4.68-.12V387l5.12,0,0,2.74c0,1.82-.71,3.8-3.79,4.86a12.28,12.28,0,0,1-7.2,0c-2.51-.92-3.73-2.91-3.84-5.72V377.49c-.12-2.12,1.07-4,3.12-5.32a9.31,9.31,0,0,1,8-.21c2.51,1.36,3.64,3.05,3.67,5.41v7.19H304.5v3.2Zm.23-8.05,4.64,0C310.31,375.67,303.94,375.14,304.72,379.71Zm-17.22,8.05c0,2.08,4.56,2.51,4.68-.12V387l5.12,0v2.74c.05,1.82-.71,3.8-3.78,4.86a12.32,12.32,0,0,1-7.21,0c-2.5-.92-3.72-2.91-3.84-5.72V377.49c-.11-2.12,1.08-4,3.13-5.32a9.32,9.32,0,0,1,8-.21c2.51,1.36,3.63,3.05,3.66,5.41v7.19h-9.8v3.2Zm.23-8.05,4.63,0C293.32,375.67,287,375.14,287.73,379.71Z" transform="translate(-194.18 -194.19)"/></svg>