<?xml version="1.0" encoding="UTF-8" standalone="no"?>
<!-- Created with Inkscape (http://www.inkscape.org/) -->

<svg
   version="1.1"
   id="svg2"
   width="1122.52"
   height="793.70667"
   viewBox="0 0 1122.52 793.70667"
   sodipodi:docname="houston-texans-logo-vector.ai"
   xmlns:inkscape="http://www.inkscape.org/namespaces/inkscape"
   xmlns:sodipodi="http://sodipodi.sourceforge.net/DTD/sodipodi-0.dtd"
   xmlns="http://www.w3.org/2000/svg"
   xmlns:svg="http://www.w3.org/2000/svg">
  <defs
     id="defs6">
    <clipPath
       clipPathUnits="userSpaceOnUse"
       id="clipPath16">
      <path
         d="M 0,595.28 H 841.89 V 0 H 0 Z"
         id="path14" />
    </clipPath>
  </defs>
  <sodipodi:namedview
     id="namedview4"
     pagecolor="#ffffff"
     bordercolor="#000000"
     borderopacity="0.25"
     inkscape:showpageshadow="2"
     inkscape:pageopacity="0.0"
     inkscape:pagecheckerboard="0"
     inkscape:deskcolor="#d1d1d1" />
  <g
     id="g8"
     inkscape:groupmode="layer"
     inkscape:label="houston-texans-logo-vector"
     transform="matrix(1.3333333,0,0,-1.3333333,0,793.70667)">
    <g
       id="g10">
      <g
         id="g12"
         clip-path="url(#clipPath16)">
        <g
           id="g18"
           transform="translate(473.0654,363.564)">
          <path
             d="m 0,0 c 46.904,-35.692 11.21,-41.039 -25.413,-46.248 0,0 -15.462,4.263 -42.241,17.569 -60.736,30.173 -41.616,44.389 6.121,52.987 -76.41,33.286 -140.09,-24.668 -69.832,-81.023 l -19.283,-13.782 c 15.845,-9.707 48.642,-30.076 43.877,-61.259 l -16.279,-11.637 49.73,-22.531 39.237,17.775 c 0.292,17.277 31.156,26.244 44.44,61.375 C 83.46,-70.004 64.837,-5.688 0,0"
             style="fill:#ffffff;fill-opacity:1;fill-rule:nonzero;stroke:none"
             id="path20" />
        </g>
        <g
           id="g22"
           transform="translate(486.2412,357.98)">
          <path
             d="m 0,0 c 31.493,-24.662 9.632,-40.409 -28.771,-44.692 9.714,-40.948 -20.07,-78.455 -51.607,-107.506 l 28.915,13.107 c 2.144,16.641 31.478,25.297 45.371,62.229 C 59.206,-62.298 48.556,-15.436 0,0"
             style="fill:#b21e35;fill-opacity:1;fill-rule:nonzero;stroke:none"
             id="path24" />
        </g>
        <g
           id="g26"
           transform="translate(416.5264,256.9502)">
          <path
             d="m 0,0 -14.099,16.026 -16.192,-2.415 7.488,12.333 -14.094,16.047 18.72,-8.433 7.463,12.327 L -6.625,28.363 12.1,19.947 -4.096,17.529 Z M 23.123,57.075 C -68.645,92.524 -74.728,121.6 -17.44,131.65 -89.082,151.113 -130.86,99.193 -59.98,49.676 L -79.006,36.084 c 20.2,-13.5 41.604,-33.48 34.339,-64.928 l -9.583,-6.844 36.81,-16.681 c 34.257,37.514 52.175,73.967 40.563,109.444"
             style="fill:#06192e;fill-opacity:1;fill-rule:nonzero;stroke:none"
             id="path28" />
        </g>
        <g
           id="g30"
           transform="translate(416.5264,256.9502)">
          <path
             d="m 0,0 -14.099,16.026 -16.192,-2.415 7.488,12.333 -14.094,16.047 18.72,-8.433 7.463,12.327 L -6.625,28.363 12.1,19.947 -4.096,17.529 Z M 23.123,57.075 C -68.645,92.524 -74.728,121.6 -17.44,131.65 -89.082,151.113 -130.86,99.193 -59.98,49.676 L -79.006,36.084 c 20.2,-13.5 41.604,-33.48 34.339,-64.928 l -9.583,-6.844 36.81,-16.681 c 34.257,37.514 52.175,73.967 40.563,109.444"
             style="fill:#06192e;fill-opacity:1;fill-rule:nonzero;stroke:none"
             id="path32" />
        </g>
        <g
           id="g34"
           transform="translate(486.2412,357.98)">
          <path
             d="m 0,0 c 31.493,-24.662 9.632,-40.409 -28.771,-44.692 9.714,-40.948 -20.07,-78.455 -51.607,-107.506 l 28.915,13.107 c 2.144,16.641 31.478,25.297 45.371,62.229 C 59.206,-62.298 48.556,-15.436 0,0"
             style="fill:#b21e35;fill-opacity:1;fill-rule:nonzero;stroke:none"
             id="path36" />
        </g>
        <g
           id="g38"
           transform="translate(435.0859,208.6885)">
          <path
             d="M 0,0 H -1.649 V -4.587 H -2.601 V 0 H -4.247 V 0.782 H 0.001 L 0.001,0 Z M 3.923,-3.166 5.435,0.782 H 6.882 V -4.587 H 5.931 V -0.22 H 5.906 L 4.233,-4.587 H 3.586 L 1.913,-0.22 H 1.883 V -4.587 H 0.935 v 5.369 h 1.457 z"
             style="fill:#ffffff;fill-opacity:1;fill-rule:nonzero;stroke:none"
             id="path40" />
        </g>
        <g
           id="g42"
           transform="translate(164.5703,32.0996)">
          <path
             d="m 0,0 c 0.479,-0.065 1.174,-0.087 1.912,-0.087 4.064,0 6.236,2.26 6.236,6.215 C 8.17,9.582 6.215,11.776 2.217,11.776 1.239,11.776 0.5,11.69 0,11.581 Z m -1.89,12.95 c 1.152,0.196 2.521,0.326 4.02,0.326 2.716,0 4.649,-0.652 5.932,-1.825 C 9.387,10.256 10.147,8.562 10.147,6.192 10.147,3.803 9.387,1.847 8.04,0.5 6.649,-0.869 4.39,-1.608 1.543,-1.608 c -1.369,0 -2.477,0.065 -3.433,0.173 z"
             style="fill:#bb8545;fill-opacity:1;fill-rule:nonzero;stroke:none"
             id="path44" />
        </g>
        <g
           id="g46"
           transform="translate(178.3721,35.8584)">
          <path
             d="m 0,0 c 0,-2.303 1.304,-4.041 3.172,-4.041 1.825,0 3.194,1.717 3.194,4.085 0,1.781 -0.89,4.019 -3.15,4.019 C 0.978,4.063 0,1.978 0,0 m 8.321,0.109 c 0,-3.889 -2.716,-5.585 -5.236,-5.585 -2.824,0 -5.041,2.086 -5.041,5.412 0,3.498 2.325,5.562 5.215,5.562 3.02,0 5.062,-2.195 5.062,-5.389"
             style="fill:#bb8545;fill-opacity:1;fill-rule:nonzero;stroke:none"
             id="path48" />
        </g>
        <g
           id="g50"
           transform="translate(189.7178,41.1387)">
          <path
             d="m 0,0 1.412,-5.345 c 0.282,-1.174 0.565,-2.259 0.761,-3.346 h 0.064 c 0.24,1.064 0.587,2.194 0.935,3.324 L 4.889,0 h 1.607 l 1.63,-5.259 c 0.392,-1.26 0.695,-2.368 0.935,-3.432 H 9.126 C 9.3,-7.627 9.582,-6.519 9.93,-5.28 L 11.429,0 h 1.89 L 9.93,-10.517 H 8.191 l -1.608,5.02 C 6.214,-4.324 5.91,-3.281 5.649,-2.042 H 5.605 C 5.345,-3.303 5.019,-4.39 4.649,-5.519 L 2.955,-10.517 H 1.217 L -1.956,0 Z"
             style="fill:#bb8545;fill-opacity:1;fill-rule:nonzero;stroke:none"
             id="path52" />
        </g>
        <g
           id="g54"
           transform="translate(204.9531,38.292)">
          <path
             d="M 0,0 C 0,1.108 -0.021,1.978 -0.087,2.847 H 1.607 L 1.717,1.108 H 1.76 c 0.521,0.978 1.738,1.956 3.476,1.956 1.456,0 3.716,-0.869 3.716,-4.476 V -7.67 H 7.04 v 6.063 C 7.04,0.087 6.41,1.5 4.606,1.5 3.368,1.5 2.39,0.608 2.042,-0.456 1.955,-0.695 1.912,-1.021 1.912,-1.347 V -7.67 H 0 Z"
             style="fill:#bb8545;fill-opacity:1;fill-rule:nonzero;stroke:none"
             id="path56" />
        </g>
        <path
           d="m 217.016,46.05 h 1.912 V 30.622 h -1.912 z"
           style="fill:#bb8545;fill-opacity:1;fill-rule:nonzero;stroke:none"
           id="path58" />
        <g
           id="g60"
           transform="translate(223.3398,35.8584)">
          <path
             d="m 0,0 c 0,-2.303 1.304,-4.041 3.172,-4.041 1.825,0 3.194,1.717 3.194,4.085 0,1.781 -0.89,4.019 -3.15,4.019 C 0.978,4.063 0,1.978 0,0 m 8.321,0.109 c 0,-3.889 -2.716,-5.585 -5.236,-5.585 -2.824,0 -5.041,2.086 -5.041,5.412 0,3.498 2.325,5.562 5.215,5.562 3.02,0 5.062,-2.195 5.062,-5.389"
             style="fill:#bb8545;fill-opacity:1;fill-rule:nonzero;stroke:none"
             id="path62" />
        </g>
        <g
           id="g64"
           transform="translate(239.6172,35.9893)">
          <path
             d="m 0,0 c -2.086,0.043 -4.454,-0.326 -4.454,-2.369 0,-1.26 0.825,-1.824 1.781,-1.824 1.391,0 2.282,0.869 2.586,1.759 C -0.021,-2.217 0,-1.999 0,-1.825 Z m 1.847,-2.847 c 0,-0.913 0.044,-1.803 0.152,-2.52 H 0.282 L 0.131,-4.042 H 0.065 c -0.586,-0.825 -1.716,-1.564 -3.215,-1.564 -2.13,0 -3.216,1.499 -3.216,3.02 0,2.542 2.26,3.933 6.323,3.911 v 0.218 c 0,0.847 -0.239,2.434 -2.391,2.411 -0.999,0 -2.02,-0.282 -2.759,-0.782 l -0.435,1.282 c 0.869,0.543 2.151,0.913 3.477,0.913 3.215,0 3.998,-2.195 3.998,-4.281 z"
             style="fill:#bb8545;fill-opacity:1;fill-rule:nonzero;stroke:none"
             id="path66" />
        </g>
        <g
           id="g68"
           transform="translate(251.7227,36.8584)">
          <path
             d="m 0,0 c 0,0.238 -0.021,0.564 -0.087,0.804 -0.282,1.195 -1.325,2.194 -2.759,2.194 -1.977,0 -3.151,-1.738 -3.151,-4.041 0,-2.13 1.065,-3.89 3.107,-3.89 1.283,0 2.455,0.87 2.803,2.282 C -0.021,-2.391 0,-2.13 0,-1.825 Z M 1.891,9.191 V -3.521 c 0,-0.934 0.044,-1.999 0.087,-2.715 H 0.283 L 0.196,-4.411 H 0.131 c -0.566,-1.173 -1.825,-2.065 -3.542,-2.065 -2.542,0 -4.52,2.152 -4.52,5.346 -0.021,3.498 2.173,5.628 4.715,5.628 1.63,0 2.695,-0.761 3.173,-1.587 H 0 v 6.28 z"
             style="fill:#bb8545;fill-opacity:1;fill-rule:nonzero;stroke:none"
             id="path70" />
        </g>
        <g
           id="g72"
           transform="translate(260.8096,30.6221)">
          <path
             d="m 0,0 v 1.174 l 1.499,1.455 c 3.607,3.434 5.259,5.259 5.259,7.388 0,1.434 -0.674,2.759 -2.781,2.759 -1.283,0 -2.347,-0.651 -2.999,-1.195 l -0.609,1.348 c 0.956,0.803 2.368,1.433 3.977,1.433 3.042,0 4.324,-2.086 4.324,-4.106 C 8.67,7.648 6.779,5.541 3.803,2.673 L 2.694,1.63 V 1.586 H 9.018 V 0 Z"
             style="fill:#bb8545;fill-opacity:1;fill-rule:nonzero;stroke:none"
             id="path74" />
        </g>
        <g
           id="g76"
           transform="translate(273.6973,37.6182)">
          <path
             d="m 0,0 c 0,-3.672 1.13,-5.758 2.868,-5.758 1.934,0 2.868,2.281 2.868,5.889 0,3.476 -0.869,5.758 -2.868,5.758 C 1.217,5.889 0,3.847 0,0 m 7.67,0.218 c 0,-4.802 -1.804,-7.453 -4.91,-7.453 -2.76,0 -4.651,2.586 -4.694,7.257 0,4.759 2.064,7.344 4.932,7.344 2.955,0 4.672,-2.65 4.672,-7.148"
             style="fill:#bb8545;fill-opacity:1;fill-rule:nonzero;stroke:none"
             id="path78" />
        </g>
        <g
           id="g80"
           transform="translate(284.8467,37.6182)">
          <path
             d="m 0,0 c 0,-3.672 1.13,-5.758 2.868,-5.758 1.934,0 2.868,2.281 2.868,5.889 0,3.476 -0.869,5.758 -2.868,5.758 C 1.217,5.889 0,3.847 0,0 m 7.67,0.218 c 0,-4.802 -1.804,-7.453 -4.91,-7.453 -2.76,0 -4.651,2.586 -4.694,7.257 0,4.759 2.064,7.344 4.932,7.344 2.955,0 4.672,-2.65 4.672,-7.148"
             style="fill:#bb8545;fill-opacity:1;fill-rule:nonzero;stroke:none"
             id="path82" />
        </g>
        <g
           id="g84"
           transform="translate(293.6279,27.9277)">
          <path
             d="M 0,0 C 0.478,1.304 1.064,3.629 1.304,5.215 L 3.433,5.433 C 2.911,3.585 1.955,1.173 1.347,0.152 Z"
             style="fill:#bb8545;fill-opacity:1;fill-rule:nonzero;stroke:none"
             id="path86" />
        </g>
        <g
           id="g88"
           transform="translate(300.4941,37.6182)">
          <path
             d="m 0,0 c 0,-3.672 1.13,-5.758 2.868,-5.758 1.935,0 2.868,2.281 2.868,5.889 0,3.476 -0.869,5.758 -2.868,5.758 C 1.217,5.889 0,3.847 0,0 m 7.671,0.218 c 0,-4.802 -1.804,-7.453 -4.911,-7.453 -2.76,0 -4.65,2.586 -4.694,7.257 0,4.759 2.065,7.344 4.933,7.344 2.955,0 4.672,-2.65 4.672,-7.148"
             style="fill:#bb8545;fill-opacity:1;fill-rule:nonzero;stroke:none"
             id="path90" />
        </g>
        <g
           id="g92"
           transform="translate(311.6436,37.6182)">
          <path
             d="m 0,0 c 0,-3.672 1.13,-5.758 2.868,-5.758 1.935,0 2.868,2.281 2.868,5.889 0,3.476 -0.869,5.758 -2.868,5.758 C 1.217,5.889 0,3.847 0,0 m 7.671,0.218 c 0,-4.802 -1.804,-7.453 -4.911,-7.453 -2.76,0 -4.65,2.586 -4.694,7.257 0,4.759 2.065,7.344 4.933,7.344 2.955,0 4.672,-2.65 4.672,-7.148"
             style="fill:#bb8545;fill-opacity:1;fill-rule:nonzero;stroke:none"
             id="path94" />
        </g>
        <g
           id="g96"
           transform="translate(322.793,37.6182)">
          <path
             d="m 0,0 c 0,-3.672 1.13,-5.758 2.868,-5.758 1.935,0 2.868,2.281 2.868,5.889 0,3.476 -0.869,5.758 -2.868,5.758 C 1.217,5.889 0,3.847 0,0 m 7.67,0.218 c 0,-4.802 -1.803,-7.453 -4.91,-7.453 -2.76,0 -4.65,2.586 -4.694,7.257 0,4.759 2.065,7.344 4.933,7.344 2.955,0 4.671,-2.65 4.671,-7.148"
             style="fill:#bb8545;fill-opacity:1;fill-rule:nonzero;stroke:none"
             id="path98" />
        </g>
        <g
           id="g100"
           transform="translate(338.3965,42.1816)">
          <path
             d="M 0,0 V -5.106 H 4.911 V -6.41 H 0 v -5.15 h -1.391 v 5.15 h -4.91 v 1.304 h 4.91 V 0 Z"
             style="fill:#bb8545;fill-opacity:1;fill-rule:nonzero;stroke:none"
             id="path102" />
        </g>
        <g
           id="g104"
           transform="translate(352.2637,34.8369)">
          <path
             d="m 0,0 c 0,-0.238 0.022,-0.478 0.088,-0.695 0.348,-1.326 1.476,-2.238 2.867,-2.238 2.022,0 3.194,1.63 3.194,4.041 0,2.109 -1.086,3.912 -3.15,3.912 C 1.717,5.02 0.5,4.107 0.109,2.673 0.044,2.434 0,2.174 0,1.869 Z M -1.89,11.213 H 0 V 4.607 H 0.044 C 0.718,5.78 1.935,6.52 3.629,6.52 c 2.629,0 4.455,-2.174 4.455,-5.346 0,-3.759 -2.391,-5.628 -4.737,-5.628 -1.521,0 -2.738,0.587 -3.542,1.956 h -0.043 l -0.11,-1.717 h -1.629 c 0.043,0.717 0.087,1.781 0.087,2.716 z"
             style="fill:#bb8545;fill-opacity:1;fill-rule:nonzero;stroke:none"
             id="path106" />
        </g>
        <g
           id="g108"
           transform="translate(362.7402,37.8574)">
          <path
             d="M 0,0 C 0,1.239 -0.021,2.304 -0.087,3.281 H 1.586 L 1.673,1.195 H 1.738 C 2.216,2.607 3.39,3.499 4.672,3.499 4.867,3.499 5.02,3.477 5.193,3.455 V 1.651 C 4.997,1.695 4.802,1.695 4.541,1.695 3.193,1.695 2.238,0.695 1.977,-0.738 1.934,-0.999 1.912,-1.325 1.912,-1.63 V -7.235 H 0 Z"
             style="fill:#bb8545;fill-opacity:1;fill-rule:nonzero;stroke:none"
             id="path110" />
        </g>
        <g
           id="g112"
           transform="translate(375.2793,35.9893)">
          <path
             d="m 0,0 c -2.086,0.043 -4.454,-0.326 -4.454,-2.369 0,-1.26 0.825,-1.824 1.781,-1.824 1.391,0 2.282,0.869 2.586,1.759 C -0.021,-2.217 0,-1.999 0,-1.825 Z m 1.847,-2.847 c 0,-0.913 0.044,-1.803 0.152,-2.52 H 0.282 L 0.131,-4.042 H 0.065 c -0.586,-0.825 -1.716,-1.564 -3.215,-1.564 -2.13,0 -3.216,1.499 -3.216,3.02 0,2.542 2.26,3.933 6.323,3.911 v 0.218 c 0,0.847 -0.239,2.434 -2.391,2.411 -1,0 -2.02,-0.282 -2.759,-0.782 l -0.435,1.282 c 0.869,0.543 2.151,0.913 3.477,0.913 3.215,0 3.998,-2.195 3.998,-4.281 z"
             style="fill:#bb8545;fill-opacity:1;fill-rule:nonzero;stroke:none"
             id="path114" />
        </g>
        <g
           id="g116"
           transform="translate(380.2148,38.292)">
          <path
             d="M 0,0 C 0,1.108 -0.021,1.978 -0.087,2.847 H 1.607 L 1.717,1.108 H 1.76 c 0.521,0.978 1.738,1.956 3.476,1.956 1.456,0 3.716,-0.869 3.716,-4.476 V -7.67 H 7.04 v 6.063 C 7.04,0.087 6.41,1.5 4.606,1.5 3.367,1.5 2.39,0.608 2.042,-0.456 1.955,-0.695 1.912,-1.021 1.912,-1.347 V -7.67 H 0 Z"
             style="fill:#bb8545;fill-opacity:1;fill-rule:nonzero;stroke:none"
             id="path118" />
        </g>
        <g
           id="g120"
           transform="translate(399.4473,36.8584)">
          <path
             d="m 0,0 c 0,0.238 -0.021,0.564 -0.087,0.804 -0.282,1.195 -1.325,2.194 -2.759,2.194 -1.977,0 -3.151,-1.738 -3.151,-4.041 0,-2.13 1.065,-3.89 3.107,-3.89 1.283,0 2.455,0.87 2.803,2.282 C -0.021,-2.391 0,-2.13 0,-1.825 Z M 1.891,9.191 V -3.521 c 0,-0.934 0.043,-1.999 0.087,-2.715 H 0.283 L 0.195,-4.411 H 0.131 c -0.566,-1.173 -1.825,-2.065 -3.542,-2.065 -2.542,0 -4.52,2.152 -4.52,5.346 -0.021,3.498 2.173,5.628 4.715,5.628 1.63,0 2.695,-0.761 3.173,-1.587 H 0 v 6.28 z"
             style="fill:#bb8545;fill-opacity:1;fill-rule:nonzero;stroke:none"
             id="path122" />
        </g>
        <path
           d="m 409.143,46.05 h 1.912 V 30.622 h -1.912 z"
           style="fill:#bb8545;fill-opacity:1;fill-rule:nonzero;stroke:none"
           id="path124" />
        <g
           id="g126"
           transform="translate(415.4668,35.8584)">
          <path
             d="m 0,0 c 0,-2.303 1.304,-4.041 3.173,-4.041 1.824,0 3.193,1.717 3.193,4.085 0,1.781 -0.89,4.019 -3.15,4.019 C 0.978,4.063 0,1.978 0,0 m 8.322,0.109 c 0,-3.889 -2.716,-5.585 -5.237,-5.585 -2.824,0 -5.041,2.086 -5.041,5.412 0,3.498 2.325,5.562 5.215,5.562 3.02,0 5.063,-2.195 5.063,-5.389"
             style="fill:#bb8545;fill-opacity:1;fill-rule:nonzero;stroke:none"
             id="path128" />
        </g>
        <g
           id="g130"
           transform="translate(433.2871,36.9883)">
          <path
             d="m 0,0 c 0,0.326 -0.021,0.608 -0.109,0.848 -0.348,1.13 -1.26,2.042 -2.672,2.042 -1.825,0 -3.129,-1.542 -3.129,-3.976 0,-2.064 1.064,-3.781 3.107,-3.781 1.195,0 2.26,0.739 2.651,1.956 C -0.044,-2.585 0,-2.216 0,-1.89 Z m 1.912,-4.823 c 0,-2.434 -0.5,-3.89 -1.5,-4.824 -1.043,-0.934 -2.519,-1.26 -3.846,-1.26 -1.259,0 -2.65,0.303 -3.498,0.869 l 0.479,1.477 c 0.695,-0.456 1.781,-0.847 3.085,-0.847 1.956,0 3.389,1.021 3.389,3.694 v 1.151 h -0.042 c -0.566,-0.977 -1.717,-1.76 -3.347,-1.76 -2.608,0 -4.476,2.217 -4.476,5.129 0,3.562 2.324,5.562 4.758,5.562 1.825,0 2.803,-0.934 3.281,-1.804 H 0.238 L 0.304,4.15 H 1.999 C 1.934,3.411 1.912,2.542 1.912,1.282 Z"
             style="fill:#bb8545;fill-opacity:1;fill-rule:nonzero;stroke:none"
             id="path132" />
        </g>
        <g
           id="g134"
           transform="translate(439.5479,35.8584)">
          <path
             d="m 0,0 c 0,-2.303 1.304,-4.041 3.173,-4.041 1.824,0 3.193,1.717 3.193,4.085 0,1.781 -0.89,4.019 -3.15,4.019 C 0.978,4.063 0,1.978 0,0 m 8.322,0.109 c 0,-3.889 -2.716,-5.585 -5.237,-5.585 -2.824,0 -5.041,2.086 -5.041,5.412 0,3.498 2.325,5.562 5.215,5.562 3.02,0 5.063,-2.195 5.063,-5.389"
             style="fill:#bb8545;fill-opacity:1;fill-rule:nonzero;stroke:none"
             id="path136" />
        </g>
        <g
           id="g138"
           transform="translate(450.0234,32.5557)">
          <path
             d="m 0,0 c 0.587,-0.348 1.586,-0.738 2.543,-0.738 1.368,0 2.02,0.674 2.02,1.564 0,0.912 -0.543,1.391 -1.934,1.912 -1.912,0.696 -2.803,1.717 -2.803,2.977 0,1.695 1.391,3.086 3.629,3.086 1.065,0 1.999,-0.283 2.565,-0.653 L 5.563,6.758 C 5.15,7.019 4.39,7.388 3.412,7.388 2.281,7.388 1.674,6.736 1.674,5.954 1.674,5.085 2.281,4.693 3.65,4.15 5.454,3.477 6.41,2.564 6.41,1 c 0,-1.869 -1.456,-3.173 -3.911,-3.173 -1.151,0 -2.216,0.305 -2.955,0.739 z"
             style="fill:#bb8545;fill-opacity:1;fill-rule:nonzero;stroke:none"
             id="path140" />
        </g>
        <path
           d="m 463.499,41.139 h 1.912 V 30.622 h -1.912 z m 2.13,2.955 c 0,-0.652 -0.457,-1.173 -1.217,-1.173 -0.695,0 -1.152,0.521 -1.152,1.173 0,0.651 0.478,1.195 1.195,1.195 0.695,0 1.174,-0.521 1.174,-1.195"
           style="fill:#bb8545;fill-opacity:1;fill-rule:nonzero;stroke:none"
           id="path142" />
        <g
           id="g144"
           transform="translate(468.584,38.292)">
          <path
             d="M 0,0 C 0,1.108 -0.021,1.978 -0.087,2.847 H 1.608 L 1.717,1.108 H 1.76 c 0.521,0.978 1.738,1.956 3.476,1.956 1.456,0 3.716,-0.869 3.716,-4.476 V -7.67 H 7.04 v 6.063 C 7.04,0.087 6.41,1.5 4.606,1.5 3.368,1.5 2.391,0.608 2.043,-0.456 1.956,-0.695 1.912,-1.021 1.912,-1.347 V -7.67 H 0 Z"
             style="fill:#bb8545;fill-opacity:1;fill-rule:nonzero;stroke:none"
             id="path146" />
        </g>
        <g
           id="g148"
           transform="translate(485.9932,41.1387)">
          <path
             d="m 0,0 2.063,-5.889 c 0.348,-0.977 0.631,-1.846 0.848,-2.715 h 0.066 c 0.239,0.869 0.543,1.738 0.89,2.715 L 5.91,0 H 7.909 L 3.78,-10.517 H 1.955 L -2.043,0 Z"
             style="fill:#bb8545;fill-opacity:1;fill-rule:nonzero;stroke:none"
             id="path150" />
        </g>
        <g
           id="g152"
           transform="translate(502.1621,36.9014)">
          <path
             d="M 0,0 C 0.021,1.195 -0.5,3.086 -2.65,3.086 -4.606,3.086 -5.432,1.326 -5.584,0 Z m -5.605,-1.369 c 0.042,-2.585 1.672,-3.651 3.606,-3.651 1.369,0 2.216,0.24 2.911,0.544 L 1.26,-5.845 c -0.673,-0.303 -1.847,-0.674 -3.52,-0.674 -3.237,0 -5.172,2.152 -5.172,5.324 0,3.173 1.869,5.65 4.933,5.65 3.455,0 4.346,-2.999 4.346,-4.933 0,-0.391 -0.022,-0.673 -0.066,-0.891 z"
             style="fill:#bb8545;fill-opacity:1;fill-rule:nonzero;stroke:none"
             id="path154" />
        </g>
        <g
           id="g156"
           transform="translate(513.877,30.9912)">
          <path
             d="m 0,0 c -0.5,-0.238 -1.608,-0.608 -3.021,-0.608 -3.172,0 -5.237,2.151 -5.237,5.367 0,3.237 2.217,5.606 5.651,5.606 1.128,0 2.128,-0.283 2.65,-0.565 L -0.392,8.344 c -0.456,0.239 -1.172,0.5 -2.215,0.5 -2.413,0 -3.716,-1.804 -3.716,-3.977 0,-2.433 1.564,-3.932 3.65,-3.932 1.086,0 1.804,0.26 2.347,0.5 z"
             style="fill:#bb8545;fill-opacity:1;fill-rule:nonzero;stroke:none"
             id="path158" />
        </g>
        <g
           id="g160"
           transform="translate(518.7021,43.6592)">
          <path
             d="M 0,0 V -2.521 H 2.737 V -3.977 H 0 v -5.67 c 0,-1.304 0.369,-2.042 1.434,-2.042 0.521,0 0.826,0.043 1.108,0.129 l 0.087,-1.456 c -0.369,-0.13 -0.956,-0.26 -1.694,-0.26 -0.892,0 -1.609,0.304 -2.065,0.803 -0.521,0.587 -0.739,1.522 -0.739,2.76 v 5.736 h -1.63 v 1.456 h 1.63 v 1.957 z"
             style="fill:#bb8545;fill-opacity:1;fill-rule:nonzero;stroke:none"
             id="path162" />
        </g>
        <g
           id="g164"
           transform="translate(524.6582,35.8584)">
          <path
             d="m 0,0 c 0,-2.303 1.304,-4.041 3.172,-4.041 1.826,0 3.194,1.717 3.194,4.085 0,1.781 -0.89,4.019 -3.15,4.019 C 0.978,4.063 0,1.978 0,0 m 8.322,0.109 c 0,-3.889 -2.717,-5.585 -5.236,-5.585 -2.825,0 -5.041,2.086 -5.041,5.412 0,3.498 2.324,5.562 5.215,5.562 3.019,0 5.062,-2.195 5.062,-5.389"
             style="fill:#bb8545;fill-opacity:1;fill-rule:nonzero;stroke:none"
             id="path166" />
        </g>
        <g
           id="g168"
           transform="translate(535.3945,37.8574)">
          <path
             d="M 0,0 C 0,1.239 -0.021,2.304 -0.087,3.281 H 1.586 L 1.674,1.195 H 1.738 C 2.217,2.607 3.39,3.499 4.672,3.499 4.867,3.499 5.02,3.477 5.193,3.455 V 1.651 C 4.998,1.695 4.803,1.695 4.541,1.695 3.194,1.695 2.238,0.695 1.978,-0.738 1.934,-0.999 1.912,-1.325 1.912,-1.63 V -7.235 H 0 Z"
             style="fill:#bb8545;fill-opacity:1;fill-rule:nonzero;stroke:none"
             id="path170" />
        </g>
        <g
           id="g172"
           transform="translate(547.3047,30.6221)">
          <path
             d="m 0,0 v 9.061 h -1.455 v 1.456 H 0 v 0.5 c 0,1.477 0.348,2.824 1.217,3.671 0.718,0.696 1.674,0.978 2.564,0.978 0.696,0 1.26,-0.152 1.63,-0.304 L 5.15,13.885 c -0.283,0.13 -0.652,0.238 -1.216,0.238 -1.63,0 -2.043,-1.412 -2.043,-3.041 V 10.517 H 4.434 V 9.061 H 1.891 V 0 Z"
             style="fill:#bb8545;fill-opacity:1;fill-rule:nonzero;stroke:none"
             id="path174" />
        </g>
        <g
           id="g176"
           transform="translate(554.3682,35.8584)">
          <path
             d="m 0,0 c 0,-2.303 1.304,-4.041 3.173,-4.041 1.824,0 3.193,1.717 3.193,4.085 0,1.781 -0.89,4.019 -3.15,4.019 C 0.978,4.063 0,1.978 0,0 m 8.322,0.109 c 0,-3.889 -2.716,-5.585 -5.237,-5.585 -2.824,0 -5.041,2.086 -5.041,5.412 0,3.498 2.325,5.562 5.215,5.562 3.02,0 5.063,-2.195 5.063,-5.389"
             style="fill:#bb8545;fill-opacity:1;fill-rule:nonzero;stroke:none"
             id="path178" />
        </g>
        <g
           id="g180"
           transform="translate(565.1045,37.8574)">
          <path
             d="M 0,0 C 0,1.239 -0.021,2.304 -0.087,3.281 H 1.587 L 1.673,1.195 H 1.738 C 2.217,2.607 3.39,3.499 4.672,3.499 4.867,3.499 5.02,3.477 5.193,3.455 V 1.651 C 4.998,1.695 4.802,1.695 4.542,1.695 3.194,1.695 2.238,0.695 1.978,-0.738 1.935,-0.999 1.912,-1.325 1.912,-1.63 V -7.235 H 0 Z"
             style="fill:#bb8545;fill-opacity:1;fill-rule:nonzero;stroke:none"
             id="path182" />
        </g>
        <g
           id="g184"
           transform="translate(572.2988,38.292)">
          <path
             d="M 0,0 C 0,1.108 -0.043,1.978 -0.087,2.847 H 1.586 L 1.674,1.13 h 0.064 c 0.587,1 1.565,1.934 3.325,1.934 1.413,0 2.499,-0.869 2.955,-2.108 h 0.044 c 0.326,0.608 0.76,1.043 1.195,1.369 0.63,0.478 1.304,0.739 2.303,0.739 1.413,0 3.476,-0.913 3.476,-4.563 V -7.67 h -1.868 v 5.932 C 13.168,0.305 12.407,1.5 10.887,1.5 9.778,1.5 8.952,0.695 8.604,-0.217 8.518,-0.5 8.453,-0.825 8.453,-1.173 V -7.67 H 6.584 v 6.301 C 6.584,0.305 5.846,1.5 4.39,1.5 3.216,1.5 2.325,0.543 2.021,-0.412 1.912,-0.674 1.869,-1.021 1.869,-1.347 V -7.67 H 0 Z"
             style="fill:#bb8545;fill-opacity:1;fill-rule:nonzero;stroke:none"
             id="path186" />
        </g>
        <g
           id="g188"
           transform="translate(595.9658,35.9893)">
          <path
             d="m 0,0 c -2.086,0.043 -4.454,-0.326 -4.454,-2.369 0,-1.26 0.825,-1.824 1.781,-1.824 1.391,0 2.281,0.869 2.586,1.759 C -0.021,-2.217 0,-1.999 0,-1.825 Z m 1.847,-2.847 c 0,-0.913 0.044,-1.803 0.152,-2.52 H 0.282 L 0.13,-4.042 H 0.065 c -0.586,-0.825 -1.716,-1.564 -3.215,-1.564 -2.13,0 -3.216,1.499 -3.216,3.02 0,2.542 2.26,3.933 6.322,3.911 v 0.218 c 0,0.847 -0.238,2.434 -2.39,2.411 -0.999,0 -2.02,-0.282 -2.759,-0.782 l -0.435,1.282 c 0.869,0.543 2.151,0.913 3.477,0.913 3.215,0 3.998,-2.195 3.998,-4.281 z"
             style="fill:#bb8545;fill-opacity:1;fill-rule:nonzero;stroke:none"
             id="path190" />
        </g>
        <g
           id="g192"
           transform="translate(603.1182,43.6592)">
          <path
             d="M 0,0 V -2.521 H 2.737 V -3.977 H 0 v -5.67 c 0,-1.304 0.369,-2.042 1.434,-2.042 0.521,0 0.826,0.043 1.108,0.129 l 0.087,-1.456 c -0.369,-0.13 -0.956,-0.26 -1.694,-0.26 -0.892,0 -1.609,0.304 -2.065,0.803 -0.521,0.587 -0.739,1.522 -0.739,2.76 v 5.736 h -1.63 v 1.456 h 1.63 v 1.957 z"
             style="fill:#bb8545;fill-opacity:1;fill-rule:nonzero;stroke:none"
             id="path194" />
        </g>
        <g
           id="g196"
           transform="translate(612.8105,30.6221)">
          <path
             d="m 0,0 v 9.061 h -1.455 v 1.456 H 0 v 0.5 c 0,1.477 0.348,2.824 1.217,3.671 0.718,0.696 1.674,0.978 2.564,0.978 0.696,0 1.26,-0.152 1.63,-0.304 L 5.15,13.885 c -0.283,0.13 -0.652,0.238 -1.216,0.238 -1.63,0 -2.043,-1.412 -2.043,-3.041 V 10.517 H 4.434 V 9.061 H 1.891 V 0 Z"
             style="fill:#bb8545;fill-opacity:1;fill-rule:nonzero;stroke:none"
             id="path198" />
        </g>
        <g
           id="g200"
           transform="translate(619.875,35.8584)">
          <path
             d="m 0,0 c 0,-2.303 1.304,-4.041 3.172,-4.041 1.826,0 3.194,1.717 3.194,4.085 0,1.781 -0.89,4.019 -3.15,4.019 C 0.978,4.063 0,1.978 0,0 m 8.322,0.109 c 0,-3.889 -2.717,-5.585 -5.236,-5.585 -2.825,0 -5.041,2.086 -5.041,5.412 0,3.498 2.324,5.562 5.215,5.562 3.019,0 5.062,-2.195 5.062,-5.389"
             style="fill:#bb8545;fill-opacity:1;fill-rule:nonzero;stroke:none"
             id="path202" />
        </g>
        <g
           id="g204"
           transform="translate(630.6113,37.8574)">
          <path
             d="M 0,0 C 0,1.239 -0.021,2.304 -0.087,3.281 H 1.586 L 1.674,1.195 H 1.738 C 2.217,2.607 3.39,3.499 4.672,3.499 4.867,3.499 5.02,3.477 5.193,3.455 V 1.651 C 4.998,1.695 4.803,1.695 4.541,1.695 3.194,1.695 2.238,0.695 1.978,-0.738 1.934,-0.999 1.912,-1.325 1.912,-1.63 V -7.235 H 0 Z"
             style="fill:#bb8545;fill-opacity:1;fill-rule:nonzero;stroke:none"
             id="path206" />
        </g>
        <g
           id="g208"
           transform="translate(642.5215,30.6221)">
          <path
             d="m 0,0 v 9.061 h -1.455 v 1.456 H 0 v 0.5 c 0,1.477 0.348,2.824 1.217,3.671 0.718,0.696 1.674,0.978 2.564,0.978 0.696,0 1.26,-0.152 1.63,-0.304 L 5.15,13.885 c -0.283,0.13 -0.652,0.238 -1.216,0.238 -1.63,0 -2.043,-1.412 -2.043,-3.041 V 10.517 H 4.434 V 9.061 H 1.891 V 0 Z"
             style="fill:#bb8545;fill-opacity:1;fill-rule:nonzero;stroke:none"
             id="path210" />
        </g>
        <g
           id="g212"
           transform="translate(648.6719,37.8574)">
          <path
             d="M 0,0 C 0,1.239 -0.021,2.304 -0.087,3.281 H 1.586 L 1.674,1.195 H 1.738 C 2.217,2.607 3.39,3.499 4.672,3.499 4.867,3.499 5.02,3.477 5.193,3.455 V 1.651 C 4.998,1.695 4.803,1.695 4.541,1.695 3.194,1.695 2.238,0.695 1.978,-0.738 1.934,-0.999 1.912,-1.325 1.912,-1.63 V -7.235 H 0 Z"
             style="fill:#bb8545;fill-opacity:1;fill-rule:nonzero;stroke:none"
             id="path214" />
        </g>
        <g
           id="g216"
           transform="translate(662.2334,36.9014)">
          <path
             d="M 0,0 C 0.021,1.195 -0.5,3.086 -2.651,3.086 -4.606,3.086 -5.433,1.326 -5.584,0 Z m -5.606,-1.369 c 0.043,-2.585 1.673,-3.651 3.607,-3.651 1.369,0 2.217,0.24 2.912,0.544 l 0.348,-1.369 c -0.674,-0.303 -1.848,-0.674 -3.521,-0.674 -3.237,0 -5.171,2.152 -5.171,5.324 0,3.173 1.868,5.65 4.932,5.65 3.455,0 4.346,-2.999 4.346,-4.933 0,-0.391 -0.022,-0.673 -0.065,-0.891 z"
             style="fill:#bb8545;fill-opacity:1;fill-rule:nonzero;stroke:none"
             id="path218" />
        </g>
        <g
           id="g220"
           transform="translate(673.1221,36.9014)">
          <path
             d="M 0,0 C 0.021,1.195 -0.5,3.086 -2.651,3.086 -4.606,3.086 -5.433,1.326 -5.584,0 Z m -5.606,-1.369 c 0.043,-2.585 1.673,-3.651 3.607,-3.651 1.369,0 2.217,0.24 2.912,0.544 l 0.348,-1.369 c -0.674,-0.303 -1.848,-0.674 -3.521,-0.674 -3.237,0 -5.171,2.152 -5.171,5.324 0,3.173 1.868,5.65 4.932,5.65 3.455,0 4.346,-2.999 4.346,-4.933 0,-0.391 -0.022,-0.673 -0.065,-0.891 z"
             style="fill:#bb8545;fill-opacity:1;fill-rule:nonzero;stroke:none"
             id="path222" />
        </g>
        <g
           id="g224"
           transform="translate(676.623,31.752)">
          <path
             d="M 0,0 C 0,0.782 0.543,1.369 1.304,1.369 2.064,1.369 2.586,0.804 2.586,0 2.586,-0.782 2.064,-1.369 1.26,-1.369 0.521,-1.369 0,-0.782 0,0"
             style="fill:#bb8545;fill-opacity:1;fill-rule:nonzero;stroke:none"
             id="path226" />
        </g>
        <g
           id="g228"
           transform="translate(274.0547,19.9678)">
          <path
             d="m 0,0 h 3.303 v -6.084 h 0.044 c 0.347,0.479 0.782,0.848 1.303,1.108 0.5,0.261 1.109,0.413 1.717,0.413 2.108,0 3.715,-1.456 3.715,-4.671 v -6.193 H 6.779 v 5.845 c 0,1.391 -0.477,2.347 -1.716,2.347 C 4.194,-7.235 3.65,-7.8 3.412,-8.408 3.325,-8.604 3.303,-8.887 3.303,-9.125 v -6.302 H 0 Z"
             style="fill:#0065a5;fill-opacity:1;fill-rule:nonzero;stroke:none"
             id="path230" />
        </g>
        <g
           id="g232"
           transform="translate(292.5283,18.0342)">
          <path
             d="M 0,0 V -2.868 H 2.368 V -5.302 H 0 v -3.845 c 0,-1.283 0.326,-1.869 1.304,-1.869 0.456,0 0.674,0.022 0.977,0.086 l 0.022,-2.498 c -0.412,-0.152 -1.217,-0.283 -2.129,-0.283 -1.065,0 -1.956,0.37 -2.499,0.913 -0.609,0.63 -0.912,1.652 -0.912,3.151 v 4.345 H -4.65 v 2.434 h 1.413 v 1.977 z"
             style="fill:#0065a5;fill-opacity:1;fill-rule:nonzero;stroke:none"
             id="path234" />
        </g>
        <g
           id="g236"
           transform="translate(302.6777,18.0342)">
          <path
             d="M 0,0 V -2.868 H 2.369 V -5.302 H 0 v -3.845 c 0,-1.283 0.326,-1.869 1.304,-1.869 0.457,0 0.674,0.022 0.978,0.086 l 0.022,-2.498 c -0.413,-0.152 -1.217,-0.283 -2.13,-0.283 -1.065,0 -1.955,0.37 -2.498,0.913 -0.609,0.63 -0.913,1.652 -0.913,3.151 v 4.345 h -1.412 v 2.434 h 1.412 v 1.977 z"
             style="fill:#0065a5;fill-opacity:1;fill-rule:nonzero;stroke:none"
             id="path238" />
        </g>
        <g
           id="g240"
           transform="translate(312.4365,9.1045)">
          <path
             d="M 0,0 C 0,-0.262 0.021,-0.479 0.065,-0.695 0.282,-1.587 1.043,-2.26 1.999,-2.26 3.433,-2.26 4.28,-1.065 4.28,0.738 4.28,2.434 3.52,3.715 2.042,3.715 1.108,3.715 0.282,3.02 0.065,2.042 0.021,1.868 0,1.65 0,1.455 Z m -3.303,2.498 c 0,1.391 -0.044,2.565 -0.087,3.564 h 2.869 l 0.152,-1.478 h 0.043 c 0.782,1.108 1.999,1.717 3.542,1.717 2.325,0 4.411,-2.021 4.411,-5.41 0,-3.869 -2.456,-5.694 -4.824,-5.694 -1.282,0 -2.282,0.522 -2.76,1.217 H 0 v -5.279 h -3.303 z"
             style="fill:#0065a5;fill-opacity:1;fill-rule:nonzero;stroke:none"
             id="path242" />
        </g>
        <g
           id="g244"
           transform="translate(324.0869,6.2793)">
          <path
             d="M 0,0 C 0,1.173 0.804,1.999 1.934,1.999 3.085,1.999 3.846,1.195 3.867,0 3.867,-1.13 3.106,-1.978 1.912,-1.978 0.782,-1.978 0,-1.13 0,0 M 0,7.019 C 0,8.191 0.804,9.018 1.934,9.018 3.085,9.018 3.846,8.214 3.867,7.019 3.867,5.889 3.106,5.041 1.912,5.041 0.782,5.041 0,5.889 0,7.019"
             style="fill:#0065a5;fill-opacity:1;fill-rule:nonzero;stroke:none"
             id="path246" />
        </g>
        <g
           id="g248"
           transform="translate(331.1504,3.6934)">
          <path
             d="M 0,0 4.65,15.753 H 6.845 L 2.194,0 Z"
             style="fill:#0065a5;fill-opacity:1;fill-rule:nonzero;stroke:none"
             id="path250" />
        </g>
        <g
           id="g252"
           transform="translate(340.5176,3.6934)">
          <path
             d="M 0,0 4.65,15.753 H 6.845 L 2.194,0 Z"
             style="fill:#0065a5;fill-opacity:1;fill-rule:nonzero;stroke:none"
             id="path254" />
        </g>
        <g
           id="g256"
           transform="translate(353.1445,15.166)">
          <path
             d="m 0,0 0.869,-4.367 c 0.195,-1.087 0.413,-2.26 0.587,-3.477 h 0.065 c 0.196,1.217 0.522,2.412 0.76,3.455 L 3.411,0 h 2.608 l 1.065,-4.237 c 0.304,-1.217 0.586,-2.39 0.781,-3.607 h 0.044 c 0.153,1.196 0.369,2.412 0.63,3.629 L 9.43,0 h 3.238 L 9.408,-10.625 H 6.323 l -1,3.716 C 5.041,-5.866 4.846,-4.91 4.628,-3.585 H 4.585 C 4.389,-4.91 4.172,-5.91 3.911,-6.888 L 2.847,-10.625 H -0.261 L -3.368,0 Z"
             style="fill:#0065a5;fill-opacity:1;fill-rule:nonzero;stroke:none"
             id="path258" />
        </g>
        <g
           id="g260"
           transform="translate(372.2266,15.166)">
          <path
             d="m 0,0 0.869,-4.367 c 0.195,-1.087 0.413,-2.26 0.587,-3.477 h 0.065 c 0.196,1.217 0.522,2.412 0.76,3.455 L 3.411,0 h 2.608 l 1.065,-4.237 c 0.304,-1.217 0.586,-2.39 0.781,-3.607 h 0.044 c 0.153,1.196 0.369,2.412 0.63,3.629 L 9.43,0 h 3.238 L 9.408,-10.625 H 6.323 l -1,3.716 C 5.041,-5.866 4.846,-4.91 4.628,-3.585 H 4.585 C 4.389,-4.91 4.172,-5.91 3.911,-6.888 L 2.847,-10.625 H -0.261 L -3.368,0 Z"
             style="fill:#0065a5;fill-opacity:1;fill-rule:nonzero;stroke:none"
             id="path262" />
        </g>
        <g
           id="g264"
           transform="translate(391.3086,15.166)">
          <path
             d="m 0,0 0.869,-4.367 c 0.196,-1.087 0.413,-2.26 0.587,-3.477 h 0.065 c 0.196,1.217 0.522,2.412 0.761,3.455 L 3.412,0 H 6.02 l 1.064,-4.237 c 0.305,-1.217 0.587,-2.39 0.782,-3.607 H 7.91 c 0.152,1.196 0.369,2.412 0.63,3.629 L 9.431,0 h 3.237 L 9.409,-10.625 H 6.323 L 5.324,-6.909 C 5.041,-5.866 4.846,-4.91 4.629,-3.585 H 4.585 C 4.39,-4.91 4.172,-5.91 3.912,-6.888 L 2.847,-10.625 H -0.26 L -3.367,0 Z"
             style="fill:#0065a5;fill-opacity:1;fill-rule:nonzero;stroke:none"
             id="path266" />
        </g>
        <g
           id="g268"
           transform="translate(406.415,6.3008)">
          <path
             d="M 0,0 C 0,1.195 0.804,2.021 1.956,2.021 3.085,2.021 3.868,1.217 3.89,0 3.89,-1.151 3.107,-1.999 1.912,-1.999 0.804,-1.999 0,-1.151 0,0"
             style="fill:#0065a5;fill-opacity:1;fill-rule:nonzero;stroke:none"
             id="path270" />
        </g>
        <path
           d="m 414.479,19.968 h 3.303 V 4.541 h -3.303 z"
           style="fill:#0065a5;fill-opacity:1;fill-rule:nonzero;stroke:none"
           id="path272" />
        <g
           id="g274"
           transform="translate(425.4316,9.8643)">
          <path
             d="m 0,0 c 0,-1.825 0.761,-3.193 2.173,-3.193 1.304,0 2.107,1.281 2.107,3.214 0,1.565 -0.608,3.173 -2.107,3.173 C 0.608,3.194 0,1.564 0,0 m 7.691,0.109 c 0,-3.889 -2.758,-5.672 -5.605,-5.672 -3.107,0 -5.497,2.043 -5.497,5.476 0,3.455 2.26,5.65 5.692,5.65 3.239,0 5.41,-2.239 5.41,-5.454"
             style="fill:#0065a5;fill-opacity:1;fill-rule:nonzero;stroke:none"
             id="path276" />
        </g>
        <g
           id="g278"
           transform="translate(444.165,10.8428)">
          <path
             d="m 0,0 c 0,0.195 -0.021,0.412 -0.065,0.607 -0.239,0.87 -0.87,1.456 -1.782,1.456 -1.216,0 -2.173,-1.085 -2.173,-3.02 0,-1.586 0.783,-2.824 2.152,-2.824 0.869,0 1.542,0.564 1.76,1.325 C -0.021,-2.195 0,-1.848 0,-1.564 Z m 3.303,-4.759 c 0,-2.043 -0.413,-3.716 -1.63,-4.78 -1.152,-1 -2.737,-1.304 -4.302,-1.304 -1.413,0 -2.868,0.282 -3.824,0.804 l 0.651,2.52 c 0.674,-0.391 1.825,-0.803 3.086,-0.803 1.565,0 2.76,0.825 2.76,2.802 v 0.674 H 0 c -0.63,-0.869 -1.651,-1.369 -2.868,-1.369 -2.629,0 -4.498,2.129 -4.498,5.172 0,3.433 2.195,5.606 4.824,5.606 1.455,0 2.368,-0.63 2.911,-1.522 H 0.413 L 0.521,4.323 H 3.39 C 3.347,3.628 3.303,2.737 3.303,1.151 Z"
             style="fill:#0065a5;fill-opacity:1;fill-rule:nonzero;stroke:none"
             id="path280" />
        </g>
        <g
           id="g282"
           transform="translate(455.0977,9.8643)">
          <path
             d="m 0,0 c 0,-1.825 0.761,-3.193 2.174,-3.193 1.303,0 2.107,1.281 2.107,3.214 0,1.565 -0.608,3.173 -2.107,3.173 C 0.609,3.194 0,1.564 0,0 m 7.692,0.109 c 0,-3.889 -2.759,-5.672 -5.606,-5.672 -3.107,0 -5.497,2.043 -5.497,5.476 0,3.455 2.26,5.65 5.693,5.65 3.238,0 5.41,-2.239 5.41,-5.454"
             style="fill:#0065a5;fill-opacity:1;fill-rule:nonzero;stroke:none"
             id="path284" />
        </g>
        <g
           id="g286"
           transform="translate(473.5059,11.0596)">
          <path
             d="M 0,0 C 0,0.804 -0.348,2.151 -1.868,2.151 -3.259,2.151 -3.824,0.869 -3.911,0 Z m -3.889,-2.26 c 0.086,-1.369 1.455,-2.02 2.998,-2.02 1.13,0 2.043,0.151 2.934,0.456 l 0.435,-2.239 c -1.087,-0.456 -2.413,-0.673 -3.847,-0.673 -3.607,0 -5.671,2.086 -5.671,5.411 0,2.694 1.673,5.671 5.367,5.671 3.433,0 4.737,-2.673 4.737,-5.302 0,-0.565 -0.065,-1.065 -0.109,-1.304 z"
             style="fill:#0065a5;fill-opacity:1;fill-rule:nonzero;stroke:none"
             id="path288" />
        </g>
        <g
           id="g290"
           transform="translate(484.0264,9.1045)">
          <path
             d="M 0,0 C 0,-0.262 0.022,-0.479 0.065,-0.695 0.282,-1.587 1.043,-2.26 1.999,-2.26 3.434,-2.26 4.28,-1.065 4.28,0.738 4.28,2.434 3.521,3.715 2.043,3.715 1.108,3.715 0.282,3.02 0.065,2.042 0.022,1.868 0,1.65 0,1.455 Z m -3.303,2.498 c 0,1.391 -0.043,2.565 -0.087,3.564 h 2.869 l 0.152,-1.478 h 0.044 c 0.781,1.108 1.998,1.717 3.541,1.717 2.325,0 4.411,-2.021 4.411,-5.41 0,-3.869 -2.455,-5.694 -4.823,-5.694 -1.283,0 -2.283,0.522 -2.76,1.217 H 0 v -5.279 h -3.303 z"
             style="fill:#0065a5;fill-opacity:1;fill-rule:nonzero;stroke:none"
             id="path292" />
        </g>
        <g
           id="g294"
           transform="translate(495.8721,7.4092)">
          <path
             d="m 0,0 c 0.608,-0.369 1.868,-0.782 2.847,-0.782 0.999,0 1.412,0.326 1.412,0.869 0,0.565 -0.326,0.825 -1.543,1.238 C 0.5,2.064 -0.348,3.26 -0.326,4.52 c 0,1.999 1.695,3.498 4.324,3.498 1.238,0 2.325,-0.304 2.977,-0.63 L 6.41,5.106 C 5.932,5.367 4.997,5.715 4.106,5.715 3.303,5.715 2.847,5.389 2.847,4.867 2.847,4.346 3.259,4.085 4.563,3.629 6.584,2.934 7.409,1.891 7.431,0.348 c 0,-1.999 -1.542,-3.455 -4.584,-3.455 -1.391,0 -2.629,0.326 -3.434,0.76 z"
             style="fill:#0065a5;fill-opacity:1;fill-rule:nonzero;stroke:none"
             id="path296" />
        </g>
        <g
           id="g298"
           transform="translate(507.043,6.3008)">
          <path
             d="M 0,0 C 0,1.195 0.805,2.021 1.956,2.021 3.086,2.021 3.868,1.217 3.89,0 3.89,-1.151 3.107,-1.999 1.912,-1.999 0.805,-1.999 0,-1.151 0,0"
             style="fill:#0065a5;fill-opacity:1;fill-rule:nonzero;stroke:none"
             id="path300" />
        </g>
        <g
           id="g302"
           transform="translate(523.0811,4.8232)">
          <path
             d="m 0,0 c -0.587,-0.282 -1.694,-0.5 -2.955,-0.5 -3.433,0 -5.628,2.108 -5.628,5.433 0,3.107 2.13,5.649 6.084,5.649 0.869,0 1.825,-0.152 2.52,-0.413 L -0.5,7.714 c -0.391,0.174 -0.978,0.326 -1.847,0.326 -1.738,0 -2.868,-1.239 -2.846,-2.977 0,-1.934 1.303,-2.977 2.912,-2.977 0.782,0 1.39,0.131 1.889,0.348 z"
             style="fill:#0065a5;fill-opacity:1;fill-rule:nonzero;stroke:none"
             id="path304" />
        </g>
        <g
           id="g306"
           transform="translate(529.6465,9.8643)">
          <path
             d="m 0,0 c 0,-1.825 0.76,-3.193 2.172,-3.193 1.305,0 2.108,1.281 2.108,3.214 0,1.565 -0.608,3.173 -2.108,3.173 C 0.607,3.194 0,1.564 0,0 m 7.691,0.109 c 0,-3.889 -2.759,-5.672 -5.605,-5.672 -3.107,0 -5.498,2.043 -5.498,5.476 0,3.455 2.26,5.65 5.693,5.65 3.238,0 5.41,-2.239 5.41,-5.454"
             style="fill:#0065a5;fill-opacity:1;fill-rule:nonzero;stroke:none"
             id="path308" />
        </g>
        <g
           id="g310"
           transform="translate(541.5576,11.7764)">
          <path
             d="M 0,0 C 0,1.326 -0.043,2.434 -0.087,3.39 H 2.716 L 2.847,1.956 H 2.912 C 3.368,2.651 4.324,3.65 6.128,3.65 7.519,3.65 8.583,2.934 9.039,1.825 h 0.044 c 0.412,0.566 0.869,1 1.391,1.304 0.586,0.326 1.238,0.521 2.02,0.521 2.042,0 3.585,-1.433 3.585,-4.628 v -6.257 h -3.216 v 5.78 c 0,1.542 -0.499,2.434 -1.564,2.434 -0.782,0 -1.304,-0.522 -1.542,-1.153 -0.066,-0.238 -0.11,-0.564 -0.11,-0.847 V -7.235 H 6.432 V -1.26 C 6.432,0.065 5.954,0.979 4.89,0.979 4.042,0.979 3.542,0.326 3.347,-0.195 3.237,-0.456 3.216,-0.76 3.216,-1.043 V -7.235 H 0 Z"
             style="fill:#0065a5;fill-opacity:1;fill-rule:nonzero;stroke:none"
             id="path312" />
        </g>
        <g
           id="g314"
           transform="translate(561.4443,3.6934)">
          <path
             d="M 0,0 4.649,15.753 H 6.845 L 2.194,0 Z"
             style="fill:#0065a5;fill-opacity:1;fill-rule:nonzero;stroke:none"
             id="path316" />
        </g>
      </g>
    </g>
  </g>
</svg>
