<?xml version="1.0" encoding="UTF-8" standalone="no"?>
<!-- Created with Inkscape (http://www.inkscape.org/) -->

<svg
   version="1.1"
   id="svg2"
   width="1066.6667"
   height="800"
   viewBox="0 0 1066.6667 800"
   sodipodi:docname="minnesota-vikings-logo-vector.ai"
   xmlns:inkscape="http://www.inkscape.org/namespaces/inkscape"
   xmlns:sodipodi="http://sodipodi.sourceforge.net/DTD/sodipodi-0.dtd"
   xmlns="http://www.w3.org/2000/svg"
   xmlns:svg="http://www.w3.org/2000/svg">
  <defs
     id="defs6">
    <clipPath
       clipPathUnits="userSpaceOnUse"
       id="clipPath16">
      <path
         d="M 0,600 H 800 V 0 H 0 Z"
         id="path14" />
    </clipPath>
  </defs>
  <sodipodi:namedview
     id="namedview4"
     pagecolor="#ffffff"
     bordercolor="#000000"
     borderopacity="0.25"
     inkscape:showpageshadow="2"
     inkscape:pageopacity="0.0"
     inkscape:pagecheckerboard="0"
     inkscape:deskcolor="#d1d1d1" />
  <g
     id="g8"
     inkscape:groupmode="layer"
     inkscape:label="minnesota-vikings-logo-vector"
     transform="matrix(1.3333333,0,0,-1.3333333,0,800)">
    <g
       id="g10">
      <g
         id="g12"
         clip-path="url(#clipPath16)">
        <g
           id="g18"
           transform="translate(453.5156,284.5605)">
          <path
             d="M 0,0 C -4.668,0.236 -9.154,-0.248 -13.174,-1.122 -12.41,3.469 -6.297,10.433 -5.08,9.761 -3.926,9.122 -6.428,5.862 -5.016,4.874 -3.941,4.249 -2.689,4.665 -1.793,4.333 0.186,3.427 0.66,0.197 0,0 m -13.625,-3.889 c -0.375,0.226 -0.338,0.99 0.021,1.124 2.196,0.605 8.442,2.036 8.76,1.348 0.117,-0.19 -8.324,-2.713 -8.781,-2.472 m -2.09,0.639 c -2.551,-7.735 -3.707,-18.018 -6.988,-22.484 -0.063,-0.088 -0.24,-0.084 -0.166,0.1 3.875,7.725 3.166,14.655 5.441,22.088 0.123,0.28 -0.189,0.647 -0.435,0.228 -2.59,-3.413 -3.037,-16.97 -5.221,-21.149 -0.072,-0.159 -0.316,-0.193 -0.236,0.126 2.595,9.811 0.552,19.24 4.593,26.762 0.155,0.269 -0.308,0.697 -0.709,0.235 -1.771,-3.189 -3.843,-9.721 -3.269,-17.471 0.033,-0.427 -0.318,-0.494 -0.377,-0.016 -1.121,9.041 -2.014,18.068 4.355,25.878 2.684,3.288 6.704,6.335 9.387,7.035 6.332,1.336 7.213,-4.614 7.213,-4.614 C -9.57,11.341 -13.553,3.299 -15.715,-3.25 m -10.135,1.917 c -5.582,-1.673 -8.785,1.749 -8.295,9.425 -0.668,1.069 -2.482,-1.358 -2.718,-0.588 -0.053,8.083 3.486,8.479 4.828,10.427 1.31,-0.173 2.771,-0.659 3.474,-1.61 2.165,-3.379 1.623,-7.46 2.922,-11.242 0.317,-0.675 0.946,0 0.946,0 -1.42,5.2 0.117,12.584 -6.203,14.77 2.539,3.484 3.533,7.282 4.597,11.359 0.412,0.472 1.311,0.574 1.781,0.396 -0.175,-1.594 -0.824,-3.012 -0.589,-4.843 0.138,-1.091 2.216,1.316 3.425,1.89 1.698,0.875 4.448,0.661 6.811,0.305 0.488,-0.069 0.418,-0.553 -0.07,-0.622 -2.303,-0.236 -5.842,-0.693 -6.032,-1.692 -0.009,-0.742 2.659,-1.476 4.254,-1.536 0.231,-0.855 0.467,-1.939 0.328,-2.944 -2.955,-1.418 -6.707,-5.163 -4.597,-11.338 -2.305,-3.482 -3.825,-7.868 -4.862,-12.157 m -9.714,-14.854 c 1.123,4.667 -0.707,8.804 -2.42,12.641 0.611,3.029 0.74,5.558 1.121,8.594 0.226,0.645 1.027,0.773 1.299,0.329 0.824,-6.76 3.595,-9.131 9.63,-8.805 l 0.413,-4.547 c -3.838,-1.596 -7.088,-4.904 -10.043,-8.212 m -1.18,-21.8 c -0.281,1.231 -1.026,1.894 -1.385,3.031 0.279,0.415 2.266,4.732 2.684,4.594 0.724,-0.369 -0.026,-5.587 -1.299,-7.625 m 1.783,-0.314 c 0.682,-0.5 0.154,-4.175 -1.074,-5.828 l -1.535,2.123 c 0.826,1.304 2.131,4.001 2.609,3.705 m -2.406,-9.164 c -0.826,1.949 -2.272,3.747 -4.043,4.93 -0.627,0.348 -0.559,1.854 0,1.712 2.066,-0.707 4.146,-3.242 4.617,-5.31 0.209,-0.764 -0.225,-1.96 -0.574,-1.332 m -0.694,-2.448 c -0.402,0.982 -2.476,3.047 -3.63,4.065 -0.627,0.49 0.451,1.535 0.871,1.188 1.771,-1.361 3.904,-4.332 2.759,-5.253 m -0.793,-2.268 c -0.779,1.01 -1.826,2.063 -2.804,2.891 -0.457,0.268 0.043,1.111 0.549,0.991 1.187,-0.412 2.14,-2.064 2.673,-3.365 0.071,-0.419 -0.281,-0.654 -0.418,-0.517 m -0.898,-2.125 c -0.826,0.871 -1.127,1.613 -2.189,2.26 -0.35,0.349 -0.043,1.194 0.234,1.121 0.836,-0.388 2.098,-1.737 2.42,-2.928 0.082,-0.295 -0.162,-0.66 -0.465,-0.453 m -2.486,-3.411 c -0.979,0.565 -0.403,2.756 0.295,3.959 0.589,-0.414 1.074,-1.116 1.627,-1.696 -0.213,-0.56 -0.961,-2.649 -1.922,-2.263 m 4.785,18.725 c 0,-0.824 -0.682,-1.903 -1.016,-1.867 -0.412,-0.12 -3.603,1.73 -3.84,3.567 -0.177,0.943 -0.283,2.662 0.19,2.85 0.879,0.248 3.957,-2.599 4.666,-4.55 m -6.086,8.096 c -0.465,0.843 -1.164,2.744 -0.414,3.366 0.926,0.509 4.824,-1.384 6.125,-3.746 0.209,-0.561 -0.86,-2.579 -1.279,-2.649 -0.391,-0.198 -3.77,1.49 -4.432,3.029 m -3.84,7.621 c -0.531,1.004 -1.578,2.217 -0.982,2.99 0.968,0.876 5.392,-0.633 7.658,-3.111 -0.24,-1.109 -0.557,-1.889 -0.826,-3.011 -2.246,0.356 -4.668,0.768 -5.85,3.132 m -3.092,5.418 c -1.047,0.628 -5.236,4.55 -3.701,5.805 1.643,1.703 8.922,-3.131 8.922,-3.131 -0.061,-1.182 -0.355,-2.302 -0.238,-3.545 0,0 -3.866,0.102 -4.983,0.871 M -60.67,-2.538 c 3.152,-2.123 6.498,-3.076 10.043,-2.84 v -5.137 c -9.858,1.16 -10.043,7.977 -10.043,7.977 m 4.339,-9.443 c -3.663,3.128 -7.587,5.129 -12.018,6.428 1.713,1.246 4.016,3.363 5.375,5.139 0.224,-0.209 0.554,-0.572 0.73,-0.752 -0.176,-4.489 2.095,-7.983 6.052,-10.053 0.63,-0.278 0.211,-1.112 -0.139,-0.762 m -15.488,7.485 c 3.131,1.948 5.485,5.337 6.718,7.863 0.355,-0.888 0.897,-1.871 1.236,-2.724 -1.595,-1.956 -3.931,-4.639 -6.281,-5.504 -0.854,-0.151 -2.227,-0.176 -1.673,0.365 m 33.126,12.588 c -0.217,-0.102 -0.823,0.698 -1.145,0.532 -0.373,-0.225 0.967,-2.129 0.967,-2.129 0.049,-11.296 -5.949,-13.66 -5.908,-20.555 -1.209,0.955 -2.787,2.334 -4.325,2.926 -2.722,10.667 10.43,24.782 11.166,24.166 0.319,-0.337 -0.488,-4.704 -0.755,-4.94 m 2.244,-27.115 c 1.342,-0.843 0.644,-7.657 -0.826,-11.165 -1.038,1.492 -2.274,2.746 -2.934,3.422 0.91,2.234 3.133,8.023 3.76,7.743 m -3.545,-3.131 c -1.266,1.032 -2.422,2.246 -3.959,2.717 -0.176,5.436 3.562,11.605 4.803,13.501 0.476,0.753 0.978,0.26 1.252,-0.732 2.722,-8.278 -1.424,-11.741 -2.096,-15.486 m -37.909,17.465 c -0.558,0.211 -0.51,0.796 -0.371,1.143 6.794,8.327 12.101,18.909 22.439,23.163 0.816,0.231 1.899,0.815 2.767,0.462 2.009,-0.836 5.406,-2.105 9.627,-0.978 8.355,2.594 9.414,10.672 9.414,10.672 2.068,0.531 4.136,1.18 6.381,1.417 -2.422,-14.001 -21.917,-19.79 -22.684,-34.441 -5.789,-1.137 -13.007,3.396 -14.109,10.162 -1.451,-2.874 -3.366,-6.278 -6.746,-9.216 -1.928,-1.524 -4.759,-3.007 -6.718,-2.384 m -3.803,-0.348 c -3.938,-1.13 -7.238,-1.994 -10.663,-3.216 -0.307,-0.131 -0.821,-0.065 -0.631,0.334 8.051,14.534 22.862,23.256 37.1,29.459 0.418,0.21 0.724,-0.274 0.376,-0.414 -10.549,-5.129 -18.177,-15.358 -24.522,-24.959 -0.159,-0.24 -1.083,-1.035 -1.66,-1.204 m -14.173,-4.256 c -3.173,-2.145 -5.653,-3.945 -8.742,-7.013 -0.28,-0.209 -0.413,0.14 -0.134,0.491 18.801,28.06 41.217,37.058 46.672,38.445 1.065,0.209 0.959,-0.381 0.533,-0.655 -10.295,-3.969 -27.406,-14.172 -34.724,-26.526 -1.114,-1.878 -2.008,-3.658 -3.605,-4.742 m 27.375,45.425 c -0.7,0.896 -3.81,-1.541 -4.216,-1.102 -0.252,0.203 1.401,0.832 1.004,1.123 -1.064,0.709 -2.875,-0.709 -3.131,-0.414 -0.183,0.284 0.671,0.414 0.413,0.827 -0.75,0.764 -3.432,-0.739 -3.663,-0.295 -0.165,0.32 1.967,0.713 1.536,1.299 -0.703,0.68 -2.894,-0.775 -6.088,0.68 -11.868,6.245 -15.014,18.704 -15.376,23.888 0.035,0.175 0.045,0.222 0.15,0.082 0.935,-4.548 2.73,-10.849 6.842,-14.017 0.209,-0.139 0.434,0.157 0.295,0.296 -4.371,3.44 -6.025,11.203 -6.242,17.899 -0.016,0.256 0.067,0.28 0.158,0.06 0.296,-5.078 1.713,-11.166 5.789,-15.004 0.175,-0.141 0.47,0.085 0.295,0.295 -3.947,4.731 -5.089,10.738 -5.068,16.533 0.037,0.232 0.189,0.153 0.176,0.08 0.236,-6.912 3.357,-12.774 9.027,-17.204 10.574,-7.95 28.227,0.453 38.259,-2.929 14.979,-4.397 10.301,-17.577 5.811,-19.874 -1.024,1.07 -1.707,-0.41 -2.125,-0.177 -0.453,0.286 0.517,0.733 -0.074,1.089 -0.559,0.233 -1.247,-0.613 -1.758,-0.381 -0.297,0.132 0.515,0.718 0.109,0.981 -0.889,0.59 -1.957,-1.264 -2.412,-0.981 -0.359,0.237 1.518,1.154 0.77,1.781 -0.979,0.735 -2.299,-1.226 -2.721,-0.894 -0.649,0.464 2.703,1.942 1.418,2.54 -0.707,0.36 -2.942,-1.972 -3.426,-1.536 -0.38,0.349 2.74,1.634 1.854,2.27 -0.737,0.411 -4.539,-2.293 -5.102,-1.857 -0.419,0.326 3.361,2.163 2.476,2.862 -1.1,0.748 -4.738,-3.118 -5.431,-2.448 -0.526,0.433 3.103,1.861 2.22,2.742 -0.846,0.821 -4.53,-2.871 -5.527,-2.152 -0.464,0.306 3.711,1.964 2.601,2.798 -1.089,0.629 -5.454,-2.939 -5.85,-2.385 -0.347,0.459 3.68,1.952 3.13,2.659 -1.118,1.07 -5.16,-2.462 -5.671,-1.949 -0.486,0.478 3.181,1.707 2.51,2.228 -1.117,0.791 -4.855,-2.125 -5.227,-1.521 -0.346,0.547 3.107,1.003 2.265,2.108 m -3.508,23.119 c -1.683,3.148 -2.826,7.118 -3.264,11.018 0.026,0.148 0.123,0.159 0.189,0.102 0.392,-2.111 0.752,-3.83 1.657,-5.331 0.175,-0.174 0.483,-0.104 0.413,0.21 -0.682,1.954 -1.393,4.237 -1.748,6.777 0.081,0.111 0.162,0.254 0.243,0.046 0.624,-1.599 1.601,-4.341 2.332,-5.142 0.106,-0.139 0.473,-0.105 0.439,0.175 -0.294,0.854 -0.936,2.52 -1.143,3.357 -0.12,0.277 0.113,0.173 0.205,0.096 1.82,-5.005 4.576,-7.644 8.062,-9.772 1.255,-0.859 0.834,-4.367 -2.009,-4.961 -2.422,-0.415 -4.254,1.594 -5.376,3.425 m 13.763,5.258 c 33.007,-0.843 42.534,-22.684 42.534,-22.684 -6.326,0.531 -14.457,-0.639 -20.851,-2.009 -3.416,8.672 -8.588,12.234 -28.357,10.516 2.712,4.944 5.994,8.194 6.674,14.177 M -69.058,28.178 v 1.891 l 3.249,-0.473 c -1.004,-0.301 -2.127,-0.865 -3.249,-1.418 m 57.124,6.557 c -7.738,0.414 -16.212,-0.762 -23.242,-2.889 -1.062,-10.878 -13.9,-14.96 -21.417,-6.622 0,0 -2.847,-0.628 -11.46,-4.548 -1.064,1.418 -1.965,4.886 -0.323,5.66 2.232,1.21 3.931,2.22 6.247,2.765 1.937,0.443 5.042,-0.545 6.552,-0.961 8.542,-5.141 17.259,-5.271 19.444,9.951 0,0 11.037,2.723 21.51,2.021 0,0 1.633,-2.257 2.689,-5.377 m 5.967,0.709 c -0.176,-1.713 -1.301,-3.249 -2.834,-4.134 -4.314,-1.891 -10.043,0.886 -14.002,-1.832 0.057,1.477 0.815,3.534 3.057,3.687 5.662,0.237 9.695,-1.608 13.779,2.279 m 0.156,-13.486 0.141,-1.105 c -2.068,-0.506 -5.156,-2.518 -5.828,-1.161 -0.596,1.197 2.105,1.397 2.58,1.987 0.256,0.333 0.031,0.887 -0.592,1.005 -1.476,-0.021 -2.295,-0.054 -2.894,-0.231 -1.256,-1.047 -1.16,-3.625 -0.602,-4.463 -2.726,-1.243 -5.424,-3.99 -6.961,-5.644 -0.707,3.544 1.891,6.083 4.492,7.916 0.59,0.564 0.237,4.135 -0.238,5.967 -0.488,0.209 -1.32,-0.006 -1.391,0.413 -0.007,0.4 3.243,0.477 4.594,0.535 -0.351,2.24 2.34,2.617 3.156,1.323 1.002,-2.185 0.293,-6.187 3.543,-6.542 M -4.254,5.964 c 0.295,1.596 1.182,3.369 0.414,5.083 0.848,0.468 1.799,0.95 2.717,1.418 0.068,1.073 -0.301,4.232 -3.84,6.497 0,0 1.568,0.544 0.826,3.723 -4.312,-0.355 -3.189,4.489 -4.371,6.912 3.629,2.073 4.522,6.293 3.426,8.98 -1.086,-1.913 -2.541,-3.545 -4.549,-3.841 -9.883,25.626 -35.084,32.06 -50.041,31.24 0,0 -0.467,-3.711 -1.294,-5.189 -10.868,2.836 -10.573,14.71 -15.712,22.153 -1.215,1.691 -4.464,5.811 -8.174,6.498 -0.726,0.102 -0.983,-0.413 -0.925,-0.709 7.68,-5.199 8.48,-14.009 9.216,-22.507 0.621,-7.155 5.123,-11.214 9.79,-14.704 -0.257,-0.242 -0.654,-1.021 -0.87,-1.482 -6.026,-1.714 -13.282,-0.72 -18.303,2.648 -10.161,6.661 -7.652,19.351 -10.466,29.369 -0.833,2.605 -2.164,6.165 -4.834,7.556 -0.842,0.462 -1.648,-0.031 -1.25,-0.585 1.949,-2.776 3.367,-5.849 3.543,-9.334 0.059,-8.984 -2.133,-18.517 1.324,-26.954 5.134,-11.446 14.619,-19.707 26.147,-22.137 -0.375,-4.05 0.021,-7.531 0.708,-11.342 -12.373,-6.7 -21.961,-13.726 -37.84,-38.29 -0.488,-0.993 -0.015,-1.938 1.317,-0.698 15.568,14.466 41.235,21.63 57.348,-2.465 7.748,-12.217 7.074,-20.819 6.586,-28.846 -0.004,-2.787 -1.696,-6.67 0.822,-7.741 2.695,-1.162 5.387,5.669 5.391,6.619 0.589,0.593 0.873,1.81 0.916,2.696 0.56,0.424 0.855,2.367 0.726,3.413 1.621,1.917 3.059,6.71 1.266,9.503 0.603,1.609 0.674,5.781 -0.326,8.027 0.556,2.441 1.127,7.976 -0.879,10.506 2.904,3.275 6.697,5.94 10.496,7.557 0.943,-7.146 2.355,-16.258 -3.906,-21.161 -0.418,-0.279 -0.35,-0.762 0.419,-0.55 10.073,3.375 12.207,22.555 12.905,24.944 3.351,1.745 12.896,4.323 15.758,5.372 2.996,1.138 0.923,5.18 -0.248,6.614 -0.586,0.745 -2.278,1.111 -4.233,1.207"
             style="fill:#000000;fill-opacity:1;fill-rule:nonzero;stroke:none"
             id="path20" />
        </g>
        <g
           id="g22"
           transform="translate(417.3828,322.6519)">
          <path
             d="m 0,0 c -2.186,-15.222 -10.902,-15.093 -19.444,-9.952 -1.511,0.416 -4.615,1.404 -6.553,0.962 -2.315,-0.545 -4.014,-1.554 -6.247,-2.765 -1.642,-0.775 -0.74,-4.244 0.324,-5.661 8.613,3.92 11.46,4.549 11.46,4.549 7.519,-8.339 20.355,-4.255 21.417,6.622 7.031,2.126 15.504,3.303 23.242,2.889 C 23.143,-0.236 21.51,2.021 21.51,2.021 11.037,2.723 0,0 0,0"
             style="fill:#3c1e5e;fill-opacity:1;fill-rule:nonzero;stroke:none"
             id="path24" />
        </g>
        <g
           id="g26"
           transform="translate(453.7422,282.7031)">
          <path
             d="m 0,0 c -2.861,-1.049 -12.406,-3.627 -15.758,-5.371 -0.697,-2.39 -2.832,-21.569 -12.906,-24.944 -0.768,-0.212 -0.838,0.27 -0.42,0.549 6.264,4.904 4.85,14.014 3.906,21.162 -3.797,-1.618 -7.59,-4.283 -10.494,-7.557 2.006,-2.53 1.436,-8.066 0.879,-10.507 1,-2.245 0.93,-6.418 0.326,-8.026 1.793,-2.793 0.356,-7.586 -1.267,-9.503 0.13,-1.045 -0.164,-2.99 -0.727,-3.413 -0.041,-0.887 -0.326,-2.105 -0.914,-2.697 -0.006,-0.95 -2.695,-7.781 -5.391,-6.619 -2.519,1.072 -0.828,4.954 -0.824,7.741 0.49,8.028 1.164,16.629 -6.584,28.846 -16.114,24.096 -41.78,16.932 -57.348,2.465 -1.333,-1.239 -1.805,-0.295 -1.317,0.698 15.879,24.565 25.466,31.59 37.84,38.29 -0.688,3.811 -1.083,7.292 -0.709,11.343 -11.528,2.43 -21.012,10.691 -26.147,22.137 -3.457,8.436 -1.265,17.969 -1.323,26.953 -0.176,3.486 -1.595,6.558 -3.544,9.335 -0.397,0.553 0.409,1.047 1.251,0.585 2.669,-1.392 4.001,-4.952 4.833,-7.556 2.814,-10.019 0.305,-22.709 10.467,-29.37 5.02,-3.367 12.277,-4.361 18.302,-2.648 0.216,0.461 0.615,1.24 0.871,1.482 -4.668,3.491 -9.169,7.55 -9.791,14.705 -0.736,8.498 -1.536,17.307 -9.215,22.507 -0.059,0.296 0.199,0.81 0.924,0.708 3.711,-0.687 6.96,-4.806 8.175,-6.498 5.139,-7.444 4.844,-19.317 15.713,-22.153 0.827,1.477 1.294,5.188 1.294,5.188 14.957,0.821 40.158,-5.614 50.041,-31.239 2.009,0.296 3.462,1.928 4.55,3.84 1.094,-2.686 0.203,-6.906 -3.427,-8.98 1.181,-2.422 0.06,-7.266 4.373,-6.912 0.74,-3.179 -0.828,-3.722 -0.828,-3.722 3.539,-2.265 3.908,-5.423 3.839,-6.498 -0.918,-0.467 -1.869,-0.95 -2.716,-1.417 C -3.297,11.19 -4.186,9.417 -4.48,7.82 -2.525,7.726 -0.834,7.359 -0.248,6.613 0.922,5.181 2.996,1.139 0,0 M 1.049,7.674 C 0.424,8.47 -0.713,9.006 -2.389,9.29 c 0.209,0.837 0.379,1.77 0.27,2.752 0.486,0.253 1.529,0.786 1.529,0.786 0.527,0.268 0.875,0.796 0.912,1.386 0.123,1.91 -0.676,4.688 -3.15,6.906 0.349,0.859 0.5,2.082 0.098,3.801 -0.188,0.809 -0.94,1.358 -1.768,1.29 -1.223,-0.1 -1.502,0.119 -1.928,2.868 -0.088,0.565 -0.179,1.139 -0.314,1.698 3.431,2.681 4.236,6.806 2.984,10.288 -0.537,1.496 -2.412,1.171 -3.006,0.194 -0.72,-1.179 -1.4,-2.046 -2.15,-2.537 -4.633,10.984 -12.664,19.575 -23.313,24.906 -8.464,4.239 -18.584,6.38 -27.763,5.877 -0.808,-0.044 -1.47,-0.661 -1.57,-1.463 -0.118,-0.931 -0.358,-2.273 -0.64,-3.313 -5.355,2.074 -7.255,7.093 -9.253,12.387 -1.118,2.962 -2.274,6.024 -4.075,8.633 -1.705,2.377 -5.147,6.435 -9.247,7.193 -3.281,0.279 -3.354,-3.044 -2.168,-3.742 7.057,-4.776 7.783,-13.159 8.486,-21.266 0.617,-7.112 4.715,-11.391 8.925,-14.726 -5.33,-1.139 -11.495,-0.1 -15.707,2.726 -0.005,0.001 -0.009,0.004 -0.013,0.006 0,0.001 -0.001,0.001 -0.001,0.001 -6.495,4.258 -7.459,11.141 -8.155,18.775 -0.45,4.958 -1.629,9.686 -1.635,9.705 -1.058,3.309 -2.554,6.908 -5.641,8.525 -1.171,0.633 -2.524,0.466 -3.296,-0.405 -0.659,-0.745 -0.708,-1.809 -0.104,-2.636 3.279,-4.485 3.483,-8.496 3.199,-12.933 -1.391,-12.136 -0.728,-18.295 2.237,-24.865 6.917,-13.328 17.362,-19.04 25.169,-20.953 -0.172,-3.388 0.165,-6.386 0.623,-9.142 -11.193,-6.152 -21.283,-13.358 -37.392,-38.278 -1.326,-1.746 0.305,-5.697 3.864,-2.833 9.848,9.148 22.042,13.87 32.622,12.636 8.843,-1.035 16.307,-6.01 22.184,-14.789 7.312,-11.54 6.953,-20.743 6.053,-30.244 -0.231,-2.424 -0.897,-5.695 2.101,-6.974 1.061,-0.454 2.242,-0.32 3.317,0.382 2.189,1.435 3.851,5.234 4.291,7.044 0.648,0.908 0.888,2.059 0.98,2.795 0.648,1.034 0.797,2.558 0.799,3.514 1.726,2.478 2.879,7.016 1.365,10.236 0.5,2.138 0.447,5.64 -0.381,7.983 0.309,1.638 1.076,6.71 -0.537,10.132 2.033,2.092 4.461,3.906 7.051,5.276 0.519,-6.381 1.719,-12.78 -3.578,-17.338 -1.326,-1.046 -1.227,-4.298 1.984,-3.461 9.752,3.153 12.86,19.5 13.826,25.374 2.397,1.071 13.903,4.601 14.879,4.959 C 2.223,-0.947 2.84,0.22 3.072,1.087 3.729,3.532 2.037,6.466 1.049,7.674"
             style="fill:#ffffff;fill-opacity:1;fill-rule:nonzero;stroke:none"
             id="path28" />
        </g>
        <g
           id="g30"
           transform="translate(388.8882,345.3472)">
          <path
             d="M 0,0 C -3.484,2.128 -6.241,4.767 -8.061,9.772 -8.152,9.848 -8.386,9.953 -8.266,9.676 -8.06,8.84 -7.417,7.173 -7.123,6.32 -7.089,6.04 -7.456,6.005 -7.562,6.145 c -0.73,0.8 -1.709,3.542 -2.332,5.142 -0.08,0.207 -0.162,0.065 -0.243,-0.046 0.355,-2.54 1.066,-4.823 1.749,-6.777 0.07,-0.315 -0.239,-0.384 -0.414,-0.211 -0.905,1.501 -1.265,3.22 -1.656,5.331 -0.067,0.058 -0.164,0.047 -0.19,-0.102 0.438,-3.899 1.582,-7.869 3.264,-11.017 1.122,-1.832 2.954,-3.84 5.376,-3.425 C 0.835,-4.367 1.257,-0.858 0,0"
             style="fill:#ffffff;fill-opacity:1;fill-rule:nonzero;stroke:none"
             id="path32" />
        </g>
        <g
           id="g34"
           transform="translate(387.9712,320.1069)">
          <path
             d="m 0,0 c 0.672,-0.521 -2.994,-1.75 -2.51,-2.228 0.512,-0.513 4.554,3.02 5.671,1.949 0.551,-0.707 -3.476,-2.2 -3.13,-2.659 0.397,-0.554 4.761,3.013 5.851,2.385 1.109,-0.835 -3.068,-2.492 -2.603,-2.798 0.998,-0.719 4.683,2.974 5.529,2.152 0.881,-0.881 -2.746,-2.309 -2.22,-2.742 0.692,-0.669 4.33,3.197 5.431,2.448 0.884,-0.699 -2.897,-2.536 -2.477,-2.862 0.562,-0.436 4.364,2.268 5.1,1.857 0.887,-0.636 -2.233,-1.921 -1.852,-2.27 0.485,-0.437 2.719,1.896 3.426,1.537 1.285,-0.599 -2.066,-2.077 -1.418,-2.54 0.42,-0.333 1.743,1.628 2.721,0.893 0.748,-0.627 -1.131,-1.544 -0.771,-1.781 0.455,-0.284 1.527,1.57 2.412,0.98 0.408,-0.261 -0.405,-0.848 -0.108,-0.98 0.512,-0.232 1.201,0.614 1.76,0.381 0.59,-0.354 -0.381,-0.802 0.072,-1.089 0.418,-0.233 1.104,1.247 2.125,0.177 4.489,2.297 9.168,15.477 -5.812,19.875 -10.031,3.381 -27.685,-5.022 -38.257,2.928 -5.67,4.43 -8.792,10.292 -9.028,17.204 0.013,0.074 -0.14,0.151 -0.176,-0.08 -0.021,-5.795 1.122,-11.802 5.069,-16.533 0.174,-0.21 -0.121,-0.436 -0.296,-0.295 -4.075,3.84 -5.494,9.927 -5.789,15.004 -0.091,0.22 -0.174,0.196 -0.158,-0.059 0.217,-6.697 1.87,-14.46 6.243,-17.9 0.139,-0.139 -0.086,-0.434 -0.296,-0.296 -4.111,3.168 -5.907,9.469 -6.842,14.018 -0.105,0.139 -0.115,0.092 -0.15,-0.083 0.363,-5.184 3.507,-17.643 15.376,-23.888 3.194,-1.455 5.386,10e-4 6.089,-0.68 0.43,-0.586 -1.702,-0.979 -1.537,-1.299 0.231,-0.444 2.913,1.059 3.663,0.295 0.258,-0.413 -0.596,-0.543 -0.413,-0.827 0.256,-0.295 2.067,1.123 3.131,0.414 0.397,-0.291 -1.255,-0.92 -1.004,-1.123 0.407,-0.44 3.517,1.998 4.215,1.102 0.844,-1.105 -2.61,-1.562 -2.266,-2.106 C -4.855,-2.125 -1.116,0.791 0,0"
             style="fill:#ffffff;fill-opacity:1;fill-rule:nonzero;stroke:none"
             id="path36" />
        </g>
        <g
           id="g38"
           transform="translate(437.125,306.7231)">
          <path
             d="M 0,0 C 0.141,1.005 -0.096,2.089 -0.326,2.944 -1.924,3.003 -4.592,3.738 -4.58,4.48 -4.391,5.478 -0.854,5.936 1.449,6.172 1.938,6.242 2.008,6.725 1.52,6.794 -0.844,7.149 -3.592,7.365 -5.289,6.489 -6.498,5.915 -8.576,3.508 -8.717,4.599 -8.951,6.43 -8.303,7.848 -8.125,9.443 -8.598,9.62 -9.496,9.518 -9.908,9.046 c -1.065,-4.077 -2.059,-7.874 -4.598,-11.359 6.322,-2.186 4.783,-9.569 6.203,-14.77 0,0 -0.629,-0.675 -0.945,0 -1.299,3.782 -0.758,7.863 -2.922,11.242 -0.703,0.951 -2.164,1.438 -3.473,1.61 -1.343,-1.948 -4.882,-2.344 -4.83,-10.428 0.237,-0.768 2.051,1.658 2.719,0.589 -0.49,-7.676 2.713,-11.098 8.297,-9.425 1.037,4.288 2.557,8.674 4.861,12.158 C -6.707,-5.163 -2.955,-1.417 0,0"
             style="fill:#eec6a5;fill-opacity:1;fill-rule:nonzero;stroke:none"
             id="path40" />
        </g>
        <g
           id="g42"
           transform="translate(441.0039,311.7378)">
          <path
             d="m 0,0 c -1.352,-0.059 -4.602,-0.135 -4.594,-0.536 0.071,-0.418 0.903,-0.204 1.391,-0.412 0.474,-1.832 0.828,-5.402 0.238,-5.967 -2.601,-1.833 -5.199,-4.372 -4.492,-7.917 1.537,1.655 4.236,4.402 6.961,5.645 -0.557,0.837 -0.654,3.416 0.601,4.462 0.602,0.178 1.418,0.21 2.895,0.231 0.623,-0.118 0.848,-0.671 0.592,-1.004 -0.473,-0.59 -3.176,-0.79 -2.58,-1.987 0.674,-1.357 3.759,0.655 5.828,1.161 L 6.699,-5.219 C 3.451,-4.864 4.158,-0.863 3.154,1.323 2.34,2.618 -0.352,2.241 0,0"
             style="fill:#eec6a5;fill-opacity:1;fill-rule:nonzero;stroke:none"
             id="path44" />
        </g>
        <g
           id="g46"
           transform="translate(451.7227,288.8936)">
          <path
             d="m 0,0 c -0.896,0.333 -2.148,-0.084 -3.223,0.542 -1.412,0.989 1.09,4.247 -0.064,4.887 -1.217,0.672 -7.332,-6.292 -8.094,-10.883 4.02,0.873 8.506,1.358 13.174,1.121 C 2.453,-4.136 1.979,-0.906 0,0"
             style="fill:#eec6a5;fill-opacity:1;fill-rule:nonzero;stroke:none"
             id="path48" />
        </g>
        <g
           id="g50"
           transform="translate(417.9512,289.9375)">
          <path
             d="m 0,0 c -0.271,0.444 -1.072,0.316 -1.299,-0.329 -0.381,-3.036 -0.51,-5.565 -1.121,-8.594 1.713,-3.837 3.543,-7.973 2.42,-12.64 2.955,3.307 6.205,6.615 10.043,8.211 L 9.631,-8.805 C 3.594,-9.132 0.824,-6.76 0,0"
             style="fill:#eec6a5;fill-opacity:1;fill-rule:nonzero;stroke:none"
             id="path52" />
        </g>
        <g
           id="g54"
           transform="translate(439.9121,281.7959)">
          <path
             d="M 0,0 C -0.359,-0.135 -0.396,-0.898 -0.021,-1.124 0.436,-1.366 8.877,1.156 8.76,1.348 8.441,2.034 2.195,0.604 0,0"
             style="fill:#eec6a5;fill-opacity:1;fill-rule:nonzero;stroke:none"
             id="path56" />
        </g>
        <g
           id="g58"
           transform="translate(384.4575,314.6294)">
          <path
             d="m 0,0 v -1.891 c 1.122,0.553 2.245,1.118 3.249,1.418 z"
             style="fill:#eebf1b;fill-opacity:1;fill-rule:nonzero;stroke:none"
             id="path60" />
        </g>
        <g
           id="g62"
           transform="translate(416.9492,324.377)">
          <path
             d="m 0,0 c 6.396,1.369 14.525,2.54 20.852,2.008 0,0 -9.528,21.842 -42.534,22.684 -0.681,-5.983 -3.963,-9.232 -6.675,-14.177 C -8.588,12.233 -3.416,8.671 0,0"
             style="fill:#eebf1b;fill-opacity:1;fill-rule:nonzero;stroke:none"
             id="path64" />
        </g>
        <g
           id="g66"
           transform="translate(433.7695,317.7241)">
          <path
             d="m 0,0 c -2.242,-0.152 -2.998,-2.21 -3.057,-3.687 3.957,2.719 9.688,-0.058 14.002,1.832 1.534,0.887 2.659,2.422 2.834,4.135 C 9.695,-1.607 5.662,0.238 0,0"
             style="fill:#eebf1b;fill-opacity:1;fill-rule:nonzero;stroke:none"
             id="path68" />
        </g>
        <g
           id="g70"
           transform="translate(389.0757,291.4727)">
          <path
             d="m 0,0 c 1.102,-6.768 8.32,-11.299 14.108,-10.162 0.767,14.65 20.264,20.441 22.685,34.441 -2.244,-0.237 -4.312,-0.886 -6.38,-1.418 0,0 -1.059,-8.077 -9.414,-10.671 -4.221,-1.127 -7.618,0.141 -9.628,0.977 C 10.502,13.521 9.42,12.937 8.604,12.706 -1.733,8.451 -7.04,-2.131 -13.834,-10.458 c -0.139,-0.348 -0.188,-0.932 0.371,-1.144 1.96,-0.622 4.79,0.861 6.717,2.386 C -3.366,-6.278 -1.451,-2.874 0,0"
             style="fill:#eebf1b;fill-opacity:1;fill-rule:nonzero;stroke:none"
             id="path72" />
        </g>
        <g
           id="g74"
           transform="translate(395.9653,306.5352)">
          <path
             d="M 0,0 C 0.427,0.274 0.532,0.864 -0.533,0.656 -5.987,-0.732 -28.404,-9.73 -47.205,-37.79 c -0.278,-0.351 -0.145,-0.699 0.135,-0.49 3.089,3.067 5.569,4.868 8.741,7.012 1.598,1.084 2.491,2.865 3.605,4.743 C -27.406,-14.171 -10.295,-3.968 0,0"
             style="fill:#eebf1b;fill-opacity:1;fill-rule:nonzero;stroke:none"
             id="path76" />
        </g>
        <g
           id="g78"
           transform="translate(397.9907,305.6865)">
          <path
             d="m 0,0 c 0.349,0.14 0.043,0.624 -0.376,0.414 -14.238,-6.203 -29.049,-14.925 -37.1,-29.459 -0.19,-0.399 0.324,-0.466 0.632,-0.334 3.424,1.222 6.725,2.085 10.663,3.216 0.575,0.169 1.5,0.964 1.658,1.204 C -18.176,-15.358 -10.549,-5.129 0,0"
             style="fill:#eebf1b;fill-opacity:1;fill-rule:nonzero;stroke:none"
             id="path80" />
        </g>
        <g
           id="g82"
           transform="translate(451.3887,298.0293)">
          <path
             d="m 0,0 c 0,0 -0.883,5.95 -7.213,4.614 -2.683,-0.7 -6.703,-3.748 -9.387,-7.036 -6.369,-7.808 -5.476,-16.836 -4.355,-25.878 0.059,-0.476 0.41,-0.411 0.375,0.017 -0.572,7.749 1.5,14.283 3.269,17.472 0.401,0.461 0.866,0.035 0.709,-0.237 -4.039,-7.521 -1.998,-16.951 -4.591,-26.76 -0.08,-0.32 0.162,-0.287 0.236,-0.128 2.182,4.18 2.631,17.737 5.221,21.15 0.246,0.418 0.558,0.052 0.435,-0.228 -2.275,-7.432 -1.568,-14.364 -5.441,-22.087 -0.074,-0.184 0.103,-0.189 0.166,-0.102 3.279,4.468 4.437,14.75 6.988,22.485 C -11.426,-10.17 -7.443,-2.128 0,0"
             style="fill:#eebf1b;fill-opacity:1;fill-rule:nonzero;stroke:none"
             id="path84" />
        </g>
        <g
           id="g86"
           transform="translate(415.5801,297.5938)">
          <path
             d="m 0,0 c -0.738,0.617 -13.889,-13.499 -11.166,-24.166 1.535,-0.591 3.113,-1.972 4.324,-2.927 -0.043,6.895 5.955,9.26 5.906,20.557 0,0 -1.337,1.902 -0.966,2.128 0.322,0.165 0.929,-0.635 1.146,-0.532 C -0.49,-4.705 0.316,-0.338 0,0"
             style="fill:#eebf1b;fill-opacity:1;fill-rule:nonzero;stroke:none"
             id="path88" />
        </g>
        <g
           id="g90"
           transform="translate(389.6509,285.2031)">
          <path
             d="M 0,0 C -0.339,0.854 -0.881,1.838 -1.236,2.725 -2.47,0.198 -4.823,-3.19 -7.954,-5.139 -8.508,-5.68 -7.135,-5.654 -6.281,-5.504 -3.933,-4.639 -1.596,-1.955 0,0"
             style="fill:#eebf1b;fill-opacity:1;fill-rule:nonzero;stroke:none"
             id="path92" />
        </g>
        <g
           id="g94"
           transform="translate(397.3247,273.3418)">
          <path
             d="m 0,0 c -3.958,2.068 -6.229,5.563 -6.052,10.053 -0.177,0.178 -0.506,0.543 -0.73,0.752 C -8.143,9.03 -10.445,6.912 -12.158,5.666 -7.728,4.367 -3.802,2.367 -0.139,-0.763 0.21,-1.112 0.629,-0.278 0,0"
             style="fill:#eebf1b;fill-opacity:1;fill-rule:nonzero;stroke:none"
             id="path96" />
        </g>
        <g
           id="g98"
           transform="translate(402.8887,279.1826)">
          <path
             d="m 0,0 c -3.545,-0.236 -6.891,0.717 -10.042,2.84 0,0 0.184,-6.818 10.042,-7.977 z"
             style="fill:#eebf1b;fill-opacity:1;fill-rule:nonzero;stroke:none"
             id="path100" />
        </g>
        <g
           id="g102"
           transform="translate(414.3652,278.625)">
          <path
             d="m 0,0 c -1.24,-1.896 -4.979,-8.065 -4.803,-13.501 1.537,-0.472 2.694,-1.686 3.959,-2.718 0.674,3.745 4.819,7.208 2.096,15.488 C 0.979,0.26 0.477,0.753 0,0"
             style="fill:#eebf1b;fill-opacity:1;fill-rule:nonzero;stroke:none"
             id="path104" />
        </g>
        <g
           id="g106"
           transform="translate(408.2656,269.3779)">
          <path
             d="m 0,0 c 0,0 -7.279,4.834 -8.922,3.131 -1.536,-1.255 2.654,-5.178 3.701,-5.806 1.117,-0.768 4.983,-0.87 4.983,-0.87 C -0.355,-2.303 -0.061,-1.183 0,0"
             style="fill:#eebf1b;fill-opacity:1;fill-rule:nonzero;stroke:none"
             id="path108" />
        </g>
        <g
           id="g110"
           transform="translate(416.2402,254.373)">
          <path
             d="M 0,0 C 1.471,3.508 2.168,10.321 0.826,11.164 0.199,11.444 -2.023,5.655 -2.934,3.422 -2.273,2.745 -1.037,1.491 0,0"
             style="fill:#eebf1b;fill-opacity:1;fill-rule:nonzero;stroke:none"
             id="path112" />
        </g>
        <g
           id="g114"
           transform="translate(412.8125,261.165)">
          <path
             d="m 0,0 c -2.266,2.478 -6.689,3.986 -7.658,3.11 -0.596,-0.773 0.451,-1.988 0.982,-2.99 1.182,-2.363 3.604,-2.777 5.85,-3.134 C -0.557,-1.89 -0.242,-1.11 0,0"
             style="fill:#eebf1b;fill-opacity:1;fill-rule:nonzero;stroke:none"
             id="path116" />
        </g>
        <g
           id="g118"
           transform="translate(414.4082,250.6348)">
          <path
             d="M 0,0 C 0.418,0.07 1.488,2.089 1.279,2.649 -0.021,5.011 -3.918,6.905 -4.846,6.396 -5.596,5.772 -4.896,3.872 -4.432,3.027 -3.77,1.491 -0.391,-0.197 0,0"
             style="fill:#eebf1b;fill-opacity:1;fill-rule:nonzero;stroke:none"
             id="path120" />
        </g>
        <g
           id="g122"
           transform="translate(415.3867,249.6045)">
          <path
             d="M 0,0 C 0.359,-1.137 1.105,-1.8 1.385,-3.031 2.658,-0.993 3.408,4.225 2.684,4.594 2.266,4.732 0.279,0.417 0,0"
             style="fill:#eebf1b;fill-opacity:1;fill-rule:nonzero;stroke:none"
             id="path124" />
        </g>
        <g
           id="g126"
           transform="translate(411.3965,250.1191)">
          <path
             d="M 0,0 C -0.473,-0.187 -0.367,-1.905 -0.189,-2.85 0.047,-4.688 3.238,-6.538 3.65,-6.417 3.984,-6.453 4.666,-5.375 4.666,-4.55 3.957,-2.6 0.879,0.247 0,0"
             style="fill:#eebf1b;fill-opacity:1;fill-rule:nonzero;stroke:none"
             id="path128" />
        </g>
        <g
           id="g130"
           transform="translate(415.9453,242.5547)">
          <path
             d="M 0,0 1.535,-2.123 C 2.764,-0.47 3.291,3.205 2.609,3.705 2.131,4.001 0.826,1.304 0,0"
             style="fill:#eebf1b;fill-opacity:1;fill-rule:nonzero;stroke:none"
             id="path132" />
        </g>
        <g
           id="g134"
           transform="translate(412.1055,243.7373)">
          <path
             d="M 0,0 C -0.559,0.143 -0.629,-1.363 0,-1.712 1.771,-2.895 3.215,-4.692 4.043,-6.642 4.391,-7.27 4.826,-6.074 4.617,-5.31 4.145,-3.242 2.066,-0.706 0,0"
             style="fill:#eebf1b;fill-opacity:1;fill-rule:nonzero;stroke:none"
             id="path136" />
        </g>
        <g
           id="g138"
           transform="translate(412.6953,239.9004)">
          <path
             d="M 0,0 C -0.42,0.349 -1.498,-0.698 -0.871,-1.188 0.283,-2.206 2.357,-4.271 2.76,-5.253 3.904,-4.332 1.771,-1.36 0,0"
             style="fill:#eebf1b;fill-opacity:1;fill-rule:nonzero;stroke:none"
             id="path140" />
        </g>
        <g
           id="g142"
           transform="translate(412.4063,236.2617)">
          <path
             d="M 0,0 C -0.506,0.12 -1.006,-0.724 -0.549,-0.991 0.428,-1.819 1.475,-2.872 2.256,-3.882 2.395,-4.021 2.744,-3.784 2.674,-3.365 2.141,-2.064 1.186,-0.411 0,0"
             style="fill:#eebf1b;fill-opacity:1;fill-rule:nonzero;stroke:none"
             id="path144" />
        </g>
        <g
           id="g146"
           transform="translate(411.8086,233.6357)">
          <path
             d="M 0,0 C -0.279,0.073 -0.586,-0.773 -0.236,-1.121 0.828,-1.77 1.127,-2.511 1.955,-3.383 2.258,-3.589 2.502,-3.225 2.42,-2.93 2.098,-1.737 0.836,-0.389 0,0"
             style="fill:#eebf1b;fill-opacity:1;fill-rule:nonzero;stroke:none"
             id="path148" />
        </g>
        <g
           id="g150"
           transform="translate(411.5742,230.8027)">
          <path
             d="M 0,0 C -0.697,-1.203 -1.273,-3.395 -0.297,-3.959 0.666,-4.345 1.412,-2.256 1.625,-1.696 1.072,-1.116 0.59,-0.414 0,0"
             style="fill:#eebf1b;fill-opacity:1;fill-rule:nonzero;stroke:none"
             id="path152" />
        </g>
      </g>
    </g>
  </g>
</svg>
