<?xml version="1.0" encoding="utf-8"?>
<svg version="1.1" id="svg2" width="1632" height="1056" viewBox="264.803 79.291 1243.024 771.748" xmlns="http://www.w3.org/2000/svg">
  <defs id="defs6">
    <clipPath clipPathUnits="userSpaceOnUse" id="clipPath16">
      <path d="M 0,792 H 1224 V 0 H 0 Z" id="path14"/>
    </clipPath>
  </defs>
  <g id="g8" transform="matrix(1.3333333,0,0,-1.3333333,0,1056)">
    <g id="g10">
      <g id="g12" clip-path="url(#clipPath16)">
        <g id="g18" transform="translate(1093.6152,457.1064)">
          <path d="m 0,0 c 0,-135.252 -187.717,-244.893 -419.285,-244.893 -231.569,0 -419.289,109.641 -419.289,244.893 0,135.251 187.72,244.894 419.289,244.894 C -187.717,244.894 0,135.251 0,0" style="fill:#000000;fill-opacity:1;fill-rule:nonzero;stroke:none" id="path20"/>
        </g>
        <g id="g22" transform="translate(1042.9082,455.3745)">
          <path d="m 0,0 c 0,-121.183 -163.91,-219.416 -366.104,-219.416 -202.196,0 -366.104,98.233 -366.104,219.416 0,121.183 163.908,219.416 366.104,219.416 C -163.91,219.416 0,121.183 0,0" style="fill:#c9b074;fill-opacity:1;fill-rule:nonzero;stroke:none" id="path24"/>
        </g>
        <g id="g26" transform="translate(1015.6992,455.623)">
          <path d="m 0,0 c 0,-116.946 -151.451,-211.746 -338.277,-211.746 -186.826,0 -338.276,94.8 -338.276,211.746 0,116.944 151.45,211.744 338.276,211.744 C -151.451,211.744 0,116.944 0,0" style="fill:#840026;fill-opacity:1;fill-rule:nonzero;stroke:none" id="path28"/>
        </g>
        <g id="g30" transform="translate(809.6416,423.9663)">
          <path d="m 0,0 c -0.481,-1.999 -1.294,-4.344 -2.603,-6.673 -2.005,-3.498 -4.921,-6.981 -10.426,-9.998 -5.513,-2.981 -13.966,-5.517 -27.189,-5.528 -0.388,0 -0.786,0.005 -1.194,0.008 l -0.409,0.003 -0.405,-0.019 -0.087,-0.002 c -0.551,-0.025 -3.493,-0.145 -7.805,-0.141 -5.428,-0.004 -13.039,0.19 -20.695,0.944 -1.372,0.132 -2.74,0.289 -4.104,0.464 6.514,2.419 12.857,5.064 18.839,8.11 14.783,7.574 27.808,17.151 37.599,29.245 H 0.234 L 0.671,4.833 C 0.677,4.643 0.639,2.649 0,0 m -147.117,144.785 c -1.735,0 -3.461,-0.011 -5.185,-0.039 -2.855,-0.046 -5.601,-0.069 -8.231,-0.069 -13.572,0 -24.158,0.591 -32.173,1.585 -6.008,0.738 -10.56,1.713 -13.779,2.714 -2.415,0.75 -4.069,1.508 -5.085,2.099 -1.547,0.932 -1.607,1.264 -1.65,1.287 -0.003,0.013 -0.02,0.047 -0.044,0.101 0.515,0.53 1.437,1.327 2.789,2.165 2.777,1.759 7.223,3.665 12.62,4.995 5.398,1.345 11.752,2.169 18.476,2.165 1.839,0 3.706,-0.058 5.591,-0.185 14.445,-0.956 34.116,-2.896 53.217,-8.084 9.544,-2.587 18.92,-5.974 27.393,-10.323 2.827,-1.449 5.501,-3.043 8.106,-4.705 -20.095,4.396 -41.531,6.286 -62.045,6.294 M -213.444,27.104 c -8.52,2.704 -17.32,6.156 -25.862,10.636 -12.013,6.303 -23.47,14.521 -33.129,25.23 l -3.411,3.781 c 3.976,-1.271 8.191,-2.474 12.756,-3.568 13.545,-3.235 29.906,-5.633 49.646,-6.901 z M -1.862,68.538 c -0.518,5.791 -1.808,11.343 -3.802,16.527 -4.653,12.143 -13.002,22.013 -23.073,29.688 -4.073,3.097 -8.45,5.861 -13.043,8.367 l 30.214,0.235 0.029,83.743 h -13.859 -57.775 l -8.692,-7.824 c -14.245,2.663 -48.302,8.191 -86.406,8.211 -29.698,-0.043 -61.896,-3.263 -89.748,-14.827 -13.902,-5.806 -26.78,-13.821 -37.199,-24.881 -10.284,-10.88 -17.943,-24.781 -21.571,-41.233 h -0.006 c -0.025,-0.092 -0.063,-0.278 -0.097,-0.409 -0.017,-0.085 -0.042,-0.166 -0.062,-0.251 h 0.005 c -0.283,-1.23 -0.693,-3.507 -0.697,-6.743 -0.015,-4.941 1.056,-12.081 5.188,-19.64 3.079,-5.664 7.824,-11.455 14.525,-16.712 7.365,-5.781 17.023,-10.953 29.656,-15.241 h -46.017 V -45.28 h 43.85 l 2.926,1.462 c 0.907,0.476 6.598,3.36 12.882,9.777 3.129,3.214 6.401,7.343 9.087,12.523 0.178,0.34 0.327,0.727 0.499,1.078 16.562,-5.935 46.219,-13.836 87.79,-14.795 v -0.479 -61.161 c -0.081,-0.431 -0.361,-1.653 -1.337,-3.318 -1.5,-2.475 -4.45,-6.225 -12.349,-9.994 -7.885,-3.724 -20.885,-7.19 -41.41,-7.677 l -13.522,-0.326 v -44.209 h 211.799 v 46.185 h -13.856 -0.064 c -0.168,0 -3.422,0.011 -8.061,0.476 -3.476,0.344 -7.733,0.95 -12,1.945 -3.201,0.741 -6.401,1.704 -9.259,2.871 -4.316,1.737 -7.716,3.964 -9.615,6.07 -0.969,1.063 -1.615,2.063 -2.079,3.158 -0.451,1.087 -0.76,2.305 -0.821,4.003 v 26.676 h 51.529 c 2.587,-0.67 9.398,-2.726 15.385,-6.593 3.743,-2.374 7.061,-5.322 9.282,-8.66 2.212,-3.382 3.6,-7.024 3.643,-12.46 v -13.856 H 47.514 V 16.413 h 20.614 c 5.166,-0.766 8.453,-2.348 11.038,-4.331 2.005,-1.566 3.638,-3.477 5.037,-5.781 2.092,-3.428 3.552,-7.774 4.379,-12.081 0.843,-4.295 1.069,-8.498 1.065,-11.448 0.002,-1.41 -0.047,-2.539 -0.091,-3.262 -0.023,-0.363 -0.043,-0.623 -0.056,-0.769 L 89.488,-21.384 87.812,-36.7 h 50.096 V 68.538 Z" style="fill:#000000;fill-opacity:1;fill-rule:nonzero;stroke:none" id="path32"/>
        </g>
        <g id="g34" transform="translate(781.6064,623.147)">
          <path d="m 0,0 h -52.456 l -9.898,-8.907 c 0,0 -202.891,44.537 -225.655,-61.363 0,0 -15.835,-59.382 156.375,-53.444 0,0 90.396,7.917 83.137,-32.661 -7.524,-42.071 -85.115,-32.662 -85.115,-32.662 0,0 -78.189,-0.988 -123.715,49.488 h -27.713 v -85.117 h 26.723 c 0,0 17.815,8.909 19.795,29.691 0,0 36.619,-19.794 104.91,-19.794 68.29,0 141.529,28.703 143.509,82.146 1.979,53.446 -73.239,71.26 -136.581,70.271 -63.342,-0.99 -74.229,8.907 -75.219,21.774 -0.989,12.866 24.743,24.743 54.434,22.763 29.692,-1.979 82.147,-7.917 111.838,-38.599 l 35.61,0.275 z" style="fill:#ffffff;fill-opacity:1;fill-rule:evenodd;stroke:none" id="path36"/>
        </g>
        <g id="g38" transform="translate(701.4395,484.5859)">
          <path d="m 0,0 h -94.024 v -23.753 h 28.702 c 0,0 15.836,-2.969 15.836,-17.814 0,0 64.331,-7.918 68.29,26.722 0,0 2.968,13.857 -18.804,14.845" style="fill:#ffffff;fill-opacity:1;fill-rule:evenodd;stroke:none" id="path40"/>
        </g>
        <g id="g42" transform="translate(653.6016,394.1895)">
          <path d="m 0,0 v -61.694 c 0,0 0.002,-32.657 -68.618,-34.308 v -16.825 h 184.086 v 18.473 c 0,0 -54.764,-0.326 -55.754,32.002 v 40.908 h 66.97 c 0,0 40.581,-7.918 40.581,-41.569 h 19.794 V 40.908 h -19.133 c 0,0 1.646,-41.902 -56.085,-41.24 0,0 -34.312,-1.647 -54.435,5.61 C 57.406,5.278 32.659,-3.298 0,0" style="fill:#ffffff;fill-opacity:1;fill-rule:nonzero;stroke:none" id="path44"/>
        </g>
        <g id="g46" transform="translate(806.6807,484.5859)">
          <path d="M 0,0 H 124.375 V -77.525 H 103.59 c 0,0 5.277,48.163 -33.981,53.112 H -7.259 c 0,0 6.93,5.938 7.259,24.413" style="fill:#ffffff;fill-opacity:1;fill-rule:nonzero;stroke:none" id="path48"/>
        </g>
      </g>
    </g>
  </g>
</svg>