<svg id="Layer_1" data-name="Layer 1" xmlns="http://www.w3.org/2000/svg" viewBox="0 0 409.76 287.88"><title>Cincinnati Bengals logo - Brandlogos.net</title><path d="M547.06,379.31c-2.17-1.1-1.9-3.05-.33-4.21,18.43-13.64,30.88-31.14,30.88-58.15,0-32-22.91-76.88-112.49-76.88H234.2l-52.3,91h38.4a7.73,7.73,0,0,1,7.75,7.73v90.81a7.74,7.74,0,0,1-7.75,7.73H179.12L232,527.94l244.08,0c78.77,0,112.83-41,112.83-85.07,0-29.17-20.74-52.8-41.82-63.53" transform="translate(-179.12 -240.06)" style="fill:#fffffe"/><path d="M410.29,363.9H372.36V327.45a7,7,0,0,1,7-6.9h31c18.17,0,24.92,9.25,24.92,21.32,0,12.81-6.75,22-24.92,22Zm0,83.87h-31a7,7,0,0,1-7-7v-36.4h37.93c18.17,0,24.92,8.89,24.92,21.33,0,12.79-6.75,22-24.92,22Zm108.27-66.41c-2.78-.65-2.32-4.05-.29-4.82,25-9.46,39.66-26.31,39.66-56,.35-39.81-34.88-67.16-92.18-67.16H248.58l-38.1,67.21H236.7a9.36,9.36,0,0,1,9.38,9.36V438.39a9.36,9.36,0,0,1-9.38,9.36H210.77l38.39,66.87,226.9,0c64.78,0,91.48-43,91.48-74.63,0-27.8-20.52-51.79-49-58.6Z" transform="translate(-179.12 -240.06)" style="fill:#fb4f14"/><path d="M322.45,495.63c-40.26-75.57-50.84-162.44-35.84-242.25h-38l-38.1,67.21H236.7a9.36,9.36,0,0,1,9.38,9.36v83.21c19.54,31.66,47.84,62,76.38,82.48ZM512.34,260.86c-46.08,68.24-71.05,155.21-59.84,234.42,13.73-66.64,49.55-128.18,105.35-172.76,0-.66.07-1.3.07-2,.23-27.43-16.42-49-45.58-59.68Zm-77.25-7.48a587.41,587.41,0,0,0-21.2,67.3c-1.14-.09-2.34-.13-3.6-.13h-31a7,7,0,0,0-7,6.9V363.9h32.57c-2.15,13.07-3.89,26.61-5,40.52H372.36v36.4a7,7,0,0,0,7,7h19a404.73,404.73,0,0,0,6.32,66.81h-28.3c-22.33-53.84-53.07-144.94-22.5-261.2h81.23Z" transform="translate(-179.12 -240.06)"/></svg>