<?xml version="1.0" encoding="utf-8"?>
<svg version="1.1" id="svg2" width="688.70667" height="310.86667" viewBox="196.623 -3.949 294.363 204.421" xmlns="http://www.w3.org/2000/svg">
  <g id="g8" transform="matrix(1.3333333,0,0,-1.3333333,0,310.86667)">
    <g id="g10" transform="scale(0.1)">
      <path d="m 3530.49,1915.13 c -4.51,-64.96 -13.55,-144.86 -47.44,-183.48 -32.86,-37.49 -57.93,-92.11 -76.73,-148.91 -9.9,-33.65 -22.89,-49.07 -83.65,-51.79 -22.67,-33.05 -44.62,-68.09 -71.9,-97.83 l -7.78,11.04 c -26.57,-25.2 -40.29,-39.82 -68.77,-65.57 3.04,33.09 4.61,78.25 -6.27,101.96 -16.2,26.58 -43.49,32.92 -70.72,29.01 l -126.94,-19.41 c -8.04,-26.55 -16.29,-64.08 -35.76,-91.27 -29.06,-68.06 -266.43,-92.01 -308.89,-85.61 -29.81,-14.88 -58.96,-33.69 -90.04,-47.94 8.54,31.82 28.11,98.99 28.11,98.99 0,0 41.63,21.18 61.57,32.3 -3.01,6.62 -4.35,9.43 -8.71,19.67 36.91,9.05 78.61,27.05 107.79,54.92 0,0 -183.58,-12.17 -269.74,-18.03 -5.24,-6.56 -10.38,-12.95 -16.84,-16.82 -196.28,8.4 -382.2,-18.13 -519.54,-156.78 -44.05,-44.06 -91.99,-91.64 -120.49,-142.18 -35.09,-36.44 -65.13,-67.34 -101.7,-103.98 l -38.86,-140.869 -60.97,79.969 c -8.21,11.312 28.69,61.62 9.78,87.48 44.05,31.73 79.69,93.62 90.09,145.25 89,59.99 199.23,165.7 231.93,272.29 0,0 1362.3,295.73 1381.71,299.57 -9.05,-25.93 -3.89,-61.54 25.27,-75.15 14.24,-3.25 29.8,1.31 42.1,9.71 -6.38,5.96 -18.79,14.24 -22.01,26.55 -5.85,15.57 2.59,29.16 12.32,40.19 -17.51,38.87 -3.25,83.55 20.09,115.29 16.17,21.38 42.03,45.87 60.15,65.3 L 2014.47,1750.54 c 0,0 187.58,175.31 395.61,237.89 -6.26,2.65 -21.65,9.08 -32.9,13.14 148.11,121.02 314.31,210.21 477.64,249.07 -2.42,8.17 -4.74,14.36 -7.58,23.63 4.96,0.61 139.2,20.43 139.2,20.43 -0.4,4.16 -0.31,4.74 -0.8,10.87 32.55,0.16 101.19,-17.73 127.15,-26.41 1.74,4.1 3.87,8.74 4.99,11.46 100.38,-44.74 182.36,-164.82 182.36,-164.82 66.07,7.22 135.27,-0.82 188.36,-28.69 49.33,-25.75 46.46,-117.98 41.99,-181.98 z m -526.32,-632.75 c -102.07,-50.65 -222.42,-51.41 -222.42,-51.41 l -71.45,-37.83 c 0,0 13.91,66.5 19.75,97.57 78.86,13.2 189.59,34 231.38,96.73 13.65,20.49 22.91,54.93 32.06,81.35 18.14,2.57 33.69,5.28 52.48,7.87 0,0.01 20.99,-162.87 -41.8,-194.28 z M 1930.46,1097.55 c -23.3,-53.12 -63.01,-164.491 -63.01,-164.491 0,0 -45.81,53.082 -64.59,78.981 -0.34,19.49 20.72,39.5 31.09,58.96 -1.93,5.81 -2.58,13.62 -1.28,18.78 36.92,27.21 60.25,66.08 68,108.83 125.63,197.3 362.47,206.68 362.47,206.68 z m -404.21,324.54 122.94,248 1661.43,243.04 c -51.51,-26.88 -56.04,-85.17 -31.42,-115.95 -436.95,-95.55 -1752.95,-375.09 -1752.95,-375.09 z m 2015.21,658.76 c -30.39,55.91 -143.54,76.33 -224.51,70.49 -52.47,72.56 -121.47,137.09 -210.94,176.52 -2.01,-5.05 -5.17,-12.9 -6.82,-18.95 -25.84,7.59 -84.66,21.96 -133.2,22.61 l -0.32,-16.76 c -52.48,-6.77 -126.35,-16.31 -151.06,-21.32 3.71,-12.58 4.81,-18.46 7.89,-26.6 -178.69,-49.21 -341.62,-143.51 -488.07,-269.95 6.39,-1.95 10.82,-4.78 13.08,-5.03 -159.64,-60.25 -276.42,-153.81 -378.15,-249.12 -120.29,-18.61 -336.22,-46.63 -336.22,-46.63 l -158.58,-314.17 419.44,88.47 c -34.98,-99.11 -130.65,-187.59 -218.75,-247.2 -11.67,-60.89 -43.4,-118.54 -99.12,-155.45 26.05,-29.17 -6.01,-66.02 -10.57,-97.1 35.64,-46.012 108.39,-134.14 108.39,-134.14 l 44.7,186.54 89.98,91.7 c -5.74,-15.43 -3.62,-32.94 -1.86,-39.69 -8.05,-16.68 -30.44,-37.23 -32.13,-66.16 34.07,-44.238 99.48,-124.488 99.48,-124.488 0,0 47.28,125.698 68.66,189.808 l 363.36,335.69 c 27.5,4.04 94.65,3.21 143.24,1.85 l 20.73,20.08 102.33,7.77 c 8.43,-13.76 13.24,-22.44 18.81,-33.05 -18.53,-10.64 -34.6,-18.98 -52.29,-27.73 l -46.21,-165.06 c 0,0 88.55,47.78 134.1,71.65 16.53,-2.6 55,-1.57 74.91,2.74 -9.75,-46.66 -26.68,-143.5 -26.68,-143.5 0,0 78.67,42.22 115.59,61.68 100.63,-0.44 201.85,39.91 229.51,53.88 77.18,30.71 54.41,222.07 54.41,222.07 15.53,1.99 34.88,6.63 49.8,2.01 43.66,-11.15 14.98,-175.45 14.98,-175.45 l 101.04,96.28 10.9,-14.17 c 0,0 60.92,75.91 88.09,116.14 74.3,-0.71 91.72,46.35 100.97,78.28 37.18,128.08 80.37,119.16 96.56,189.11 9.81,28.44 44.2,238.87 4.53,306.35" style="fill:#ffffff;fill-opacity:1;fill-rule:nonzero;stroke:none" id="path12"/>
      <path d="m 3310.61,1913.13 -1661.43,-243.04 -122.93,-248 c 0,0 1316,279.54 1752.95,375.09 -24.62,30.78 -20.1,89.07 31.41,115.95" style="fill:#bf1f26;fill-opacity:1;fill-rule:nonzero;stroke:none" id="path14"/>
      <path d="m 3488.5,2097.11 c -53.09,27.87 -122.29,35.91 -188.36,28.69 0,0 -81.98,120.08 -182.36,164.82 -1.12,-2.72 -3.25,-7.36 -4.99,-11.46 -25.97,8.68 -94.61,26.57 -127.15,26.41 0.49,-6.13 0.42,-6.71 0.8,-10.87 0,0 -134.24,-19.82 -139.2,-20.43 2.84,-9.27 5.16,-15.46 7.58,-23.63 -163.33,-38.86 -329.53,-128.04 -477.64,-249.07 11.25,-4.06 26.64,-10.49 32.9,-13.14 -208.03,-62.58 -395.61,-237.89 -395.61,-237.89 L 3447.64,1959 c -18.14,-19.43 -44,-43.92 -60.18,-65.3 -23.32,-31.74 -37.59,-76.42 -20.07,-115.29 -9.74,-11.03 -18.17,-24.62 -12.31,-40.19 3.22,-12.31 15.62,-20.59 22,-26.55 -12.29,-8.4 -27.86,-12.96 -42.1,-9.71 -29.16,13.61 -34.33,49.23 -25.26,75.15 C 3290.29,1773.27 1928,1477.54 1928,1477.54 c -32.71,-106.59 -142.93,-212.3 -231.93,-272.29 -10.4,-51.63 -46.04,-113.52 -90.09,-145.25 18.91,-25.86 -17.99,-76.168 -9.78,-87.48 l 60.96,-79.969 38.87,140.869 c 36.56,36.64 66.61,67.53 101.7,103.98 28.5,50.54 76.44,98.12 120.49,142.18 137.34,138.66 323.26,165.2 519.54,156.78 6.47,3.87 11.6,10.26 16.84,16.82 86.16,5.86 269.73,18.03 269.73,18.03 -29.17,-27.87 -70.86,-45.87 -107.78,-54.92 4.35,-10.24 5.69,-13.05 8.71,-19.67 -19.94,-11.12 -61.56,-32.3 -61.56,-32.3 0,0 -19.59,-67.17 -28.13,-98.99 31.1,14.25 60.25,33.06 90.04,47.94 42.47,-6.4 279.84,17.55 308.9,85.61 19.46,27.19 27.71,64.72 35.76,91.27 l 126.93,19.41 c 27.24,3.91 54.52,-2.43 70.74,-29.01 10.87,-23.7 9.3,-68.87 6.25,-101.96 28.49,25.75 42.21,40.37 68.77,65.57 l 7.78,-11.04 c 27.29,29.74 49.23,64.78 71.9,97.83 60.76,2.72 73.76,18.13 83.66,51.79 18.8,56.81 43.88,111.43 76.73,148.91 33.88,38.62 42.93,118.52 47.45,183.48 4.48,64 7.35,156.23 -41.98,181.98" style="fill:#26458b;fill-opacity:1;fill-rule:nonzero;stroke:none" id="path16"/>
      <path d="m 2993.49,1468.79 c -9.15,-26.41 -18.42,-60.85 -32.06,-81.35 -41.79,-62.73 -152.52,-83.52 -231.38,-96.71 -5.83,-31.09 -19.75,-97.59 -19.75,-97.59 l 71.45,37.83 c 0,0 120.35,0.76 222.42,51.41 62.78,31.41 41.8,194.29 41.8,194.29 -18.8,-2.59 -34.34,-5.29 -52.48,-7.88" style="fill:#26458b;fill-opacity:1;fill-rule:nonzero;stroke:none" id="path18"/>
      <path d="m 1900.67,1198.62 c -7.76,-42.74 -31.08,-81.63 -68,-108.84 -1.3,-5.15 -0.65,-12.95 1.28,-18.77 -10.37,-19.47 -31.44,-39.47 -31.09,-58.96 18.78,-25.909 64.59,-78.98 64.59,-78.98 0,0 39.71,111.36 63.01,164.49 l 332.68,307.74 c 0,0 -236.84,-9.37 -362.47,-206.68" style="fill:#26458b;fill-opacity:1;fill-rule:nonzero;stroke:none" id="path20"/>
    </g>
  </g>
</svg>