<?xml version="1.0" encoding="utf-8"?>
<!-- Generator: Adobe Illustrator 18.1.1, SVG Export Plug-In . SVG Version: 6.00 Build 0)  -->
<!DOCTYPE svg PUBLIC "-//W3C//DTD SVG 1.1//EN" "http://www.w3.org/Graphics/SVG/1.1/DTD/svg11.dtd">
<svg version="1.1" id="Layer_1" xmlns="http://www.w3.org/2000/svg" xmlns:xlink="http://www.w3.org/1999/xlink" x="0px" y="0px"
	 viewBox="0 0 400 400" enable-background="new 0 0 400 400" xml:space="preserve">
<g>
	<path fill-rule="evenodd" clip-rule="evenodd" fill="#EE4723" d="M173.1,306.4c-2.9,0-3.3-1.4-4.7-3.3c-5-6.8-0.5-13.5,6.3-13.2
		C185.4,290.4,183,306.4,173.1,306.4L173.1,306.4z M142,297.8v1.6c2.2-1.3,4.8-2.8,8-4.6C148.4,295.1,145.6,296.5,142,297.8
		L142,297.8z M108.8,320.2h-3.2c5.6,3.1,11.3,6,17.8,8.5c10.8,4.1,24.8,7.5,37.9,6c13.7-1.7,24.6-4.2,33.4-11.3
		c10-8.1,13.9-15.5,15.8-28.3l4.9,0.8c1.5,45.8-58.6,55.7-100.8,34.3c-6.7-3.4-10.3-6-16.3-10c-21.4-14.2-31.7,0.1-41.8-2.9
		c-4-1.2-2.9-3.7-5.6-7.5c-9.7-14-16.3-26.1-23-42.7c-10-24.8-16.6-57.8-12.1-89.6c4.2-29.6,18.2-54,33.7-70.7
		c8.3-9.1,17.7-17.1,28.6-23.9c20.8-12.9,34.6-19.1,59.5-19.1c8.1,0,16.6,0.8,24.2,2c14.9,2.3,31,0.8,42.8,6.6l54.5,50.2
		c-6,6.5-0.2,23.1,0.9,32.9c-14.8,3.5-44.5,9.3-56.8,18.9c-1.8,1.4-5.2,2.8-5.8,4.7c-7.2,3.8-18.5,26.3-23.8,33.4
		c-0.1,0.1-0.2,0.2-0.3,0.3c-1.2,0.2-2.3,0.7-3.2,1.7c-1.4,1.6-1.5,3.8-1.3,5.8c-0.1,0.5-0.6,1.3-2.3,4c-1.4,2.1-6.4,10.8-7.4,11.5
		c-2.2,1.4-2.5-0.1-5,4.4c-2.8,5.1-5.1,7.9-7.3,11.6c-3.4,5.8,3.9-0.9-10.2,19c-1.2,2.6-4.6,5.6-4.3,8.4c0.3,3,4,5.8,7.7,5.2
		c0.8-0.1,1.7-0.2,2.7-0.2l51.2,8.4c4.1,0.7,8.3,1.3,12.4,2h0c-4.3,13.2-4.1,17.9-15.2,26.7c-18.6,14.8-46.5,12.8-68,5.4
		C119.3,324.9,112.6,322.4,108.8,320.2L108.8,320.2z M128.5,277.9c-6.5,0.7-10,0.4-14.3-2.5c-13.3-9.1-10.2-28.2,2.7-31
		c9.9-2.1,18.1,4.4,20.7,11.8c2.2,6.5,0.8,7.4-2.4,11.8C133,271.1,130.1,275.3,128.5,277.9L128.5,277.9z"/>
	<path fill-rule="evenodd" clip-rule="evenodd" fill="#2B190C" d="M37.6,293.1c3.4,6.6,7.7,13.3,12.1,19c2.2,3,0.7,1,1.8,4.5
		l9.4,3.1c-0.3,0.6,0.2,1.5-2.5,2.3c-3.4,1-7.8-0.4-9-3.9c-1.5-4.8,1.9-0.8-4.3-10.3l-1.3-1.7c0.2,3.7,2.2,5,3.3,8.1
		c1.3,3.9-0.4,5.8,3,8.5c3.3,2.6,9.4,2.5,12.1-0.8l2.6-3c-3.6,9.8-4.6,2.4-6.7,10c4.4,2.3,19.9-2.5,25.2-4.7c2.2-0.9,5.1-2,6.8-3.6
		c-6.4-4.2-12.2-3.3-20.2-3.5c4.1,0,7.2-2,13.8-1.1l10.9,4.3c-6.8,6.1-42.5,20.2-48.9,4.2c-1.8-4.6,1.5-3.2-2.1-10.5
		c-2.1-4.3-5.5-12.9-6.3-17.9C36.7,292.4,37.3,293.5,37.6,293.1L37.6,293.1z M273.6,127c-1.8-3.6-8.3-13.1-10.9-16
		c-4.8-5.3-7.6-9-12.7-13.6C204.1,55.6,163.3,60,130.1,61.7c17.8-2.9,34.4-4,52.5-2c13.8,1.5,31,6.9,44,13.3
		c11.5,5.7,17.1,9.9,26.4,17.1l7.6,6.6c9.4,9.7,18.8,20,24.8,32.3C281,126.3,278.3,123.3,273.6,127L273.6,127z M217.4,295.8l-2-0.2
		c1.6,45.9-58.6,55.9-100.8,34.5c-6.7-3.4-10.3-6-16.3-10c-21.4-14.2-31.7,0.1-41.8-2.9c-4-1.2-2.9-3.7-5.6-7.5
		c-9.7-14-16.3-26.1-23-42.7c-10-24.8-16.6-57.8-12.1-89.6c4.2-29.6,18.2-54,33.7-70.7c8.3-9.1,17.7-17.1,28.6-23.9
		c20.8-12.9,34.6-19.1,59.5-19.1c8.1,0,16.6,0.8,24.2,2c42.6,6.7,76.7,39.5,93.9,63.4c-6,6.5,3.3,16.5,4.4,26.3l2.7-0.4
		c-2.4-8.2-5.1-15.2-6-23.3c-0.4-2.9,5.1,18.7,8.6,22.7c0.5-0.9,0.5,0.3,0.5-1.1c0-0.4-0.3-1.1-0.5-1.6c-0.3-0.9-0.7-1.9-1-2.7
		c-2.9-7.8-3.1-9.5-5.2-17.7c2.4-1,5.3-0.1,7.7-1.2c2.3-1,4.1-2.3,6.6-3.1c-1.7,5.5,3,12.4,5,16.8l6.9,16.1l9.6,0.2
		c-0.3-5.7-6.8-22.2-9-28.6l3.1,0.2l6.4,19.4l7.9,0.8c-0.7-2.6-7.7-18-9.3-21.9c-6,1.4-6.5-3-11.3-10.4c-1.5-2.3-3.1-4.7-4.8-6.9
		c-21.9-29.7-55-49.4-93.5-55.1c-42.1-6.2-83.5,5.2-116.4,28.7c-4.1,3-6.3,5.2-9.5,7.7c-1.2,0.9-2.2,1.6-3.2,2.6
		c-10.7,11-17.6,18.1-25.3,31.9C2.4,178,8.9,234.7,32.7,283.9c2.5,5.2,2.2,2.9,2.1,9.3c-0.2,9.7,8,22.7,8.2,26.2
		c0.2,4.5,0,5.8,2.4,9.1c3,4.2,9.8,6.5,17.3,5.5c15-1.9,22.4-5.3,34.3-12.1c2.3,1.4,3.8,2.8,6,4.2c24.4,16.4,60,24.1,86.9,12.2
		c14.2-6.3,15.3-10.7,22.2-17.9c8.3-0.2,17.7,0.3,25.2-0.5c7.6-0.9,13.9-4.5,20-7.3l-2.6-4.2c-4.5,1.9-10.1,5.6-17.6,6.7
		c-8,1.2-15,0.5-22.4,0.7c2.1-4.7,3-6.5,4.4-14c0.5-2.8,0.8-3.4,0.1-5.7L217.4,295.8z"/>
	<path fill-rule="evenodd" clip-rule="evenodd" fill="#2B190C" d="M266.9,228c-6.2-8.6-2.7-33.6,7.6-36.3l-2.5,3.1
		C266.9,201.6,265.2,219.2,266.9,228L266.9,228z M263.4,166.3c-0.5,11-9,6.7-25.6,11.6c-8.4,2.4-15,6.7-21.3,11.8
		c-0.8,0.7-1.5,1-2.4,1.6l1.2,3l5.2-4c-0.7,1.1,0,0.3-1,1.3l-3.9,3.6l19.5,42.5c0.9-9.6,11.7-15.4,21.1-10.6
		c7.7,3.9,10,13.9,13.1,22.3l4.7-0.4c0-2.9-2.1-8.6-2.7-12.4l-0.9-14.6c10.7,11.9,15.9,13.5,30.3,21.1c-0.3-1.7-2-6.1-2.9-7.9
		c-1.6-3.3-11.1-4.1-24.3-21.4c-2.8-3.6-2.7-3.1-1.2-8.4l7.9-15.2c1.9,1.8,4.7,10.4,6.1,13.4c5.7,12.5,12.2,28.5,17.5,41.4l7.5-0.9
		c-0.2-2.4-10-24.5-11.7-28.7l-12.1-29c1.6-2.1,3.1-3.8,4.8-5.6l-35.1-1.8c7.3-0.7,12.1-3.4,12.1-10.8c0-0.4,0-1.3-0.1-1.6l-1.7-1.5
		c-0.5,0.7-0.3-0.2-0.5,1.1c-0.1,1,1,7.8-4.7,9.5l-13.2,2.3L263.4,166.3z M293.7,178.5c3.8-5,8-10.4,11.2-13.2
		c4.4,1.2,10.3,1.6,12.6-2.9c2.3-4.8-1.7-9.9-3.4-13.1c-3.7-7-8.9-15.6-13-22.6l-5.6,2.3c1,3.7,3.5,7.9,5.1,11.7
		c0.8,1.8,4.1,10.2,5.7,11.4c2.1,1,4.8,0.6,6.7,2c1.7,1.2,2.9,4.3,1.5,7l-15,1.3l-5.8,15.3V178.5z"/>
	<path fill-rule="evenodd" clip-rule="evenodd" fill="#F7ECE6" d="M155.2,243.5c2.6,2.5,6.2,4.4,10,6.8c3.5,2.3,7.3,4.4,10.9,6.5
		c3.1,1.8,7.7,4.1,9,7.8c1.7,5.1-2.8,9.6-6.6,10.2c-4.2,0.7-16.7-8.3-22.4-11.7C145.3,257,146.2,256.8,155.2,243.5L155.2,243.5z
		 M170.2,243.2c3.8,2.1,8.3,5.3,12.1,7.8c4.4,3,9.5,6.3,6.6,12c0-7.9-8.5-10.6-14-14.5l-5.9-4.1L170.2,243.2z M170.2,247.3
		c3.8,2.4,14.3,8.6,16.1,11.8c0.9,1.7,1.6,3.1,0.5,5.1c-2.4-4.5-2.7-4.7-6.9-7.1l-17.7-10.6c-2-1.2-8-4-4.2-7.5
		C164.2,248.6,162.4,242.4,170.2,247.3L170.2,247.3z M160.4,238.7c2.6-4.8,4.6-7.7,7.3-12.1l2.9-3.8l5.1,6l-9.1,14.5L160.4,238.7z
		 M137,270.6c-0.2,1.3-0.6,1.1,0.4,1.1c0,1.2-0.1,0.1,1.2,0.3c2.8-4.7,5.2-8.1,8.3-12.5l6.5,4.6l-0.4,1.4l0.2,0.9
		c-2.6,0,0.1-0.4-1.1,1l0.2,1.4c1.5-0.9,2.1-2.1,2.9-3.5c2.1,0.5,7.7,4.2,9.8,5.5c3.2,2,6.7,4.4,9.8,5.9c-0.2,1.4,2.3,0.7,3.5,0.6
		c8.5-2,15.9-14.7,12.9-21c-2-4.2-15.7-12-20.3-14.9c0.5-1.4,4.4-8,5.7-9.8l1.2-1.2c4.7,4.7,15,15,19.7,19.1c2.3,2,5.2,3.4,7.6,5.4
		c4.6,1.7,2.9,0.8,5.7,8.6l3.9,10.2l-3.8-15.9c4.3,1.3,7.3,2.8,12.2,3.3c0,0-0.3-1.2-0.6-1.5l-0.3,0.2c-0.1-0.1-0.3-0.4-0.4-0.3
		l-1.6-0.7c-7.7-2.2-14-4.8-20.2-10.2c-1.2-1-2.2-1.4-3.2-2.6l-8.3-8.5c-4.5-3.7-12.7-12.8-16.8-17.3l5.4-5.2
		c2.8,3.8,18.2,19.9,20.1,21.2l1.2,1.3l2-0.2l0-0.8c-1.6-0.7-15.4-14.8-16.6-16.5c1.4-2.3,16.8-26.9,17.3-28.4l-1-0.4
		c-3.2,2.4-6.9,9.4-9.2,13.2c-1.4,2.2-2.8,4.6-4.2,6.9c-1.2,2-3.3,4.8-3.9,6.9c-2.9-2-2.5-2.3-6.1-5.5c-0.1-0.1-0.3-0.1-0.3-0.3
		c-0.1-0.2-0.2-0.3-0.3-0.4l15.6-24.1l5.6-7.5l0.4-1.7c-7.2,3.8-18.5,26.3-23.8,33.4c-1.5,2-3.5,1.9-4.4,5c-1.1,3.9,1.1,1-2.7,6.8
		c-1.4,2.1-6.4,10.8-7.4,11.5c-2.2,1.4-2.5-0.1-5,4.4c-2.8,5.1-5.1,7.9-7.3,11.6C143.7,257.3,151,250.7,137,270.6L137,270.6z"/>
	<path fill-rule="evenodd" clip-rule="evenodd" fill="#2B190C" d="M128.5,277.9c1.7-2.6,4.6-6.8,6.8-9.9c3.2-4.4,4.6-5.3,2.4-11.8
		c-2.5-7.4-10.8-13.9-20.7-11.8c-13,2.8-16,21.9-2.7,31C118.5,278.4,122,278.6,128.5,277.9L128.5,277.9z"/>
	<path fill-rule="evenodd" clip-rule="evenodd" fill="#EE4723" d="M178.2,277.3c0.5,0.6,0.1,0.4,1.1,0.7c2.2,0.8,26.9,4.2,27.5,4.2
		c-0.6-5.5-3.4-15.5-4.8-21.2c0.9,1,0.7,0.6,1.3,2.1l3,8c1.2,4.2,2.1,7.7,3.1,11.7l4.2,0.5c-0.1-4.5-2.4-10.8-3.9-14.7
		c-1.7-4.7-3.1-9.4-4.6-13.8c-2.5-2.1-5.3-3.4-7.6-5.4c-4.6-4.1-15-14.4-19.7-19.1l-1.2,1.2c-1.3,1.7-5.2,8.4-5.7,9.8
		c4.6,3,18.2,10.7,20.3,14.9C194.2,262.6,186.7,275.3,178.2,277.3L178.2,277.3z"/>
	<path fill-rule="evenodd" clip-rule="evenodd" fill="#2B190C" d="M231.2,250.9l8,0.5c-0.9-3.1-2.6-6-4-9.2
		c-9.3-21.2-19.9-44.4-30.1-65.3c-10.5-0.9-2.8,11.8-0.5,16.6c7.2,14.8,15,34,21.9,47.9C228.2,244.6,229.3,247.9,231.2,250.9
		L231.2,250.9z"/>
	<path fill-rule="evenodd" clip-rule="evenodd" fill="#2B190C" d="M206.4,174.7L206.4,174.7l0.3,0.1l0.6,1.2
		c0.6,1.2,1.2,2.4,1.7,3.6l1,1.9c8.2-4,3.5-2.6,15.3-7.2c5.6-2.2,11.3-3.8,17.2-5.3c11.6-3.1,24.9-5.9,36.8-8.7
		c2.8-9-10.6-4.5-16.3-3.4C251,159.1,211.8,168.3,206.4,174.7L206.4,174.7z"/>
	<path fill-rule="evenodd" clip-rule="evenodd" fill="#2B190C" d="M364.9,236.6c3.1,3.6,4.9,4.9-0.4,9.3l6.4,20.9l0.2,0.1
		c2.9,0.2,5.7,1,7.4,3.1c0.6,0.7,1,1.6,1.1,2.5c0.1,0.5,0.2,1,0.2,1.5c0,0.2,0,0.4,0,0.6c0,1.2-0.3,2.4-0.9,3.5
		c-0.4,0.7-0.9,1.3-1.5,1.9c-0.2,0.3-0.5,0.6-0.8,0.8c-0.6,0.5-0.5,0.5-0.9,0.9l5.1,35c7.2,3.2,4,1.6,7.2,5.1l-6.5-47.7
		c-1.8-7.2-3.8-14.4-6-21.2C373.5,247,371.7,236.6,364.9,236.6L364.9,236.6z"/>
	<path fill-rule="evenodd" clip-rule="evenodd" fill="#2B190C" d="M228.6,250.6c-4.9-9.5-14.2-31.4-19.8-43.3
		c-4.2,6.6-3.8,21.9-2.6,30.2c0.7,5.1,0.4,4.7,2.7,6.3C213.6,247.3,222.6,250.9,228.6,250.6L228.6,250.6z"/>
	<path fill-rule="evenodd" clip-rule="evenodd" fill="#EE4723" d="M200.4,236.6c0.7-6.1-0.7-13.5,0.4-20.1c0.6-3.5,2.8-12,5.5-14.5
		c-0.6-2.1-1.5-3.3-2.2-5.2c-0.4-1-0.6-1.5-1.1-2.6c-0.8-1.6-0.5-1.6-1.8-2.3c-0.6,1.5-16,26.1-17.3,28.4
		C185,221.8,198.8,235.9,200.4,236.6L200.4,236.6z"/>
	<path fill-rule="evenodd" clip-rule="evenodd" fill="#2B190C" d="M213.6,283.4l3.5,0.7c0.8,0.1,1.5,0.3,2.3,0.4l0.8-0.9
		c0.1-0.1,0.4-0.4,0.5-0.5c4.4-4.2,13.7-13.9,13.4-20c-2-0.1-3.9-0.2-5.9-0.4c-2.8-0.3-6.1-0.7-8.8-1.6c-3-1-5.8-2-8.5-3.1l3.8,15.8
		l-3.9-10.2c-1.4-3.9-1.6-5.6-2.1-6.5c-1.2-0.5-2.3-1.1-3.4-1.8c1.4,4.3,2.8,9,4.5,13.5C211.2,272.6,213.5,278.9,213.6,283.4
		L213.6,283.4z"/>
	<path fill-rule="evenodd" clip-rule="evenodd" fill="#2B190C" d="M316,279.6l-3.2-7.9c-5.5-1-33.1-5.4-36.1-6.4l-0.4-4.4
		c-0.9,0.1-1.7,0.2-2.6,0.3c-0.8,0.1-1.6,0.2-2.4,0.3c0.7,13.1,0.2,11.4-1.6,25c1.8-0.2,3.6-0.4,5.4-0.6l2-12.7L316,279.6z"/>
	<path fill-rule="evenodd" clip-rule="evenodd" fill="#46120F" d="M210.7,294.6l-2.7-0.4l-1.2,0.1c-4.3,13.2-4.1,17.9-15.2,26.7
		c-18.6,14.8-46.5,12.8-68,5.4c-4.4-1.5-11.4-4.1-15.1-6.4c-2.6-1.6-11.6-6.3-14.3-6.9l1.8,1.6c9.1,5.2,17.2,10.1,27.5,14
		c10.8,4.1,24.8,7.5,37.9,6c13.7-1.7,24.6-4.2,33.4-11.3C204.9,315.1,208.7,307.6,210.7,294.6L210.7,294.6z"/>
	<path fill-rule="evenodd" clip-rule="evenodd" fill="#2B190C" d="M174.1,260c9.1,0.9,9.3,7.3,7.4,10.2c-1.1,1.7-4.3,2.8-7.3,2
		l-5.2-4.9c-3.9,0-5.2-0.3-7.2-2.7C156.7,257.9,167.3,248.6,174.1,260L174.1,260z M155.2,243.5c-9,13.3-9.9,13.6,0.7,19.7
		c5.8,3.4,18.3,12.4,22.4,11.7c3.8-0.6,8.3-5.1,6.6-10.2c-1.2-3.7-5.8-6-9-7.8c-3.5-2.1-7.3-4.2-10.9-6.5
		C161.3,247.9,157.8,246,155.2,243.5L155.2,243.5z"/>
	<path fill-rule="evenodd" clip-rule="evenodd" fill="#F7ECE6" d="M49.7,312.1c-4.3-5.8-8.7-12.4-12.1-19c-0.3,0.4-0.9-0.7-0.3,2.9
		c0.8,5,4.1,13.6,6.3,17.9c3.6,7.3,0.3,5.9,2.1,10.5c6.5,16,42.1,1.9,48.9-4.2l-10.9-4.3c-6.6-0.9-9.7,1.1-13.8,1.1
		c8,0.1,13.8-0.8,20.2,3.5c-1.7,1.7-4.6,2.7-6.8,3.6c-5.3,2.2-20.7,7.1-25.2,4.7c2.1-7.6,3.1-0.1,6.7-10l-2.6,3
		c-2.7,3.3-8.8,3.4-12.1,0.8c-3.4-2.7-1.8-4.6-3-8.5c-1-3.2-3-4.4-3.3-8.1l1.3,1.7c6.3,9.6,2.8,5.5,4.3,10.3c1.1,3.6,5.5,4.9,9,3.9
		c2.7-0.8,2.2-1.7,2.5-2.3l-9.4-3.1C50.4,313.1,51.9,315.1,49.7,312.1L49.7,312.1z"/>
	<path fill-rule="evenodd" clip-rule="evenodd" fill="#EE4723" d="M214.4,191c0.7-0.5,1.3-0.8,2-1.4c6.3-5.1,12.9-9.4,21.3-11.8
		c16.6-4.8,25.1-0.5,25.6-11.6c-7.9,0.6-32.6,7.6-40.7,11.2l-11.9,5.9C212,185.9,213.2,188.5,214.4,191L214.4,191z"/>
	<path fill-rule="evenodd" clip-rule="evenodd" fill="#2B190C" d="M200.1,191.4l0.3-1.2c0,0,0-0.1,0-0.1c-0.3-0.7-0.7-1.4-1-2.1
		c-0.9-2-1.9-4.7-2-7.1c0-0.1-0.1-0.2-0.1-0.3l-5.6,7.5l-15.6,24.1c0.1,0.1,0.2,0.1,0.3,0.4c0,0.2,0.2,0.3,0.3,0.3
		c3.6,3.2,3.2,3.5,6.1,5.5c0.6-2.1,2.8-4.9,3.9-6.9c1.3-2.2,2.8-4.7,4.2-6.9C193.3,200.8,196.9,193.8,200.1,191.4L200.1,191.4z"/>
	<path fill-rule="evenodd" clip-rule="evenodd" fill="#2B190C" d="M368.5,322.7c-0.5-1.3-2-3-3.7-2.9l8.3,2.5l-11.2,4.5l-0.3,7.7
		c9.2-2.4,19.6-3.7,24.3-9.1l-2.8-6c-2.1,2-3,4.7-7.6,5.4l4.2-5.3l-18-5.4l0.4,7.7L368.5,322.7z"/>
	<path fill-rule="evenodd" clip-rule="evenodd" fill="#2B190C" d="M324.4,292.7c3.4,7.2,17,21.3,25.3,23.8l-0.5-8.6
		c-4.3-3.5-5.3-4.1-9.4-8.1c-2.5-2.5-5.7-5.6-7.7-9.1l-6.4,1.2C323,292.8,325.4,291.9,324.4,292.7L324.4,292.7z"/>
	<path fill-rule="evenodd" clip-rule="evenodd" fill="#2B190C" d="M235.9,263.1c1.3,4.7,9.3,20.3,11.4,25c2.7-0.1,5.4-0.2,8.1-0.4
		l-10.9-24.5c-2.6,0-5.3,0-7.9,0C236.4,263.1,236.2,263.1,235.9,263.1L235.9,263.1z"/>
	<path fill-rule="evenodd" clip-rule="evenodd" fill="#2B190C" d="M353.7,272.8c0.9,2.2,1.4,1.6,4.2,0.9c4.9-1.1,11.8-3.7,14.1-1.8
		l-16.9,4.7l1.9,6.8c10.1-2,22.1-2.3,20.3-10.5C375.7,265.3,355.7,271.1,353.7,272.8L353.7,272.8z"/>
	<path fill-rule="evenodd" clip-rule="evenodd" fill="#2B190C" d="M325.9,278.4c-3-6.5-8.1-16.3-9.8-23.3l-7.5,1.2l9.7,23.3
		C320.8,279.2,323.4,278.8,325.9,278.4L325.9,278.4z"/>
	<path fill-rule="evenodd" clip-rule="evenodd" fill="#2B190C" d="M138.5,272.1c-1.1,1.2-1.5,2.3-2.5,3.6c-3,4.5,0.8,6.4,3.4,6.4
		c4.9,0.1,9.3-13.6,13.5-16.5l0.4-1.4l-6.5-4.6C143.8,264,141.3,267.4,138.5,272.1L138.5,272.1z"/>
	<path fill-rule="evenodd" clip-rule="evenodd" fill="#2B190C" d="M268.8,130.5l5.6,22c8.3-0.7,10.1,8.9,2.7,11.1
		c-1.7,0.5-0.5-0.2-2.6,1.2c2.5,4,7.7,2,8.8-1.7c1.3-4.4-1.2-8.8-2.8-12.1l-1.8-4.7l-0.9-2.1c-0.5-1.2-1.1-2.3-1.7-3.4
		c-0.7-1.3-1.4-2.7-2-4.1c-0.9-2.1-1.7-4.4-1.8-6.7l-0.4-1.1C270.7,129.5,269.6,129.9,268.8,130.5L268.8,130.5z"/>
	<path fill-rule="evenodd" clip-rule="evenodd" fill="#2B190C" d="M160.4,238.7l6.3,4.5l9.1-14.5l-5.1-6l-2.9,3.8
		C165,231,163,233.9,160.4,238.7L160.4,238.7z"/>
	<path fill-rule="evenodd" clip-rule="evenodd" fill="#2B190C" d="M342.3,241.7l2.7,6.3c3.9-0.6,8-1.4,11.7-2.3
		c3.4-0.8,9.7-1.3,8.2-5.9C363.3,235,352.2,240.9,342.3,241.7L342.3,241.7z"/>
	<path fill-rule="evenodd" clip-rule="evenodd" fill="#EE4723" d="M152.3,268.9l-2.1,4.3c2.4,1.1,22.9,4.2,24.6,3.6
		c-3.1-1.5-6.6-3.9-9.8-5.9c-2.1-1.3-7.7-5-9.8-5.5C154.4,266.8,153.8,268,152.3,268.9L152.3,268.9z"/>
	<path fill-rule="evenodd" clip-rule="evenodd" fill="#2B190C" d="M297,159.8l14.4,1.7c2.5-1.9,2.2-2.9,1.1-5.9
		c-4.4-1.6-11.7-2-17.1-2.7L297,159.8z"/>
	<path fill-rule="evenodd" clip-rule="evenodd" fill="#F7ECE6" d="M172.4,264.9l2.2-3.7l6.5,3.5l-0.3,4.3
		C176.7,270.7,173.3,268.9,172.4,264.9L172.4,264.9z M173.9,269.4c2,1.5,2.6,0.4,4.5,1.8c-8.1-1.4-6.6-0.4-9-5.1
		c-5.2,0.3-8.1-1.2-7.6-6.9c1.9,1.2,8.9,5.2,9.8,6.7c0.1,0.1,0.3,0.6,0.4,0.7c0.3,0.5,0.2,0.6,0.5,1
		C172.9,268.5,173.2,268.8,173.9,269.4L173.9,269.4z M168.7,256.2l4.2,5.8l-4.9,2.4l-0.3-1.7l1.7-0.9l-1.9-1.1L168.7,256.2z
		 M166,263.6c-1.8-0.9-2.8-2-2.9-4.5c-0.1-2.8,1-3,3.6-3.3c-1,4.3-0.5,3.4-1.7,4.3L166,263.6z M174.1,260
		c-6.9-11.4-17.4-2.1-12.3,4.5c1.9,2.5,3.3,2.7,7.2,2.7l5.2,4.9c3,0.8,6.1-0.3,7.3-2C183.5,267.3,183.2,261,174.1,260L174.1,260z"/>
	<path fill-rule="evenodd" clip-rule="evenodd" fill="#2B190C" d="M186.8,264.2c1.1-2,0.4-3.5-0.5-5.1c-1.7-3.1-12.3-9.4-16.1-11.8
		c-7.8-5-6,1.3-12.3-8.4c-3.7,3.5,2.3,6.3,4.2,7.5l17.7,10.6C184,259.5,184.3,259.8,186.8,264.2L186.8,264.2z"/>
	<path fill-rule="evenodd" clip-rule="evenodd" fill="#2B190C" d="M200.4,236.6l0,0.8l3.6,2.7c-0.5-6.7-1.9-11.4-1.1-19l4.8-16.5
		l-1.3-2.6c-2.7,2.6-4.9,11-5.5,14.5C199.6,223.1,201.1,230.5,200.4,236.6L200.4,236.6z"/>
	<path fill-rule="evenodd" clip-rule="evenodd" fill="#46120F" d="M126.3,303.2c10.4,0.6,13.2-2.7,23.8-8.5
		c-4.9,1-20.5,11.2-36.8,3.1l-10.2-5.6c0.6,1.8-0.5,0.2,1,1.7c0.4,0.4,0.9,0.8,1.4,1.2C111,299.5,119.2,302.9,126.3,303.2
		L126.3,303.2z"/>
	<path fill-rule="evenodd" clip-rule="evenodd" fill="#F7ECE6" d="M266.9,228c-1.7-8.7,0-26.4,5.1-33.2l2.5-3.1
		C264.2,194.3,260.8,219.4,266.9,228L266.9,228z"/>
	<path fill-rule="evenodd" clip-rule="evenodd" fill="#2B190C" d="M325.5,272.9l2.2,5.2c4.4-0.7,8.8-1.4,13.2-2.1l-1-3L325.5,272.9z
		"/>
	<path fill-rule="evenodd" clip-rule="evenodd" fill="#2B190C" d="M313.3,243.9l16.1-2.3c0.6-0.7,1.3-1.7,1.9-2.3
		c-7.2-0.3-12.9-0.2-20.2-0.7L313.3,243.9z"/>
	<path fill-rule="evenodd" clip-rule="evenodd" fill="#63110C" d="M178.6,301.9l-0.1,0.9l-1.3,0.4c-1.7,1.2-2.2,2.6-5.1,1.9
		c-2.1-0.5-2-1.6-3-3.3l-1.1-0.4l-0.2-1.3c-0.4-2.5-0.4-4.8,1.3-6.7c1.3-1.5,3.5-2.6,6.2-2C179.7,292.4,182,296.3,178.6,301.9
		L178.6,301.9z M173.1,306.4c9.9,0,12.3-16,1.6-16.5c-6.8-0.3-11.3,6.5-6.3,13.2C169.8,305,170.2,306.4,173.1,306.4L173.1,306.4z"/>
	<path fill-rule="evenodd" clip-rule="evenodd" fill="#2B190C" d="M109.8,307.1c-1.4-1.4-1-0.3-2.3-1.8c0.2-1.8,4.4-0.3,4.6,3.7
		C110.2,308.3,111.1,308.3,109.8,307.1L109.8,307.1z M103.6,305.3l-0.1,0.1c0.1,1.8,0.5,1.5-1,1.5l0.3,1.2c1.8-2.2,4.2-2.5,6.5-0.1
		l0.3,6.6c-5.8,0.5-4.9-1.7-6.9-3.4c0.1,2.2,0.2,0.5,0.7,2.4c3.5,1.5,3.8,2.9,8.7,1.2c0.1-0.1,0.2-0.3,0.3-0.4l1.2-1.2
		c-1.1-0.4-0.9,0.8-0.9-0.4c1.9-2.9,0.6-5.9-1.4-7.7C108.1,302.2,105.9,303.9,103.6,305.3L103.6,305.3z"/>
	<path fill-rule="evenodd" clip-rule="evenodd" fill="#2B190C" d="M182.3,251c-3.7-2.5-8.3-5.7-12.1-7.8l-1.3,1.2l5.9,4.1
		c5.5,3.9,14,6.7,14,14.5C191.8,257.3,186.7,254,182.3,251L182.3,251z"/>
	<path fill-rule="evenodd" clip-rule="evenodd" fill="#2B190C" d="M172.4,264.9c0.9,4,4.3,5.8,8.4,4.1l0.3-4.3l-6.5-3.5L172.4,264.9
		z"/>
	<path fill-rule="evenodd" clip-rule="evenodd" fill="#2B190C" d="M264.8,132.6l5.4,20.7l2.3-0.6c0.5-1.5-2.2-7.3-3-9.7l-2.4-11.7
		C266.1,131.8,265.9,131.6,264.8,132.6L264.8,132.6z"/>
	<path fill-rule="evenodd" clip-rule="evenodd" fill="#F7ECE6" d="M281.5,140.2l2.8,5c-0.8-0.2-1.3,0-2.1-1.8
		C281.8,142.3,281.8,141.4,281.5,140.2L281.5,140.2z"/>
	<path fill-rule="evenodd" clip-rule="evenodd" fill="#312416" d="M169.4,266.1c2.5,4.7,0.9,3.7,9,5.1c-2-1.4-2.5-0.3-4.5-1.8
		c-0.7-0.5-1-0.9-1.5-1.7c-0.3-0.5-0.3-0.6-0.5-1c-0.1-0.1-0.3-0.6-0.4-0.7c-0.9-1.5-7.9-5.5-9.8-6.7
		C161.3,264.9,164.2,266.4,169.4,266.1L169.4,266.1z"/>
	<path fill-rule="evenodd" clip-rule="evenodd" fill="#46120F" d="M102.5,306.9c1.5,0,1.1,0.3,1-1.5l0.1-0.1
		c0.5-0.7,2.9-6.8,8.3-1.8c5.2,4.8,2,8.1,1.8,9.7l-1.2,1.2c-0.1,0.1-0.2,0.3-0.3,0.4c3.4-0.8,4.6-3.3,4.2-6.9
		c-0.3-2.4-1.7-4.5-3.4-6C110.5,299.7,102.7,297.7,102.5,306.9L102.5,306.9z"/>
	<path fill-rule="evenodd" clip-rule="evenodd" fill="#2B190C" d="M175.8,294.3l1.8,3c-5.4-2.1-3-1.3-5.9-1.1
		c-2.2,0.2-0.6,0.1-1.4-0.3C171.6,293.7,173.4,294.1,175.8,294.3L175.8,294.3z M167.9,300.3l0.2,1.3l1.1,0.4c0.2-3.2,1.2-5.4,4.9-5
		c3.4,0.4,3.6,3.1,3.2,6.3l1.3-0.4l0.1-0.9c-0.1-0.9,2.2-7.9-4-8.7C168.4,292.5,168.4,299.1,167.9,300.3L167.9,300.3z"/>
	<path fill-rule="evenodd" clip-rule="evenodd" fill="#46120F" d="M206.8,282.3l2.6,0.5c-1-4.1-1.9-7.5-3.1-11.7l-3-8
		c-0.6-1.5-0.4-1.1-1.3-2.1C203.4,266.8,206.2,276.8,206.8,282.3L206.8,282.3z"/>
	<path fill-rule="evenodd" clip-rule="evenodd" fill="#F7ECE6" d="M167.9,300.3c0.5-1.2,0.5-7.8,6.8-7c6.2,0.8,3.9,7.8,4,8.7
		c3.4-5.6,1.1-9.5-3.3-10.4c-2.7-0.6-4.9,0.6-6.2,2C167.4,295.4,167.5,297.8,167.9,300.3L167.9,300.3z"/>
	<path fill-rule="evenodd" clip-rule="evenodd" fill="#2B190C" d="M171,301.2c1.6,1,2.9,1.2,4.9,0.4c-0.5,1.4-1,2.2-2.8,2.1
		C171.3,303.5,171.2,302.8,171,301.2L171,301.2z M171.5,304.1c6.5,1.1,5.8-4.9,3.4-6C171.2,296.4,168.1,300.3,171.5,304.1
		L171.5,304.1z"/>
	<path fill-rule="evenodd" clip-rule="evenodd" fill="#2B190C" d="M282.6,166.6c6.4,0.3,6.5-0.5,11.2-3.5c-1.9,0-7.6-0.7-8.8,0.5
		c-0.4,0.4-0.5,0.7-0.9,1.2C283.5,165.6,283.2,165.8,282.6,166.6L282.6,166.6z"/>
	<path fill-rule="evenodd" clip-rule="evenodd" fill="#F7ECE6" d="M103.6,305.3c2.3-1.4,4.5-3.1,7.8-0.3c2.1,1.8,3.3,4.8,1.4,7.7
		c0,1.2-0.2,0,0.9,0.4c0.2-1.6,3.4-4.9-1.8-9.7C106.5,298.5,104.1,304.6,103.6,305.3L103.6,305.3z"/>
	<path fill-rule="evenodd" clip-rule="evenodd" fill="#2B190C" d="M104.6,308.7c1.9,1.1,0.4,0.8,3.8,3.5l0.6,0.5
		c0,0-0.8,1.7-3.2-0.4C104.7,311.3,104.4,310.2,104.6,308.7L104.6,308.7z M109.7,313.3c1.5-4.6-4.2-7.8-5.9-5.2
		C101.8,311.2,106.8,315.5,109.7,313.3L109.7,313.3z"/>
	<path fill-rule="evenodd" clip-rule="evenodd" fill="#F7ECE6" d="M171.5,304.1c-3.4-3.8-0.3-7.7,3.4-6
		C177.4,299.2,178.1,305.2,171.5,304.1L171.5,304.1z M169.1,301.9c1,1.7,0.9,2.8,3,3.3c3,0.7,3.5-0.7,5.1-1.9
		c0.4-3.3,0.2-5.9-3.2-6.3C170.3,296.5,169.3,298.7,169.1,301.9L169.1,301.9z"/>
	<polygon fill-rule="evenodd" clip-rule="evenodd" fill="#2B190C" points="167.5,260.6 169.3,261.8 167.6,262.7 167.9,264.3 
		172.8,261.9 168.7,256.2 	"/>
	<path fill-rule="evenodd" clip-rule="evenodd" fill="#2B190C" d="M265.7,304.7c1.4-1.5,2.8-3,3.7-5.1l-6,0.6
		C263.9,302,264.7,303.3,265.7,304.7L265.7,304.7z"/>
	<path fill-rule="evenodd" clip-rule="evenodd" fill="#2B190C" d="M166,263.6l-1-3.4c1.2-0.9,0.7,0,1.7-4.3
		c-2.6,0.3-3.7,0.5-3.6,3.3C163.2,261.6,164.2,262.7,166,263.6L166,263.6z"/>
	<path fill-rule="evenodd" clip-rule="evenodd" fill="#F7ECE6" d="M109.7,313.3c-2.9,2.2-7.9-2.1-5.9-5.2
		C105.5,305.5,111.2,308.7,109.7,313.3L109.7,313.3z M102.8,308.1l-0.1,3.1c2,1.8,1.1,4,6.9,3.4l-0.3-6.6
		C107,305.6,104.7,305.9,102.8,308.1L102.8,308.1z"/>
	<path fill-rule="evenodd" clip-rule="evenodd" fill="#F7ECE6" d="M170.4,295.9c0.8,0.4-0.7,0.5,1.4,0.3c2.8-0.3,0.5-1,5.9,1.1
		l-1.8-3C173.4,294.1,171.6,293.7,170.4,295.9L170.4,295.9z"/>
	<path fill-rule="evenodd" clip-rule="evenodd" fill="#F7ECE6" d="M108.4,312.2c-3.3-2.7-1.8-2.4-3.8-3.5c-0.2,1.6,0.1,2.7,1.1,3.6
		c2.4,2.1,3.2,0.4,3.2,0.4L108.4,312.2z"/>
	<path fill-rule="evenodd" clip-rule="evenodd" fill="#F7ECE6" d="M107.5,305.3c1.3,1.5,0.8,0.4,2.3,1.8c1.3,1.2,0.4,1.2,2.3,1.9
		C111.9,305,107.7,303.5,107.5,305.3L107.5,305.3z"/>
	<path fill-rule="evenodd" clip-rule="evenodd" fill="#F7ECE6" d="M175.9,301.6c-2,0.8-3.3,0.6-4.9-0.4c0.2,1.6,0.3,2.3,2.1,2.5
		C174.9,303.8,175.4,303,175.9,301.6L175.9,301.6z"/>
	<path fill-rule="evenodd" clip-rule="evenodd" fill="#312416" d="M281.5,140.2c0.3,1.1,0.3,2,0.7,3.2c0.8,1.8,1.3,1.7,2.1,1.8
		L281.5,140.2z"/>
	<path fill-rule="evenodd" clip-rule="evenodd" fill="#312416" d="M338.9,239.2l1.8-0.7C337.8,239,339.9,238.5,338.9,239.2
		L338.9,239.2z"/>
	<path fill-rule="evenodd" clip-rule="evenodd" fill="#2B190C" d="M236.7,260.8c22.3,0.5,48.9-3.3,71.2-6.6l26.9-4.4
		c3,9.4,6,18.8,9,28.1c-32.4,4.8-64.6,11.4-98.7,12.5c-8.2,0.2-89.4-15.4-95.5-15.3l-4.8,6.8l49.7,8.1c8.3,1.4,16.7,2.7,24.8,4
		c8.2,1.3,16.3,2.9,24.6,3.8c18.9,1.9,57-3.9,77.7-7.4c4.8-0.8,20.7-4.6,24.3-3.9l5.3,41.1c-1.3,1.2-1,1.2-2.8,1.7
		c-16.9,4.6-36,5.2-52.5,0.1c-4.4-1.3-7.7-3-11.4-4.8c-16.3-8.2-20.6-21.2-23.2-24.2l-8,0.1c5.1,10.2,5.8,13.3,13.9,21.5
		c19.1,19.1,58.4,22.6,82.3,14.8c5.7-1.9,3.5,0.5,7.2-0.7c7.8-2.5-1-47.2-2.4-52.8c-3.3-13.4-7.7-26.1-13.7-38.3
		c-0.8-1.7-2.7-6.6-7.6-3.8c-1.3,0.8-1.4,2-2,2.3l-17.4,3c-16.2,2.5-37.9,4.8-54.2,6.3c-22.8,2.1-47.6,2.3-62.6-16.3
		c-1.9-1.4-17.3-17.4-20.1-21.2c-5.2-1.2-5.9,1.5-5.4,5.2c4.1,4.4,12.3,13.5,16.8,17.3l8.3,8.5c1,1.1,2,1.5,3.2,2.6
		c6.2,5.4,12.5,8,20.2,10.2C224.1,260.5,232.4,260.7,236.7,260.8L236.7,260.8z"/>
	<path fill-rule="evenodd" clip-rule="evenodd" fill="#FFFFFF" d="M278.4,130.7c1.6-1,4.2,0.6,5.8,3.5c1.2,2.1,1.5,4.4,0.9,5.8
		c0.9,0.7,1.8,1.7,2.5,3c1.6,2.9,1.6,6.1,0,7.1c-1.6,1-4.2-0.6-5.8-3.5c-1.2-2.1-1.5-4.4-0.9-5.8c-0.9-0.7-1.8-1.7-2.5-3
		C276.8,134.9,276.8,131.7,278.4,130.7L278.4,130.7z M279,132.9c0.4-0.2,1.3,0.9,2,2.4c0.7,1.5,0.9,2.9,0.6,3.1
		c-0.4,0.2-1.3-0.9-2-2.4C278.9,134.4,278.6,133,279,132.9L279,132.9z M283.1,142.5c0.4-0.2,1.3,0.9,2,2.4c0.7,1.5,0.9,2.9,0.6,3.1
		c-0.4,0.2-1.3-0.9-2-2.4C282.9,144,282.7,142.7,283.1,142.5L283.1,142.5z"/>
</g>
</svg>
