<svg xmlns="http://www.w3.org/2000/svg" viewBox="0 0 190.08 83.82"><title>Los Angeles Chargers logo</title><path d="M606.65,553.91c-10.54-14.19-28.94-31.53-50.85-41.27L560.28,523c-18.64-9.39-39.35-16.12-62.83-16l5,5.42c-43.38,1.7-68.82,23.21-85.49,41.55.39-24.84,18.19-47.27,41.63-61l-4.83-4.48c17.45-12.08,41.92-15.46,62.58-13.08l-2.94-5.3c68.42,5.08,97.4,56.15,93.25,83.82" transform="translate(-416.96 -470.09)" style="fill:#fff"/><path d="M497.12,510.26l-5.26-5.69c19.92-.66,40.06,2.34,63.49,13.35L551,508c17.64,6.83,37.18,19.59,53.57,39.38-1.44-30-31.7-68.78-86.73-74.33l3.06,5.52c-22.24-3.78-47.23.15-63.14,10.29l5,4.62c-23.94,12.84-39.67,33.26-43,53.9,19.76-20.64,45.45-34.89,77.39-37.09" transform="translate(-416.96 -470.09)" style="fill:#0080c6"/><path d="M596,531.26c-9.33-25.1-37.37-46.74-68.86-51.92l3.7,6.59c-19-5.87-46.52-5.51-64.64,3.94l5.2,4.82C454.82,501.81,437.3,517,430.37,531c11.37-10.26,36.11-22.13,56.41-24.65l-5-5.46c19.51-3.87,45.51,0,64,7.49l-3.6-8.29c13.65,2.8,39,15,53.84,31.13" transform="translate(-416.96 -470.09)" style="fill:#ffc20e"/></svg>