<?xml version="1.0" encoding="utf-8"?>
<svg version="1.1" id="svg2" width="1066.6667" height="800" viewBox="409.618 326.335 247.431 166.027" xmlns="http://www.w3.org/2000/svg">
  <defs id="defs6">
    <clipPath clipPathUnits="userSpaceOnUse" id="clipPath16">
      <path d="M 0,600 H 800 V 0 H 0 Z" id="path14"/>
    </clipPath>
  </defs>
  <g id="g8" transform="matrix(1.3333333,0,0,-1.3333333,0,800)">
    <g id="g10">
      <g id="g12" clip-path="url(#clipPath16)">
        <g id="g18" transform="translate(412.54,343.4443)">
          <path d="M 0,0 -7.484,-7.983 C 4.828,-2.414 31.629,7.449 31.629,7.449 l -8.566,-8.588 c 23.486,7.93 41.29,12.035 41.29,12.035 0,0 -5.084,-11.934 -12.711,-23.993 1.476,0.243 11.192,1.865 11.192,1.865 0,0 -8.671,-14.543 -18.744,-25.212 l 5.657,-1.068 c 0,0 -8.746,-12.802 -20.387,-23.451 -16.657,-15.358 -25.329,-13.55 -25.329,-13.55 -12.422,-9.391 -22.416,-5.451 -22.416,-5.451 0,0 4.203,10.782 -0.215,11.615 -4.083,0.843 -10.171,-2.523 -10.915,-3.81 -0.742,-2.695 -4.058,-9.598 -7.474,-13.864 -6.562,-8.191 -13.909,-11.762 -13.909,-11.762 0,0 -5.814,4.514 -5.93,12.608 0,0 -3.917,-4.246 -10.382,-5.907 -4.537,-1.203 -10.724,-0.735 -17.047,4.02 -4.308,3.234 -5.176,14.762 -5.176,14.762 0,0 3.938,7.564 11.597,14.407 -1.732,1.344 -2.786,3.069 -3.094,4.154 20.382,9.678 20.37,17.944 36.543,28.798 C -28.399,-14.246 -18.356,-9.163 0,0" style="fill:#bacad3;fill-opacity:1;fill-rule:nonzero;stroke:none" id="path20"/>
        </g>
        <g id="g22" transform="translate(402.6113,335.9473)">
          <path d="M 0,0 -6.393,-6.828 C 6.289,-0.77 33.047,9.454 33.047,9.454 L 25.293,1.673 c 27.459,9.624 44.92,13.316 44.92,13.316 0,0 -5.622,-12.569 -13.147,-23.42 3.634,0.556 11.323,1.785 11.323,1.785 0,0 -7.611,-12.809 -18.822,-23.917 1.227,-0.109 6.395,-0.969 6.395,-0.969 0,0 -6.774,-10.168 -18.572,-20.823 -15.042,-13.605 -21.821,-12.408 -21.821,-12.408 0,0 0.17,0.503 0.107,1.287 0.029,0.43 -0.07,0.825 -0.081,0.863 -11.574,-11.252 -21.317,-8.115 -21.317,-8.115 0,0 4.227,10.306 -2.429,12 -5.12,1.331 -12.914,-3.126 -13.546,-5.319 -0.636,-2.416 -3.894,-9.139 -7.077,-13.139 -5.579,-6.972 -11.755,-10.339 -11.755,-10.339 0,0 -5.635,3.91 -3.751,16.284 0.384,2.701 -0.178,3.731 -0.471,4.128 -0.965,1.325 -8.154,-0.518 -9.881,-4.493 -1.207,-2.832 5.977,-4.771 5.977,-4.771 0,0 -3.299,-3.72 -9.082,-5.177 -3.623,-0.85 -9.267,-0.916 -15.189,3.721 -3.505,2.741 -4.304,12.615 -4.304,12.615 0,0 4.275,7.886 12.626,14.91 -1.656,0.998 -2.939,2.708 -3.242,3.38 16.924,7.907 19.156,18.029 38.234,30.175 C -20.742,-11.106 -11.365,-5.482 0,0" style="fill:#004d55;fill-opacity:1;fill-rule:nonzero;stroke:none" id="path24"/>
        </g>
        <g id="g26" transform="translate(447.8984,303.7666)">
          <path d="m 0,0 c 0.68,-0.094 3.447,-0.429 5.021,-0.98 -5.77,-9.427 -23.1,-28.246 -32.788,-29.498 -0.144,1.617 -0.749,2.89 -1.538,3.757 -3.586,-6.637 -14.714,-11.153 -19.366,-10.383 5.507,20.261 -18.293,11.43 -20.096,5.875 -4.591,-14.454 -16.639,-21.695 -16.639,-21.695 0,0 -3.887,4.026 -2.303,13.651 1.188,7.091 -3.402,6.62 -3.402,6.62 -1.862,0.045 -8.823,-1.145 -11.004,-5.963 -1.741,-3.863 4.463,-6.236 4.463,-6.236 0,0 -8.876,-7.354 -19.32,0.671 -2.549,2.007 -3.574,10.829 -3.574,10.829 4.948,8.248 11.487,13.668 14.207,15.695 -2.892,0.953 -3.795,2.326 -3.795,2.326 13.893,6.919 19.252,17.467 31.069,25.673 13.021,9.065 22.977,13.743 22.977,13.743 l -3.726,-4.829 c 0,0 3.139,1.473 4.484,2.225 12.424,6.519 33.476,14.021 33.476,14.021 l -6.531,-6.471 c 0,0 10.862,4.157 24.578,7.68 7.294,1.881 22.567,5.764 22.567,5.764 0,0 -3.537,-10.366 -11.086,-21.14 4.61,0.557 9.571,1.058 9.571,1.058 C 17.245,22.393 11.963,11.719 0,0" style="fill:#000114;fill-opacity:1;fill-rule:nonzero;stroke:none" id="path28"/>
        </g>
        <g id="g30" transform="translate(391.165,314.7275)">
          <path d="m 0,0 c -0.168,-0.074 -0.273,-0.128 -0.449,-0.22 0.145,0.092 0.262,0.151 0.409,0.213 L 0,0" style="fill:#000114;fill-opacity:1;fill-rule:nonzero;stroke:none" id="path32"/>
        </g>
        <g id="g34" transform="translate(390.6035,314.5244)">
          <path d="M 0,0 C 0.07,-0.022 0.07,-0.022 0.112,-0.017 0.07,-0.022 0.07,-0.022 0,0" style="fill:#000114;fill-opacity:1;fill-rule:nonzero;stroke:none" id="path36"/>
        </g>
        <g id="g38" transform="translate(407.2246,291.4854)">
          <path d="m 0,0 c 0,0 -6.682,2.807 -17.188,-1.046 0,0 14.427,9.066 32.795,6.479 -11.912,3.19 -22.64,0.839 -28.936,-1.551 -3.708,-1.573 -5.926,-2.791 -5.926,-2.791 0,0 0.934,0.687 2.698,1.778 4.26,3.266 10.14,6.864 15.95,9.507 4.042,1.79 12.098,4.304 15.375,4.646 0,0 -8.43,0.941 -16.137,-1.304 0,0 12.144,5.217 23.981,6.08 3.986,0.233 13.04,0.268 13.04,0.268 -13.089,3.071 -26.651,3.126 -35.906,1.284 -5.236,-1.487 -9.417,-2.979 -9.417,-2.979 0,0 0.755,0.36 2.149,1.02 3.302,2.09 16.952,9.922 42.347,15.042 0,0 -3.224,0.203 -7.204,10e-4 -4.05,-0.207 -12.089,-1.941 -12.089,-1.941 5.81,2.835 16.716,5.901 30.211,7.827 0,0 -20.659,1.327 -45.584,-7.493 -0.234,-0.09 -0.316,-0.161 -0.316,-0.161 0,0 2.59,1.944 5.603,3.989 2.149,1.554 5.317,3.902 5.317,3.902 0,0 -12.796,-3.568 -30.091,-12.466 -4.863,-2.496 -7.443,-3.932 -7.443,-3.932 0.754,0.834 4.203,4.008 5.024,5.085 -12.832,-6.787 -17.508,-11.022 -25.083,-19.263 -6.804,-7.352 -6.483,-8.579 -16.804,-14.516 0,0 7.645,-2.634 15.343,2.615 1.338,0.883 2.569,2.172 3.768,3.471 2.726,3.186 1.803,6.298 5.437,8.736 -0.533,-1.208 -1.369,-2.692 -1.442,-4.241 1.73,2.419 5.134,5.644 8.945,8.084 9.753,6.09 16.222,7.398 16.222,7.398 -0.288,-0.075 -0.48,-0.218 -0.738,-0.293 -13.277,-6.039 -15.413,-13.161 -15.48,-13.921 -0.127,-1.59 4.804,2.212 8.829,2.913 -4.261,-1.681 -7.872,-5.369 -9.61,-9.526 -0.738,-1.759 -0.953,-3.725 -3.077,-5.353 -0.593,-0.575 -1.351,-1.143 -2.4,-1.641 -2.775,-1.372 -4.731,-0.827 -5.402,-0.447 -0.398,0.226 -0.615,0.677 -0.615,0.677 1.352,-0.325 3.204,0.111 4.874,1.21 1.238,0.82 2.156,1.857 2.636,2.905 0.257,0.593 0.781,1.676 0.014,2.986 -0.385,0.631 -1.173,0.981 -2.087,1.057 0.074,0.172 0.489,1.348 1.986,3.131 -1.989,-1.516 -3.233,-3.241 -3.9,-4.045 0.92,-0.06 1.743,-0.42 2.205,-1.114 0.902,-1.402 0.063,-3.57 -1.835,-4.713 -1.916,-1.256 -4.252,-1.097 -5.118,0.292 -0.127,0.217 -0.193,0.347 -0.274,0.558 -0.08,-0.042 -0.209,-0.108 -0.32,-0.151 -0.586,-0.333 -1.803,-0.873 -1.803,-0.873 0.554,-0.127 1.322,-0.118 1.827,-0.035 0.185,-2.024 1.517,-5.265 8.959,-3.054 -2.124,-2.061 -7.231,-2.22 -10.341,-0.787 0.439,-0.307 0.915,-0.595 1.477,-0.911 9.374,-5.122 20.058,0.688 22.658,2.312 0.671,0.392 1.328,0.789 1.965,1.132 0,0 -2.696,-2.442 -4.516,-6.154 C -22.22,-6.088 -12.742,0.85 0,0" style="fill:#ffffff;fill-opacity:1;fill-rule:nonzero;stroke:none" id="path40"/>
        </g>
        <g id="g42" transform="translate(373.0625,298.6514)">
          <path d="m 0,0 c 0.366,-1.308 2.714,0.171 2.714,0.171 0,0 -3.197,-2.792 -4.433,-5.712 -0.046,-0.172 -0.044,-0.72 -0.463,-1.573 0.337,-0.05 0.661,-0.074 0.914,-0.048 0.835,0.166 1.829,0.766 1.829,0.766 0,0 0.04,-1.683 -1.835,-3.422 2.124,1.63 2.338,3.594 3.076,5.353 1.738,4.157 5.349,7.845 9.61,9.526 C 7.386,4.36 2.456,0.558 2.583,2.148 2.65,2.908 4.786,10.03 18.063,16.069 17.916,16.007 17.612,15.851 17.542,15.873 5.388,10.845 -0.98,3.481 0,0" style="fill:#bacad3;fill-opacity:1;fill-rule:nonzero;stroke:none" id="path44"/>
        </g>
        <g id="g46" transform="translate(367.999,292.9844)">
          <path d="m 0,0 c 0.638,-1.006 0.026,-2.521 -1.387,-3.43 -1.408,-0.86 -3.072,-0.799 -3.685,0.218 -0.119,0.147 -0.18,0.322 -0.2,0.504 -0.276,-0.217 -0.584,-0.391 -0.854,-0.588 0.079,-0.211 0.147,-0.341 0.272,-0.557 0.868,-1.389 3.203,-1.549 5.119,-0.293 1.899,1.143 2.737,3.311 1.836,4.712 C 0.639,1.262 -0.186,1.622 -1.104,1.681 -1.325,1.419 -1.587,1.121 -1.849,0.793 -1.036,0.83 -0.348,0.56 0,0" style="fill:#004d55;fill-opacity:1;fill-rule:nonzero;stroke:none" id="path48"/>
        </g>
        <g id="g50" transform="translate(366.6133,289.5547)">
          <path d="M 0,0 C 1.412,0.908 2.023,2.422 1.387,3.43 1.038,3.989 0.351,4.26 -0.462,4.223 -0.977,3.558 -1.598,2.777 -2.371,2.067 -2.38,1.454 -2.254,0.749 -1.494,0.251 c 0,0 -0.871,-0.093 -1.417,0.249 C -3.208,0.702 -3.364,0.977 -3.414,1.128 -3.584,0.996 -3.74,0.813 -3.886,0.722 -3.865,0.54 -3.805,0.363 -3.686,0.218 -3.073,-0.799 -1.408,-0.86 0,0" style="fill:#000114;fill-opacity:1;fill-rule:nonzero;stroke:none" id="path52"/>
        </g>
        <g id="g54" transform="translate(363.7021,290.0547)">
          <path d="M 0,0 C 0.546,-0.342 1.416,-0.249 1.416,-0.249 0.656,0.249 0.53,0.954 0.539,1.567 0.219,1.239 -0.13,0.911 -0.503,0.628 -0.454,0.477 -0.298,0.202 0,0" style="fill:#ffffff;fill-opacity:1;fill-rule:nonzero;stroke:none" id="path56"/>
        </g>
        <g id="g58" transform="translate(442.8779,313.5518)">
          <path d="m 0,0 c 0,0 -9.055,-0.034 -13.041,-0.268 -11.836,-0.864 -23.98,-6.081 -23.98,-6.081 7.706,2.245 16.137,1.306 16.137,1.306 -3.277,-0.343 -11.334,-2.857 -15.376,-4.646 -5.809,-2.643 -11.69,-6.243 -15.949,-9.506 6.825,4.261 26.289,14.548 51.177,10.703 0,0 1.619,1.266 5.929,6.086 4.536,5.084 5.468,8.13 5.468,8.13 0,0 -21.063,1.132 -36.306,-1.919 C -29.226,3.119 -32.772,2.236 -35.906,1.286 -26.651,3.127 -13.089,3.072 0,0" style="fill:#bacad3;fill-opacity:1;fill-rule:nonzero;stroke:none" id="path60"/>
        </g>
        <g id="g62" transform="translate(394.3945,286.8799)">
          <path d="m 0,0 c 17.191,5.033 29.189,0.614 30.689,-4.616 0,0 0.076,0.053 0.173,0.136 0.686,0.396 3.363,1.631 7.368,5.64 4.182,4.264 6.821,7.642 7.858,9.882 C 28.427,18.677 9.011,12.551 -0.498,8.487 5.798,10.878 16.525,13.229 28.438,10.039 10.07,12.625 -4.358,3.561 -4.358,3.561 6.149,7.412 12.831,4.606 12.831,4.606 0.089,5.456 -9.39,-1.482 -12.616,-5.712 -12.874,-6.216 -13.104,-6.749 -13.314,-7.259 -10.37,-4.435 -7.261,-2.104 0,0" style="fill:#bacad3;fill-opacity:1;fill-rule:nonzero;stroke:none" id="path64"/>
        </g>
        <g id="g66" transform="translate(452.9678,333.8066)">
          <path d="m 0,0 c -13.495,-1.927 -24.401,-4.992 -30.211,-7.827 0,0 8.039,1.733 12.089,1.941 3.979,0.202 7.204,-0.002 7.204,-0.002 -25.395,-5.119 -39.045,-12.951 -42.348,-15.041 3.374,1.549 10.658,4.627 21.155,7.154 9.837,2.38 21.334,3.438 25.973,4.099 6.543,6.506 9.063,14.447 9.063,14.447 0,0 -11.445,-1.49 -24.479,-4.468 C -35.081,-2.885 -43.85,-6.73 -45.584,-7.493 -20.659,1.327 0,0 0,0" style="fill:#bacad3;fill-opacity:1;fill-rule:nonzero;stroke:none" id="path68"/>
        </g>
        <g id="g70" transform="translate(384.749,279.6904)">
          <path d="m 0,0 c 0,0 4.322,3.403 11.689,2.626 10.909,-1.143 10.659,-7.81 10.659,-7.81 0,0 4.866,2.288 7.338,6.62 0,0 -3.081,2.649 -8.676,3.347 C 6.503,6.529 0,0 0,0" style="fill:#bacad3;fill-opacity:1;fill-rule:nonzero;stroke:none" id="path72"/>
        </g>
        <g id="g74" transform="translate(379.4248,281.3018)">
          <path d="m 0,0 c -0.674,-1.193 -0.975,-2.504 -1.448,-4.084 -3.325,-15.814 -14.978,-23.193 -14.978,-23.193 -2.191,4.621 -0.985,9.173 -0.657,10.867 0.833,3.898 -1.124,6.684 -1.124,6.684 7.692,0.059 0.193,-9.624 3.113,-13.497 5.131,3.183 8.197,13.583 8.946,17.276 0.032,0.135 -0.751,0.651 -1.378,0.831 -7.46,1.961 -19.905,-0.67 -24.369,-3.508 -14.082,-9.018 -0.832,-14.008 -0.832,-14.008 0,0 -8.666,-3.26 -13.662,4.095 -1.268,1.969 -1.586,5.599 -1.895,8.466 5.119,8.719 13.261,12.508 15.502,14.137 1.943,-0.436 5.508,-0.476 8.311,0.497 0,0 9.492,-11.037 24.471,-4.563 m -24.177,0.979 c -2.228,0.065 -3.053,0.484 -3.849,1.052 -1.848,-1.015 -3.257,-1.816 -3.257,-1.816 -1.093,-1.647 1.228,-1.233 2.303,-0.871 0.878,0.304 4.803,1.635 4.803,1.635" style="fill:#bacad3;fill-opacity:1;fill-rule:nonzero;stroke:none" id="path76"/>
        </g>
        <g id="g78" transform="translate(348.1406,281.5156)">
          <path d="M 0,0 C -1.093,-1.646 1.229,-1.231 2.303,-0.87 3.183,-0.565 7.107,0.765 7.107,0.765 4.879,0.83 4.054,1.249 3.258,1.817 1.41,0.802 0,0 0,0" style="fill:#000114;fill-opacity:1;fill-rule:nonzero;stroke:none" id="path80"/>
        </g>
      </g>
    </g>
  </g>
</svg>