<?xml version="1.0" encoding="utf-8"?>
<svg viewBox="435.917 295.249 247.594 207.846" height="793.70667" width="1122.52" id="svg2" version="1.1" xmlns="http://www.w3.org/2000/svg">
  <defs id="defs6">
    <clipPath id="clipPath18" clipPathUnits="userSpaceOnUse">
      <path id="path16" d="M 0,595.28 H 841.89 V 0 H 0 Z"/>
    </clipPath>
  </defs>
  <g transform="matrix(1.3333333,0,0,-1.3333333,0,793.70667)" id="g10">
    <g id="g12">
      <g clip-path="url(#clipPath18)" id="g14">
        <g transform="translate(499.6904,361.4194)" id="g20">
          <path id="path22" style="fill:#b21e35;fill-opacity:1;fill-rule:nonzero;stroke:none" d="m 0,0 h -24.893 l 0.046,-58.837 c -0.013,-1.412 -0.388,-8.578 -6.315,-8.58 -2.192,-0.003 -3.193,0.755 -3.755,1.327 -1.859,1.887 -2.213,5.52 -2.193,6.759 L -37.152,0 h -40.384 l 0.014,-23.976 4.584,0.002 c 4.191,0.001 5.57,-1.072 5.966,-1.533 0.393,-0.456 0.459,-1.037 0.459,-1.382 0,-0.168 -0.017,-0.279 -0.017,-0.293 -0.027,-0.127 -0.061,-0.314 -0.061,-0.314 l -0.017,-0.535 0.022,-39.485 c 0.006,-7.672 2.544,-14.256 7.337,-19.041 4.988,-4.981 12.168,-7.719 20.213,-7.711 5.925,0.004 10.68,1.441 14.263,3.141 0.002,-0.57 0.01,-1.155 0.01,-1.707 0,-4.034 -0.123,-7.481 -0.745,-8.233 -0.161,-0.125 -1.055,-0.613 -5.254,-0.617 h -119.543 v -27.596 h 128.592 c 9.415,0.008 16.536,2.738 21.16,8.02 4.616,5.273 5.196,11.658 5.196,14.961 0,0.836 0.035,1.445 0,1.818 -10e-4,0.424 0,104.481 0,104.481 z"/>
        </g>
        <g transform="translate(349.3853,268.8545)" id="g24">
          <path id="path26" style="fill:#b21e35;fill-opacity:1;fill-rule:nonzero;stroke:none" d="m 0,0 28.602,0.021 -0.043,61.338 -0.036,0.315 c -0.002,0.025 -0.253,2.486 1.132,4.032 1.277,1.425 3.748,1.727 5.596,1.728 1.997,0.001 3.421,-0.458 4.355,-1.403 1.337,-1.351 1.605,-3.649 1.596,-4.421 l -10e-4,-0.115 0.04,-46.256 0.003,0.165 c -0.025,-0.71 -0.121,-7.058 4.14,-11.471 2.463,-2.55 5.866,-3.898 9.845,-3.897 0.002,0 24.521,0.022 24.521,0.022 l -0.014,24.19 -5.235,-0.682 c -0.601,-0.079 -2.549,-0.103 -3.557,0.781 -0.819,0.718 -1.08,2.204 -1.08,3.321 v 43.624 -0.186 c 0.015,0.392 0.363,9.695 -6.148,16.464 -4.289,4.463 -10.33,6.722 -17.951,6.716 -7.857,-0.008 -13.543,-2.189 -17.6,-4.877 0,1.358 -0.002,3.155 -0.002,3.155 h -40.007 l 0.015,-25.109 5.572,1.181 c 1.115,0.237 3.822,0.362 5.071,-0.762 0.907,-0.816 1.187,-2.446 1.187,-3.89 L 0.001,0 Z"/>
        </g>
        <g transform="translate(435.6348,293.9053)" id="g28">
          <path id="path30" style="fill:#25316a;fill-opacity:1;fill-rule:nonzero;stroke:none" d="m 0,0 c 0.006,-6.989 2.279,-12.956 6.586,-17.258 4.514,-4.504 11.059,-6.98 18.431,-6.974 7.852,0.005 13.444,2.671 16.757,4.898 0.005,-0.779 0.013,-1.854 0.013,-1.854 0.014,-1.566 0.028,-3.007 0.028,-4.326 0,-5.267 -0.221,-8.545 -1.472,-9.808 -0.929,-0.94 -2.972,-1.324 -7.048,-1.328 l -117.022,-0.084 v -22.555 l 126.067,0.096 c 8.659,0.005 15.14,2.398 19.264,7.109 4.079,4.66 4.68,10.303 4.68,13.223 0,0.898 -0.055,1.521 -0.086,1.797 0,0.232 -0.076,102.057 -0.076,102.057 H 41.688 L 41.732,8.681 C 41.73,8.232 41.588,-2.418 32.896,-2.424 c -2.365,-0.003 -4.189,0.684 -5.572,2.098 -2.992,3.062 -2.9,8.508 -2.9,8.563 0.004,0.055 -0.04,56.756 -0.04,56.756 h -35.343 l 0.014,-18.93 h 2.06 c 3.854,0.002 6.598,-0.855 7.938,-2.479 C 0.389,41.967 0.016,39.985 0,39.901 Z"/>
        </g>
        <g transform="translate(351.9087,271.3779)" id="g32">
          <path id="path34" style="fill:#25316a;fill-opacity:1;fill-rule:nonzero;stroke:none" d="m 0,0 23.555,0.018 -0.041,58.695 -0.018,0.141 c -0.005,0.035 -0.42,3.538 1.723,5.973 1.52,1.726 4.045,2.603 7.507,2.606 2.687,0.002 4.768,-0.733 6.181,-2.183 2.362,-2.422 2.294,-6.172 2.293,-6.209 -0.001,-0.065 0.039,-46.32 0.039,-46.32 -0.007,-0.165 -0.163,-5.83 3.436,-9.558 2.004,-2.075 4.706,-3.126 8.03,-3.126 0.001,0 21.999,0.019 21.999,0.019 L 74.691,18.89 72.324,18.545 c -0.034,-0.004 -3.422,-0.471 -5.542,1.363 -1.243,1.076 -1.875,2.838 -1.876,5.238 0,0 -0.03,43.623 -0.03,43.623 0.013,0.265 0.273,8.529 -5.499,14.532 -3.797,3.946 -9.225,5.945 -16.135,5.939 -10.348,-0.01 -16.589,-4.022 -20.119,-7.645 -0.001,1.78 -0.004,5.924 -0.004,5.924 h -34.964 l 0.013,-19.5 2.516,0.559 c 0.046,0.01 4.653,1.001 7.276,-1.336 C -0.715,66.06 0,64.129 0,61.486 Z"/>
        </g>
      </g>
    </g>
  </g>
</svg>