<svg xmlns="http://www.w3.org/2000/svg" viewBox="0 0 120.2 71.69"><title>New York Jets logo</title><path d="M568.6,509c-2-6.77-10.88-14.82-23.67-21.54a75.93,75.93,0,0,0-32.73-8.05h-.39a75.94,75.94,0,0,0-32.73,8.05c-12.79,6.72-21.63,14.77-23.68,21.54a15.91,15.91,0,0,0-.25,3v0a15.91,15.91,0,0,0,.25,3c2,6.77,10.88,14.82,23.67,21.54a75.84,75.84,0,0,0,32.87,8.05h.24a75.94,75.94,0,0,0,32.74-8.05c12.79-6.72,21.63-14.77,23.67-21.54a15.92,15.92,0,0,0,.25-3v0a15.91,15.91,0,0,0-.25-3Z" transform="translate(-451.9 -476.16)" style="fill:#115740"/><path d="M529.74,500.65l1-1.86h.49q.47,0,.47.36a.85.85,0,0,1-.12.39l-.59,1.11h3.45l.47-.86a1.47,1.47,0,0,0,.21-.69q0-.53-.82-.79a4,4,0,0,0,.86-.22,2.3,2.3,0,0,0,.66-.47,2,2,0,0,0,.59-1.43,1.14,1.14,0,0,0-.3-.84,2.07,2.07,0,0,0-1.48-.41h-5.29l-3,5.72h3.43Zm2.23-4.27h.51q.35,0,.35.28a.69.69,0,0,1-.09.32l-.14.26a.79.79,0,0,1-.7.48h-.66l.73-1.34Zm-32.57,4.27,1.87-2.22-.53,2.22h3.43l5.1-5.72h-3.11l-2.06,2.68.76-2.68h-3.25l-2,2.66.68-2.66H497L496,500.65h3.43Zm19.24-2.92a3.34,3.34,0,0,0-.41,1.43,1.29,1.29,0,0,0,.84,1.22,7,7,0,0,0,2.84.43q2.74,0,3.84-1.1a7,7,0,0,0,1.22-1.84,3.33,3.33,0,0,0,.41-1.43,1.29,1.29,0,0,0-.84-1.22,7.06,7.06,0,0,0-2.85-.43q-2.74,0-3.84,1.1a7,7,0,0,0-1.22,1.84h0Zm3.15.7.78-1.46a1.87,1.87,0,0,1,.41-.56.8.8,0,0,1,.53-.18q.46,0,.46.39a1.19,1.19,0,0,1-.17.53l-.78,1.46a1.9,1.9,0,0,1-.4.55.83.83,0,0,1-.55.18q-.46,0-.46-.39a1.19,1.19,0,0,1,.17-.53h0Zm-7.3,2.22.95-1.77,4.57-3.94h-3.2l-1.75,1.77,0-1.77h-3.48l.25,3.84-1,1.87h3.62Zm-21,0,.77-1.45h-3.6l.4-.72h3.23l.74-1.4h-3.24l.39-.7h3.48l.77-1.45h-6.8l-3,5.72h6.9Zm45.55,0,1.35-2.53.17,2.53h3.4l-.36-2.92,3.16-2.79h-3.2l-2.85,2.59,1.38-2.59h-3.53l-3,5.72H539Zm-2.81,4.84H516.35l-2.12,4h5.27l-4.14,7.75a18.93,18.93,0,0,1,5.36,1.8,23.11,23.11,0,0,1,2.65,1.61l6-11.16h4.77l2.12-4ZM481.68,498l.58,2.65h3l3-5.72H485.5l-1.26,2.45-.54-2.45h-3.14l-3,5.72h2.78l1.37-2.65Zm90.1,10.33,0-.16c-2.27-7.73-11.5-16.32-25.3-23.58a79.45,79.45,0,0,0-34.24-8.43h-.39a79.47,79.47,0,0,0-34.24,8.43c-13.81,7.26-23,15.85-25.3,23.58l0,.16a21.35,21.35,0,0,0,0,7.35l0,.16c2.27,7.73,11.5,16.32,25.3,23.58a79.45,79.45,0,0,0,34.24,8.43h.38a79.46,79.46,0,0,0,34.24-8.43c13.81-7.26,23-15.85,25.3-23.58l0-.16a21.26,21.26,0,0,0,0-7.35ZM568.85,512a15.92,15.92,0,0,1-.25,3c-2,6.77-10.88,14.82-23.67,21.54a76,76,0,0,1-32.74,8.05h-.24a75.84,75.84,0,0,1-32.87-8.05c-12.79-6.72-21.63-14.77-23.67-21.54a15.89,15.89,0,0,1-.25-3v0a15.89,15.89,0,0,1,.25-3c2-6.77,10.88-14.82,23.67-21.54a76,76,0,0,1,32.74-8.05h.39a75.93,75.93,0,0,1,32.73,8.05c12.79,6.72,21.63,14.77,23.67,21.54a15.92,15.92,0,0,1,.25,3v0Zm-52.13,12.4.23.19a8,8,0,0,1,.17,1.09l2.09,0c2.25.06,4.5.15,6.74.3l.41-.49,0-.17c-.51-1.73-2.66-3.79-6-5.56a19.11,19.11,0,0,0-8.24-2H512a19.09,19.09,0,0,0-8.25,2c-3.37,1.78-5.52,3.84-6,5.57l0,.14.41.49c2.25-.16,4.49-.24,6.74-.3l2.33-.05a8,8,0,0,1,.16-1.09l.23-.19.67,0,.15.18a10.28,10.28,0,0,0,0,3.53l-.15.18-.67,0-.23-.19a7.94,7.94,0,0,1-.16-1.09l-2.33-.05c-2.25-.06-4.49-.15-6.74-.3l-.38.45c.52,1.72,2.66,3.77,6,5.54a19.09,19.09,0,0,0,8.25,2H512a19.1,19.1,0,0,0,8.24-2c3.38-1.77,5.53-3.83,6-5.56l-.38-.46c-2.25.16-4.5.24-6.74.3l-2.09,0a8,8,0,0,1-.17,1.09l-.23.19-.67,0-.15-.18a10.28,10.28,0,0,0,0-3.53l.15-.18.67,0h0Zm-6.22,3.73-.17.19h-.67l-.21-.2a14.89,14.89,0,0,1,0-3.58l.21-.2h.67l.17.19a24.85,24.85,0,0,0,0,3.62h0Zm2.15,0-.19.2h-.67l-.19-.2q0-1.82,0-3.63l.19-.2h.67l.19.2q0,1.82,0,3.63h0Zm2.15,0-.21.2h-.67l-.17-.19a24.87,24.87,0,0,0,0-3.61l.17-.19h.67l.21.2a14.9,14.9,0,0,1,0,3.58h0Zm31.81-23c-5.75,0-8.12.91-9.84,2.62a5.82,5.82,0,0,0-1.87,3.86c0,1.77.93,2.4,4.21,3.23,3.5.88,4.19,1.06,4.19,1.82s-.78,1.31-2.12,1.31-1.79-.38-1.79-1a2.72,2.72,0,0,1,.33-1.29h-7.79a4.9,4.9,0,0,0-.56,2.24c0,2.4,2,3.53,9,3.53,5.87,0,8.25-1,9.83-2.57a6,6,0,0,0,1.92-4.21c0-1.79-1.18-2.52-4.49-3.3s-3.93-1-3.93-1.54.71-1.21,2.09-1.21c1.11,0,1.74.4,1.74,1a2.29,2.29,0,0,1-.33,1.16h7.64a5,5,0,0,0,.45-2.19c0-2.42-2.32-3.43-8.67-3.43Zm-51.93.4h-9.58l-5.2,9.91c-.71,1.31-1.24,2-2.3,2a.87.87,0,0,1-1-1,3.53,3.53,0,0,1,.45-1.41l2-3.88h-8.17l-1,1.89a7.65,7.65,0,0,0-1.21,4c0,2.82,2.62,4.34,8.93,4.34,4.54,0,7.59-.93,9.43-2.77a18.83,18.83,0,0,0,3.25-4.87l4.34-8.29Zm3,21.57h0v0Zm5.58-8a19,19,0,0,1,5.53-1.84l0-.09H499l1.09-2h9.53l2-3.81h-9.55l1.06-1.89h9.46l2.09-3.93H496.25L488,521h12.11a22.12,22.12,0,0,1,3.17-2h0Z" transform="translate(-451.9 -476.16)" style="fill:#fff"/></svg>