<?xml version="1.0" encoding="utf-8"?>
<svg viewBox="91.365 0 501.483 383.932" height="842.25336" width="688.70667" id="svg2" version="1.1" xmlns="http://www.w3.org/2000/svg">
  <g transform="matrix(1.3333333,0,0,-1.3333333,0,842.25333)" id="g10">
    <g transform="scale(0.1)" id="g12">
      <path id="path24" style="fill:#100f0d;fill-opacity:1;fill-rule:nonzero;stroke:none" d="m 3091.64,6316.9 c 64.84,-42.05 129.24,-85.1 197.11,-122.26 72.75,-43.11 155.66,-63.28 235.34,-89.17 54.47,-16.31 103.92,-53.34 126.86,-106.37 30.17,-13.77 61,-27.09 87.8,-47.03 29.26,-22.8 46.5,-56.8 59.72,-90.66 49.68,-20.85 98.2,-44.7 144.25,-72.76 63.35,-39.49 117.69,-91.56 170.41,-143.93 -41.91,-22.72 -79.08,-55 -105.41,-94.8 -15.51,-38 -28.29,-77.94 -53.95,-110.82 53.34,42.5 134.3,39.71 185.45,-4.9 68.63,6.17 137.7,-21.29 185.33,-70.57 33.03,-34.92 43.33,-89.02 26.55,-133.85 -12.11,-25.89 -3.17,-56.5 -17.99,-81.56 -11.74,-26.56 -36.1,-43.43 -55,-64.26 -19.18,-34.45 -48,-65 -86.07,-77.95 -40.78,-13.68 -84.26,-4.8 -124.6,5.27 -55.06,-9.85 -112.41,-9.03 -164.76,12.56 -15.13,-22.79 -30.7,-45.21 -46.87,-67.25 37.7,-30.93 80.58,-56.43 128.21,-68.47 52.59,-14.68 112.09,-26.17 144.75,-74.94 99.1,17 196.91,-55.75 222.71,-149.95 8.29,-30.56 7.6,-63.88 -4.14,-93.45 -9.92,-27.91 -36.26,-45.83 -45.29,-74.26 -15.58,-41 -52.38,-71.4 -96.24,-76.6 -46.33,-42.88 -119.33,-50.79 -173.57,-18.51 -49.58,5.81 -103.3,6.7 -146.49,35.59 -26.26,15.88 -45.07,40.33 -65.62,62.37 -52.59,24.53 -112.24,18.81 -168.22,28.06 -84.65,13.56 -169.66,32.43 -247.08,70.2 -55.16,-17.61 -113.24,-21.98 -170.57,-26.04 -12.95,32.21 -29.95,63.14 -55.08,87.5 -96.07,-51.23 -191.18,-113.3 -301.7,-126.32 -7.75,-41.22 -16.78,-82.6 -32.5,-121.66 -22.57,-56.04 -72.54,-97.05 -127.39,-119.62 62.83,-24.68 114.58,-79.46 125.14,-147.48 10.45,-50.55 -17.7,-101.1 -57.87,-130.39 -16.55,-37.23 -50.19,-66.73 -90.44,-75.15 -38.52,-11.6 -80.13,4.28 -117.51,-12.11 -58.78,-21.3 -121.29,0.14 -170.87,33.33 -73.67,-4.82 -147.55,-14.89 -221.36,-9.03 -53.49,4.74 -98.94,41.84 -119.26,90.75 -30.24,-22.2 -62.97,-40.86 -97.2,-56.06 -55.53,-27.3 -110.38,-56.58 -161.24,-92.01 2.86,-10.91 -3.16,-28.07 10.23,-33.34 41.76,-20.76 76.97,-59.12 83.74,-106.54 3.69,-35.51 1.66,-73.5 -16.63,-105.18 -11.81,-22.26 -34.91,-35.2 -48.22,-56.35 -16.93,-25.43 -41.61,-47.03 -71.86,-54.17 -25.65,-8.41 -53.19,0 -78.77,-8.12 -41.91,-12.11 -88.94,-10.75 -127.53,11.14 -53.27,30.69 -89.01,91.1 -86.6,153.03 5.5,75 7.97,150.48 8.13,225.56 -25.13,42.88 -41.38,96.45 -18.59,143.94 20.47,52.81 78.7,75.46 103.46,125.12 21.97,39.42 24.07,85.62 27.31,129.56 2.7,52.29 8.8,104.35 11.43,156.65 -72.3,22.87 -143.86,53.94 -201.71,103.97 -51.24,48.75 -93.9,108.12 -117.67,175.08 -26.72,72.16 -30.4,151.46 -64.64,220.98 -14.59,30.85 -38.59,55.98 -66.13,75.69 -66.66,-13.54 -137.31,9.11 -184.035,58.23 -35.438,29.95 -54.696,78.03 -99.165,96.84 -56.578,26.56 -119.332,36.19 -181.019,42.66 94.496,96.99 217.363,172.3 354.069,186.89 56.88,7.31 117.07,-8.27 160.49,-46.35 32.42,-26.79 53.41,-64.55 66.51,-104.05 120.3,-54.02 211.26,-164.1 247.53,-290.2 15.13,-53.12 25.13,-110.6 61.78,-154.17 35.43,-44.3 89.98,-67.86 144.07,-79.97 57.19,52.97 109.33,117.9 185.77,143.4 34.61,13.02 71.48,20.1 105.26,35.44 29.56,20.84 55.82,45.97 84.12,68.47 14.07,10.92 26.33,24.15 34.3,40.17 29.2,52.3 58.61,105.2 100.68,148.46 -26.26,54.92 -42.37,115.11 -42.37,176.28 13.85,-4.59 27.77,-9.03 41.77,-13.16 2.48,94.57 66.65,169.88 131.28,232.09 1.28,56.52 17.16,112.26 46.27,160.8 -18.13,31.6 -34.9,64.63 -41.22,100.9 55.67,5.71 111.8,14.96 163.41,37.31 30.33,12.64 49.06,40.94 70.12,64.48 38.68,42.29 81.19,82.91 133.71,107.52 65.83,30.47 138.96,45.82 211.57,42.66 -23.32,17.53 -48.67,32.42 -75.77,43.34 61.47,37.62 132.51,57.1 203.75,64.77 2.44,35.21 4.92,70.87 15.83,104.73 v 0"/>
      <path id="path26" style="fill:#ffffff;fill-opacity:1;fill-rule:nonzero;stroke:none" d="m 3126.99,6240.16 c 63.95,-37.55 121.51,-86.76 190.27,-116.17 61.03,-25.28 123.94,-45.52 186.68,-66.21 48.07,-12.8 93.53,-46.49 105.26,-96.98 41.46,-19.49 90.37,-31.83 118.03,-71.41 20.09,-22.04 17.32,-61.39 48.16,-73.59 51.17,-22.79 102.4,-46.12 148.89,-77.72 38.91,-28.95 75.32,-61.24 109.91,-95.32 -24.96,-22.42 -53.84,-41.6 -73.35,-69.37 -19.56,-49.05 -37.09,-103.08 -79.82,-137.53 -14.14,-12.42 -34.61,-18.43 -43.41,-36.2 39.72,-0.97 77.86,-11.51 114.89,-25.35 25.14,15.42 46.8,38.82 77.43,43.19 33.02,7.67 65.37,-10.08 86.74,-34.39 62.96,5.87 134.15,-6.77 174.25,-60.56 24.91,-27.69 20.47,-69.98 -0.98,-98.35 0.16,-20.84 4.89,-44.01 -6.76,-62.74 -9.04,-16.48 -26.26,-25.06 -41.31,-34.91 -13.99,-28.67 -31.15,-59.74 -62.6,-71.86 -35.96,-14.59 -75.31,-2.33 -109.92,10.39 -35.14,-6.02 -71.02,-13.09 -106.69,-7.67 -25.8,5.34 -48.22,19.85 -70.05,33.86 -38.51,-45.38 -68.85,-96.99 -107.52,-142.29 44.32,-39.04 91.71,-76.65 148.01,-96.68 31.66,-12.56 64.76,-20.76 97.72,-28.97 33.18,-8.72 56.43,-36.25 70.49,-66.22 42.68,8.96 91.8,14.45 129.04,-13.53 34.68,-25.89 71.78,-58.55 77.95,-103.98 6.55,-35.14 -11.97,-69.08 -40.93,-88.25 -4.83,-20.32 -8.88,-42.06 -23.47,-58.08 -15.36,-17.62 -39.43,-22.81 -61.78,-23.4 -19.49,-25.96 -52.13,-43.43 -85.02,-37.47 -29.58,2.86 -52.06,29.58 -83.06,23.46 -63.05,-4.36 -127.98,26.13 -156.8,83.83 -57.78,22.95 -119.85,33.26 -181.85,33.94 -92.39,10.6 -185.46,33.78 -266.88,79.74 -44.98,-18.34 -91.94,-32.64 -140.61,-36.33 -17.53,41.91 -49.07,76.51 -87.28,100.67 -59.43,-32.57 -118.88,-64.93 -179.07,-95.93 -54.33,-27.69 -115.56,-36.42 -175.44,-42.66 5.11,-45.45 -8.97,-89.99 -23.56,-132.43 -8.13,-20.61 -15.34,-42.43 -29.88,-59.51 -16.85,-17.07 -37.54,-29.57 -58.14,-41.31 -49.07,-27.68 -107.14,-34 -155.32,-63.41 -24.66,-15.35 -47.09,-33.79 -68.98,-52.75 26.71,-4.89 55.76,-18.13 82.15,-5.04 23.41,9.48 46.28,22.42 72.08,23.78 68.99,8.64 133.1,-48.01 148.52,-112.56 8.44,-38 -18.57,-70.66 -49.87,-87.73 -8.66,-20.47 -18.07,-43.18 -39.13,-53.87 -34.31,-17.91 -74.03,-8.29 -110.67,-7.83 -28.53,-11.21 -59.22,-25.8 -90.45,-16.62 -32.95,5.86 -58.53,30.84 -90.51,38.22 -70.27,-1.5 -140.32,-11.29 -210.67,-11.13 -31.83,0.9 -62.82,17.15 -80.13,44.16 -23.77,32.14 -11.35,75.84 6.25,107.81 16.33,30.93 46.42,53.05 60.34,85.02 -8.05,17.23 -28.9,21.59 -43.72,31.47 -40.7,-71.11 -65.75,-159.08 -139.42,-204.36 -82.53,-48.38 -175.44,-80.59 -247.9,-145.21 -0.15,-30.79 -0.45,-61.61 2.18,-92.39 37.17,-5.94 75.46,-25.82 86.97,-64.33 9.11,-41.68 4.14,-98.03 -40.55,-117.22 -9.7,-22.57 -23.17,-47.12 -48.3,-54.93 -25.21,-10.01 -52.75,4.22 -77.65,-6.54 -28.21,-9.18 -59.74,-12.11 -87.8,-0.9 -40.7,17.22 -70.35,60.27 -68.09,104.96 -0.68,78.01 5.42,155.9 6.99,233.83 -5.03,38.75 -40.17,71.64 -29.79,112.95 19.86,60.63 92.7,80.94 113.98,140.53 42.51,109.33 23.26,228.66 42.29,342.19 -64.56,16.54 -128.28,39.41 -185.16,74.72 -57.18,34.9 -98.48,90.73 -127.76,149.94 -40.92,85.32 -41.6,183.96 -85.02,268.23 -21.44,42.13 -57.17,75.47 -98.34,98.04 -51.3,-17.01 -111.27,-7.52 -151.83,29.19 -34.829,27.92 -56.052,68.84 -90.126,97.35 -42.141,26.5 -93.227,32.21 -141.457,39.5 95.785,64.71 206.086,128.36 326.313,111.89 66.74,-8.13 110.53,-71.56 119.48,-134.3 51.99,-24.83 102.55,-54.48 143.55,-95.33 52.45,-54.25 87.43,-123.77 105.11,-196.75 17.53,-68.09 46.5,-137.16 100.15,-184.71 48.9,-37.78 108.86,-59.67 169.73,-68.39 38.08,40.99 78.11,80.28 120.24,117.07 51.38,44.02 122.71,46.2 181.47,74.79 34.46,28.21 67.42,58.31 102.18,86.14 22.11,16.63 31.98,43.41 46.49,66.06 29.57,53.94 65.46,103.98 103.83,152.06 -23.69,30.93 -38.06,68.08 -40.32,107.07 12.71,-1.13 25.43,-2.26 38.21,-3.32 -12.94,34.76 -15.12,74.33 0.46,108.65 26.71,61.09 71.48,112.48 120.68,156.57 -1.2,64.71 15.88,130.24 55.38,182.23 -15.43,21.29 -28.44,44.38 -36.57,69.52 50.56,8.13 103.76,14.06 147.62,42.81 30.47,16.33 47.62,47.25 71.4,70.88 40.62,41.75 87.95,79.75 144.23,97.43 59.38,18.65 122.2,24.37 184.12,20.54 21.58,14.06 44.16,26.63 67.03,38.6 -21.06,21.44 -44.17,41 -70.19,56.12 46.95,11.97 95.16,19.5 143.7,17.16 0.86,25.57 7.1,50.92 5.06,76.43 v 0"/>
      <path id="path28" style="fill:#2f69b7;fill-opacity:1;fill-rule:nonzero;stroke:none" d="m 3170.02,6156.64 c 37.7,-27.39 75.46,-55.3 117.75,-75.46 73.44,-38.38 156.72,-51.02 231.95,-84.8 28.07,-10.84 41.16,-41.01 39.5,-69.6 36.65,-17.15 75.55,-30.17 109.94,-51.69 34.3,-23.86 31.51,-75.31 67.03,-97.66 38.9,-19.41 79.98,-34.61 117.91,-56.2 40.69,-21.45 76.88,-50.41 111.41,-80.58 -23.92,-16.18 -52.28,-32.13 -58.52,-63.06 -15.05,-53.56 -46.81,-106.38 -101.19,-127.07 11.35,26.26 14.66,55 7.9,82.99 -55.38,1.35 -111.58,-8.12 -160.79,-34.46 0.16,-30.02 -2.71,-64.11 17.67,-88.86 11.6,-14.89 33.64,-18.43 50.21,-10.15 26.11,11.81 43.4,35.73 58.98,58.67 0.61,-22.87 -6.63,-49.35 9.55,-68.75 6.55,-17.69 1.13,-37.33 0.99,-55.76 49.72,24.22 105.5,9.1 152.88,-12.86 45.44,-8.43 69.89,57.93 116.7,43.33 12.34,-7.53 17.46,-22.64 29.27,-30.62 40.78,-9.33 85.54,7.74 123.45,-14.15 20.32,-10.69 49.67,-27.38 43.35,-54.62 -7.68,-9.25 -17.09,-16.78 -25.88,-24.76 5.04,-16.62 13.01,-33.55 9.55,-51.38 -7.66,-13.99 -25.19,-16.24 -38.37,-22.49 -9.18,-22.43 -16.77,-47.71 -37.61,-62.23 -31.45,-6.85 -62.6,5.27 -92.17,14.52 -47.1,-12.11 -105.57,-24.53 -145.15,12.27 -22.33,25.5 -61.9,8.5 -80.42,-13.47 -42.5,-51.02 -73.58,-111.2 -120.76,-158.46 -71.32,-71.84 -148.13,-138.51 -230.76,-197.13 -58.52,-43.55 -125.79,-75.14 -197.58,-89 -27.54,42.89 -65.22,82.31 -114.66,98.95 -132.11,45.74 -274.82,40.7 -411.4,21.43 115.34,-2.18 237.31,0 342.64,-54.16 -50.71,-28.82 -101.95,-57.03 -155.22,-80.73 -61.61,-27.01 -129.95,-27.76 -195.78,-33.56 8,-33.79 19.88,-68.99 9.33,-103.68 -10.23,-38.37 -18.21,-81.7 -48.38,-110 -63.73,-46.34 -147.85,-50.79 -211.94,-96.6 -44.32,-30.24 -82.93,-70.2 -105.19,-119.48 44.17,-9.41 88.26,-19.42 132.8,-26.71 48.97,-10.99 87.05,40.33 135.89,27.84 33.85,-9.87 62.74,-40.48 67.87,-75.77 -2.95,-23.17 -29.2,-27.45 -46.95,-34.76 -2.63,-14.97 -6.03,-29.79 -10,-44.38 -34.01,-11.89 -69.92,-5.65 -104.14,1.42 -16.78,-12.5 -35.66,-24.53 -57.48,-23.77 -39.66,-0.6 -65.31,39.42 -104.29,41.37 -72.9,2.27 -145.36,-14.44 -218.26,-9.77 -18.06,1.06 -39.5,11.88 -40.4,32.14 -1.59,34.66 26.78,59.19 45.51,84.94 18.36,24.45 46.58,52.27 35.07,85.76 -14.08,32.44 -49.52,45.6 -78.86,60.49 54.48,62.67 118.28,117.68 190.74,158.6 93.21,55.75 189.45,108.19 292.96,142.29 -158.59,-26.95 -308.54,-99.1 -432.61,-201.04 30.1,58.75 81.48,102.01 127.68,147.61 -99.01,-49.81 -176.36,-136.33 -224.73,-235.12 -28.68,-60.58 -59.22,-120.39 -93.23,-178.1 -19.33,-34.54 -57.48,-50.62 -91.19,-67.55 -63.65,-29.19 -124.89,-63.72 -182.53,-103.53 -19.33,-14.6 -44.17,-30.7 -44.46,-57.93 -3.24,-47.03 1.73,-94.43 7.74,-141.07 24.83,-3.76 51.17,-5.35 73.36,-18.21 15.42,-15.95 16.79,-41.76 9.34,-61.77 -8.13,-10.84 -23.78,-9.34 -35.52,-13.39 -3.45,-16.33 -2.4,-36.95 -18.21,-47.19 -19.03,-5.48 -38.44,0.9 -57.18,4.45 -14.67,-9.32 -30.32,-19.71 -48.6,-18.13 -33.48,-2.95 -63.51,27.98 -61.1,61.16 1.06,82.76 9.56,165.45 6.25,248.21 -0.61,32.36 -32.58,56.14 -28.82,88.79 16.78,28.21 46.05,45.51 68.39,68.83 29.42,27.16 44.47,65.62 55.83,103.08 33.94,116.71 9.33,241.52 42.58,358.29 -63.95,12.71 -126.84,31.82 -185.61,60.12 -58.99,27.91 -106.38,76.88 -138.06,133.32 -28.37,50.78 -32.2,109.85 -48.69,164.69 -13.23,45.82 -29.86,90.9 -51.46,133.4 -27.53,55.45 -82.76,88.63 -134.15,118.96 -26.93,-13.7 -58.91,-21.08 -87.94,-9.34 -41.76,17.24 -78.184,46.95 -102.48,85.17 -16.098,28.3 -48.457,38.3 -77.653,47.11 42.891,14.74 89.164,24.66 134.223,14.89 24.99,-4.97 46.95,-18.36 69.68,-29.04 -23.7,41.3 -73.06,46.5 -115.27,54.02 47.93,18.81 106.69,21.52 150.1,-9.63 30.17,-24.53 38.98,-64.63 48.53,-100.45 49.29,-27.38 100.15,-53.56 143.03,-90.59 55,-52.36 86.97,-124.59 103.45,-197.8 19.04,-79.37 60.57,-155 125.8,-205.49 60.35,-46.11 137.01,-65.6 211.72,-71.01 36.12,45.37 78.93,84.87 122.64,122.87 52.37,48.38 131.44,43.09 189.08,81.63 41.46,36.34 86.83,68.61 125.05,108.42 35.65,52.74 63.28,110.83 101.42,162.14 27,36.11 56.95,69.97 87.28,103.38 -28.45,2.71 -57.11,9.4 -79.16,28.66 29.42,18.89 70.2,36.34 76.59,74.72 0.83,32.88 -40.25,21.2 -59.88,14.97 22.42,94.64 96.15,164.39 169.06,223.24 27.99,20.83 62.52,46.26 60.8,85.24 -17.53,35.21 -61.56,12.56 -81.87,-7.91 16.19,41.16 36.8,81.72 70.66,111.28 -17.83,8.06 -33.41,19.94 -45,35.74 32.59,2.71 66.75,4.82 95.56,22.05 51.85,29.41 102.86,60.64 158.68,82.16 -24.29,2.48 -48.74,0.68 -72.46,-5.57 48.23,49.81 108.8,90.82 178.39,101.72 83.29,16.71 168.31,-9.56 251.3,6.47 -20.76,16.33 -46.04,23.92 -71.77,27.39 30.54,15.28 61.9,29.27 95.46,36.56 -22.56,19.72 -47.16,36.88 -73.5,51.1 41.68,-3.09 83.73,-5.35 124.07,-17.16 -9.28,17.76 -14.85,37.02 -17.26,56.81 v 0"/>
      <path id="path30" style="fill:#ffffff;fill-opacity:1;fill-rule:nonzero;stroke:none" d="m 3534.64,5767.66 c 30.54,4.13 63.04,19.79 92.91,5.11 15.66,-6.09 31.46,-11.95 47.4,-17.15 -9.7,-14.37 -18.58,-29.27 -25.26,-45.23 -32.08,30.11 -71.04,51.63 -115.05,57.27 v 0"/>
      <path id="path32" style="fill:#ffffff;fill-opacity:1;fill-rule:nonzero;stroke:none" d="m 2787.66,5537.43 c 55.23,40.17 119.49,70.05 188.48,74.11 119.78,7.07 239.7,-53.5 309.08,-150.78 -85.17,62.29 -186.29,112.86 -294.18,110.6 -69.3,1.28 -137.3,-14.66 -203.38,-33.93 v 0"/>
      <path id="path34" style="fill:#ffffff;fill-opacity:1;fill-rule:nonzero;stroke:none" d="m 2704.22,5348.42 c 82.91,35.83 156.88,95.33 248.22,108.88 67.42,11.88 136.03,1.12 201.41,-16.55 -83.51,5.64 -168.9,-4.52 -244.74,-41.61 -70.28,-33.4 -130.85,-85.78 -205.71,-109.85 -77.5,-29.34 -164.32,-28.67 -242.35,-1.43 84.11,3.91 167.48,23.33 243.17,60.56 v 0"/>
      <path id="path36" style="fill:#ffffff;fill-opacity:1;fill-rule:nonzero;stroke:none" d="m 2957.55,5295.16 c 101.35,46.34 219.17,63.65 327,29.94 39.71,-13.16 82.45,-31.23 104.49,-69.06 11.98,-18.74 13.64,-41.31 15.45,-62.83 31.88,8.2 63.18,18.74 92.84,33.18 4.8,26.56 10.3,54.1 26.84,76.14 13.39,19.56 38.01,32.51 61.93,28.37 43.03,-5.27 82.99,-23.71 121.8,-42.13 -105.85,-78.33 -229.69,-128.52 -355.11,-166.28 13.91,36.56 16.33,79.82 -7.32,113.07 -34.98,52.53 -101.41,68.63 -160.08,77.36 -76.37,11.73 -153.34,-0.68 -227.84,-17.76 v 0"/>
      <path id="path38" style="fill:#2f69b7;fill-opacity:1;fill-rule:nonzero;stroke:none" d="m 3457.36,4684.29 c 108.11,61.32 205.39,139.73 291.55,229.04 34.22,-30.48 69.59,-60.5 109.84,-82.85 48.76,-25.73 101.67,-42.73 155.06,-55.83 37.18,-8.12 39,-59.96 76.53,-68.01 34.09,-5.27 69.97,16.78 102.64,-0.45 23.32,-13.25 42.57,-33.41 56.43,-56.28 5.71,-11.73 13.6,-26.71 5.64,-39.34 -7.01,-15.13 -25.44,-17.22 -38.98,-23.54 -1.59,-20.39 2.33,-44.4 -12.79,-60.8 -16.18,-9.79 -35.67,-1.21 -52.88,0.6 -7.02,-15.74 -12.06,-37.78 -31.76,-41.77 -23.4,-5.86 -43.58,10.78 -61.56,22.96 -40.18,-2.11 -84.33,-5.27 -119.78,17.44 -20.53,12.12 -32.8,33.26 -42.35,54.41 -52.59,22.34 -108.13,38.37 -165.37,41.9 -93,7.9 -187.05,22.73 -272.22,62.52 v 0"/>
    </g>
  </g>
</svg>