<?xml version="1.0" encoding="utf-8"?>
<svg viewBox="123.712 0 407.064 255.613" height="493.38666" width="688.70667" id="svg2" version="1.1" xmlns="http://www.w3.org/2000/svg">
  <g transform="matrix(1.3333333,0,0,-1.3333333,0,493.38667)" id="g10">
    <g transform="scale(0.1)" id="g12">
      <path id="path14" style="fill:#f6c00a;fill-opacity:1;fill-rule:nonzero;stroke:none" d="m 4015.18,2704.24 c 0,-550.19 -681.45,-996.19 -1522.08,-996.19 -840.61,0 -1522.065,446 -1522.065,996.19 0,550.16 681.455,996.18 1522.065,996.18 840.63,0 1522.08,-446.02 1522.08,-996.18 v 0"/>
      <path id="path16" style="fill:#283a33;fill-opacity:1;fill-rule:nonzero;stroke:none" d="m 3944.36,2704.24 c 0,-524.57 -649.77,-949.82 -1451.26,-949.82 -801.5,0 -1451.24,425.25 -1451.24,949.82 0,524.57 649.74,949.82 1451.24,949.82 801.49,0 1451.26,-425.25 1451.26,-949.82 v 0"/>
      <path id="path18" style="fill:#ffffff;fill-opacity:1;fill-rule:nonzero;stroke:none" d="M 3780.86,2743.84 H 2254.87 v -230.06 h 881.56 c -117.66,-173.59 -372.7,-293.89 -668.55,-293.89 -407.53,0 -737.9,228.19 -737.9,509.64 0,281.47 330.37,509.64 737.9,509.64 122,0 236.98,-20.58 338.34,-56.78 141.12,-50.39 255.75,-131.24 325.44,-230.05 h 588.79 c -42.89,83.42 -106.84,160.92 -187.91,230.05 -234.67,200.1 -612.82,329.99 -1039.44,329.99 -712.08,0 -1289.33,-361.82 -1289.33,-808.14 0,-446.33 577.25,-808.18 1289.33,-808.18 607.41,0 1116.63,263.32 1253.23,617.72 23.53,61.05 36.13,124.82 36.13,190.46 0,13.27 -0.55,26.46 -1.6,39.6 v 0"/>
    </g>
  </g>
</svg>