<?xml version="1.0" encoding="utf-8"?>
<svg version="1.1" id="svg2" width="682.66669" height="682.66669" viewBox="47.39 189.562 585.951 317.083" xmlns="http://www.w3.org/2000/svg">
  <defs id="defs6">
    <clipPath clipPathUnits="userSpaceOnUse" id="clipPath16">
      <path d="M 0,512 H 512 V 0 H 0 Z" id="path14"/>
    </clipPath>
  </defs>
  <g id="g8" transform="matrix(1.3333333,0,0,-1.3333333,0,682.66667)">
    <g id="g10">
      <g id="g12" clip-path="url(#clipPath16)">
        <g id="g18" transform="translate(454.1121,329.4825)">
          <path d="m 0,0 c -51.312,-11.335 -52.999,18.891 -129.737,25.876 -103.289,9.413 -191.034,-34.933 -260.59,-39.517 -15.113,-0.994 -13.397,-13.848 -2.588,-16.22 26.055,-6.741 53.084,-6.459 77.873,-3.544 -0.863,-2.025 -1.754,-5.128 0.965,-7.594 9.638,-8.663 48.987,-10.125 66.285,-9.45 5.869,0.234 18.422,1.209 18.422,1.209 -3.581,-0.281 -9.356,-11.288 2.391,-14.653 72.556,-22.201 106.261,-56.506 144.691,-110.255 16.06,1.781 31.483,21.16 25.323,36.282 l 3.338,7.998 11.897,5.353 -2.897,26.954 18.132,8.288 c 0,0 29.392,76.269 31.136,81.829 C 6.385,-1.894 3.038,0.656 0,0" style="fill:#ffffff;fill-opacity:1;fill-rule:nonzero;stroke:none" id="path20"/>
        </g>
        <g id="g22" transform="translate(251.5346,322.7387)">
          <path d="m 0,0 c -50.618,-2.091 -111.83,-30.123 -188.849,-15.657 68.647,8.129 121.261,30.264 185.099,38.261 z" style="fill:#db1f26;fill-opacity:1;fill-rule:nonzero;stroke:none" id="path24"/>
        </g>
        <g id="g26" transform="translate(259.4258,292.744)">
          <path d="m 0,0 c 20.551,1.856 38.617,0.806 58.09,-11.841 -41.017,5.334 -61.353,-5.991 -87.013,-8.129 90.069,-25.941 122.265,-78.359 144.184,-107.489 15.817,6.497 16.923,20.41 13.004,25.445 l 4.21,8.747 0.29,5.691 10.904,4.95 -2.925,27.555 20.401,8.091 28.201,74.45 C 143.706,18.713 129.512,48.977 64.906,54.284 38.599,56.449 14.851,55.662 -7.472,53.102 L -4.257,30.104 C 10.641,30.348 24.61,28.145 37.802,21.723 23.195,22.913 10.022,21.92 -2.86,19.735 Z" style="fill:#0a2240;fill-opacity:1;fill-rule:nonzero;stroke:none" id="path28"/>
        </g>
        <g id="g30" transform="translate(256.4455,292.4749)">
          <path d="m 0,0 c -28.033,-2.841 -60.631,-10.219 -107.283,-0.309 40.361,0.346 70.822,13.566 104.189,19.707 z" style="fill:#db1f26;fill-opacity:1;fill-rule:nonzero;stroke:none" id="path32"/>
        </g>
        <g id="g34" transform="translate(328.1064,228.181)">
          <path d="m 0,0 c 24.151,-17.945 36.358,-37.549 48.808,-54.752 6.535,2.643 8.71,10.266 6.619,13.022 l -6.028,7.866 7.003,-0.553 3.338,5.672 -8.719,0.675 -9.872,-1.631 10.106,6.787 7.585,-0.6 0.356,4.407 -7.678,3.938 2.709,2.934 14.326,-1.191 -3.525,32.702 C 59.365,20.082 54.546,17.138 52.333,8.803 l -25.398,2.016 c 3.723,8.204 9.367,11.813 19.923,10.248 -5.784,8.587 -34.708,9.919 -39.03,-3.301 l 22.126,-19.2 2.579,-17.223 -8.963,13.838 C 15.394,2.653 6.788,7.969 0,0" style="fill:#d3d2d2;fill-opacity:1;fill-rule:nonzero;stroke:none" id="path36"/>
        </g>
        <g id="g38" transform="translate(404.893,310.8469)">
          <path d="m 0,0 1.509,-16.398 17.936,-7.256 -17.026,-4.022 1.275,-22.117 -14.307,18.938 -22.014,-4.856 13.839,15.844 -10.904,15.301 18.582,-6.9 z" style="fill:#ffffff;fill-opacity:1;fill-rule:nonzero;stroke:none" id="path40"/>
        </g>
      </g>
    </g>
  </g>
</svg>