<?xml version="1.0" encoding="utf-8"?>
<svg version="1.1" id="svg2" width="1066.6667" height="800" viewBox="411.576 281.105 236.398 256.767" xmlns="http://www.w3.org/2000/svg">
  <defs id="defs6">
    <clipPath clipPathUnits="userSpaceOnUse" id="clipPath16">
      <path d="M 0,600 H 800 V 0 H 0 Z" id="path14"/>
    </clipPath>
  </defs>
  <g id="g8" transform="matrix(1.3333333,0,0,-1.3333333,0,800)">
    <g id="g10">
      <g id="g12" clip-path="url(#clipPath16)">
        <g id="g18" transform="translate(450.2197,316.103)">
          <path d="m 0,0 c -11.405,6.628 -22.62,5.085 -31.13,1.297 -0.379,2.799 -1.106,5.868 -2.324,9.459 -1.805,5.346 -3.781,10.455 -5.522,14.963 -2.294,5.924 -4.038,10.994 -4.995,14.386 l -6.203,21.252 -6.438,-21.267 c -0.989,-3.376 -2.681,-8.478 -4.963,-14.41 -1.732,-4.501 -3.694,-9.617 -5.485,-14.964 -1.207,-3.599 -1.934,-6.668 -2.305,-9.467 -8.515,3.772 -19.738,5.275 -31.126,-1.369 -9.298,-5.449 -14.283,-14.9 -13.006,-24.683 1.175,-8.89 7.256,-15.898 15.881,-18.271 l 6.422,-1.756 1.574,6.47 c 0.225,0.87 2.542,8.969 9.839,8.826 5.053,-0.094 9.265,-4.571 11.361,-7.466 -0.681,-2.041 -1.044,-4.492 -0.696,-7.134 l -2.852,3.812 -5.172,-3.859 c -4.651,-3.463 -11.412,-12.022 -7.233,-22.129 1.823,-4.414 5.734,-7.418 11.021,-8.463 3.231,-0.648 6.91,-0.506 10.31,0.254 1.336,-4.303 3.784,-9.506 8.221,-14.158 l 4.681,-4.887 4.67,4.904 c 4.437,4.651 6.858,9.856 8.201,14.172 3.402,-0.742 7.072,-0.885 10.306,-0.236 5.276,1.06 9.184,4.08 11.001,8.494 4.153,10.123 -2.633,18.664 -7.283,22.129 l -5.181,3.828 -2.846,-3.812 c 0.339,2.642 -0.032,5.093 -0.712,7.134 2.088,2.91 6.279,7.387 11.341,7.498 7.307,0.158 9.633,-7.925 9.878,-8.858 l 1.574,-6.47 c 0,0.048 6.407,1.835 6.407,1.835 8.637,2.372 14.694,9.398 15.849,18.302 C 14.315,-14.869 9.316,-5.417 0,0" style="fill:#000000;fill-opacity:1;fill-rule:nonzero;stroke:none" id="path20"/>
        </g>
        <g id="g22" transform="translate(397.9102,355.2842)">
          <path d="m 0,0 c -0.787,-3.701 -2.812,-8.977 -5.161,-15.075 -1.716,-4.468 -3.669,-9.53 -5.425,-14.781 -1.685,-5.046 -2.373,-8.811 -2.373,-12.314 0,-1.123 0.123,-2.215 0.249,-3.33 -6.493,4.46 -19.29,10.566 -33.253,2.396 -7.75,-4.524 -11.911,-12.306 -10.866,-20.311 0.937,-7.102 5.797,-12.7 12.689,-14.598 l 2.041,-0.554 0.511,2.056 c 0.13,0.506 3.199,12.416 14.204,12.197 8.854,-0.191 14.643,-8.796 16.209,-11.437 -0.747,-1.376 -1.364,-3.273 -1.364,-5.441 0,-2.342 0.794,-4.998 2.819,-7.657 -0.802,-1.09 -2.128,-2.434 -3.678,-2.562 -2.203,-0.19 -4.429,2.136 -5.912,4.113 l -1.238,1.66 -1.652,-1.25 c -3.386,-2.514 -8.957,-9.3 -5.806,-16.925 1.262,-3.053 3.967,-5.077 7.822,-5.836 3.987,-0.791 9.017,-0.08 12.588,1.55 0.688,-4.035 2.646,-10.851 8.269,-16.72 l 1.491,-1.567 1.495,1.582 c 5.608,5.869 7.548,12.701 8.229,16.737 3.583,-1.629 8.612,-2.327 12.599,-1.52 3.852,0.775 6.549,2.783 7.799,5.836 3.131,7.641 -2.452,14.427 -5.846,16.927 l -1.653,1.233 -1.234,-1.645 c -1.471,-1.993 -3.7,-4.318 -5.907,-4.144 -1.543,0.125 -2.871,1.471 -3.686,2.563 2.009,2.657 2.808,5.298 2.808,7.624 0,2.183 -0.632,4.096 -1.376,5.473 1.558,2.657 7.324,11.278 16.18,11.469 11.002,0.253 14.103,-11.643 14.221,-12.148 l 0.522,-2.073 2.04,0.57 c 6.898,1.913 11.738,7.512 12.656,14.639 1.028,7.996 -3.149,15.763 -10.914,20.287 -13.993,8.13 -26.781,1.993 -33.258,-2.492 0.119,1.068 0.246,2.144 0.246,3.235 0,3.543 -0.696,7.371 -2.39,12.409 -1.77,5.244 -3.732,10.298 -5.452,14.758 C 6.875,-8.969 4.834,-3.701 4.042,0 L 2.01,9.492 0,0" style="fill:#ffffff;fill-opacity:1;fill-rule:nonzero;stroke:none" id="path24"/>
        </g>
        <g id="g26" transform="translate(400.0889,231.9043)">
          <path d="M 0,0 C 7.921,8.32 8.008,18.809 8.008,18.809 11.519,15.313 25.139,12.971 28.192,20.42 31.537,28.6 23.035,34.895 23.035,34.895 14.786,23.854 9.258,34.674 9.258,34.674 c 6.28,6.785 1.566,12.89 1.566,12.89 0.411,1.235 7.371,13.399 18.523,13.644 12.843,0.284 16.276,-13.737 16.276,-13.737 13.478,3.732 16.087,22.516 1.25,31.137 -18.808,10.946 -35.202,-5.726 -35.202,-5.726 1.525,6.24 1.953,10.906 -1.115,20.01 -4.177,12.354 -9.286,23.386 -10.709,30.062 -1.42,-6.675 -6.506,-17.732 -10.651,-30.086 -3.051,-9.118 -2.601,-13.777 -1.071,-20.017 0,0 -16.431,16.632 -35.218,5.647 -14.806,-8.661 -12.16,-27.435 1.317,-31.139 0,0 3.404,14.032 16.256,13.778 11.152,-0.229 18.14,-12.369 18.555,-13.588 0,0 -4.698,-6.137 1.594,-12.906 0,0 -5.509,-10.836 -13.778,0.205 0,0 -8.495,-6.343 -5.124,-14.506 3.076,-7.434 16.683,-5.061 20.183,-1.549 0,0 0.118,-10.504 8.055,-18.791" style="fill:#000000;fill-opacity:1;fill-rule:nonzero;stroke:none" id="path28"/>
        </g>
        <g id="g30" transform="translate(433.7852,311.0962)">
          <path d="m 0,0 c -15.304,-0.015 -27.867,-17.4 -27.867,-17.4 0.542,2.839 7.098,15.645 1.174,30.948 -5.927,15.304 -7.142,21.465 -7.142,21.465 l -0.023,-0.182 v 0.174 c 0,0 -1.199,-6.161 -7.086,-21.481 -5.889,-15.312 0.687,-28.1 1.237,-30.946 0,0 -12.596,17.359 -27.906,17.343 -15.308,-0.016 -28.057,-17.44 -13.908,-27.737 0,0 4.14,12.859 18.408,12.892 10.499,0.015 21.009,-11.246 21.452,-16.83 0,0 -4.8,-6.786 1.883,-12.449 0,0 -7.217,-15.184 -17.226,-4.255 0,0 -7.695,-9.617 2.365,-11.943 7.984,-1.849 15.845,6.248 15.845,6.248 0,0 -0.857,-12.795 5.055,-19.787 v 0.063 l 0.035,-0.063 c 5.895,7.006 5.011,19.805 5.011,19.805 0,0 7.877,-8.084 15.857,-6.217 10.06,2.355 2.34,11.957 2.34,11.957 -9.973,-10.945 -17.226,4.209 -17.226,4.209 6.659,5.678 1.839,12.465 1.839,12.465 0.432,5.567 10.919,16.861 21.422,16.861 14.269,0 18.444,-12.844 18.444,-12.844 C 28.108,-17.375 15.312,0.024 0,0" style="fill:#c6a876;fill-opacity:1;fill-rule:nonzero;stroke:none" id="path32"/>
        </g>
      </g>
    </g>
  </g>
</svg>