<?xml version="1.0" encoding="utf-8"?>
<svg version="1.1" id="svg2" width="1066.6667" height="800" viewBox="992.182 -16.177 247.935 131.655" xmlns="http://www.w3.org/2000/svg">
  <defs id="defs6">
    <clipPath clipPathUnits="userSpaceOnUse" id="clipPath20">
      <path d="M 251.571,213.416 H 548.43 V 386.584 H 251.571 Z" id="path18"/>
    </clipPath>
  </defs>
  <g id="g8" transform="matrix(1.333333, 0, 0, -1.333333, 565.504456, 443.819702)">
    <g id="g10" transform="translate(398.6387,277.5049)">
      <path d="M 0,0 8.174,0.014 59.997,29.331 54.493,35.652 14.932,41.374 -34.44,36.743 -51.936,24.496 -54.197,20.055 Z" style="fill:#ffffff;fill-opacity:1;fill-rule:nonzero;stroke:none" id="path12"/>
    </g>
    <g id="g14">
      <g id="g16" clip-path="url(#clipPath20)">
        <g id="g22" transform="translate(359.7529,326.1689)">
          <path d="m 0,0 c 0,0 0.709,-3.488 9.045,-3.706 l 68.281,-0.109 c 0,0 14.932,0.654 22.125,-8.61 0,0 36.072,-2.343 35.202,-20.435 0,0 0.109,-13.952 -19.291,-29.536 0,0 8.502,10.463 -6.756,11.771 0,0 -7.984,1.199 -62.013,1.309 0,0 -6.908,-0.014 -4.701,5.38 l 5.313,8.501 -11.28,9.319 c 0,0 10.668,12.793 24.726,12.874 0,0 5.804,0.327 14.958,-3.76 0,0 13.447,-7.602 19.414,-1.921 0,0 -4.046,-2.901 -15.285,2.779 0,0 -10.831,5.926 -21.417,5.681 0,0 -9.971,0.694 -22.192,-9.4 0,0 -4.658,-5.048 -12.281,-4.394 l -36.899,0.09 z" style="fill:#00143f;fill-opacity:1;fill-rule:nonzero;stroke:none" id="path24"/>
        </g>
        <g id="g26" transform="translate(479.8555,275.6533)">
          <path d="m 0,0 c 0,0 -13.678,9.481 -44.493,11.28 0,0 -12.261,0.573 -15.857,-7.438 h 4.277 c 0,0 1.382,5.464 16.212,4.603 0,0 24.603,-1.633 39.861,-8.445" style="fill:#fdffff;fill-opacity:1;fill-rule:nonzero;stroke:none" id="path28"/>
        </g>
        <g id="g30" transform="translate(414.1514,279.3926)">
          <path d="m 0,0 h -5.641 c 0,0 6.008,13.59 18.025,12.772 l 14.85,0.037 c 0,0 7.028,-1.072 10.408,5.195 0,0 3.922,11.061 12.26,12.152 0,0 -2.997,-2.18 -0.871,-3.651 0,0 1.579,-0.817 6.812,-1.308 0,0 25.937,-2.943 11.388,-26.974 0,0 -16.022,10.463 -46.429,11.606 0,0 -15.366,1.84 -20.802,-9.829" style="fill:#ffffff;fill-opacity:1;fill-rule:nonzero;stroke:none" id="path32"/>
        </g>
        <g id="g34" transform="translate(423.7822,308.1309)">
          <path d="m 0,0 c 0,0 -5.694,1.854 -15.271,-6.103 0,0 6.445,-7.248 13.746,-7.057 l 16.566,-0.004 c 0,0 9.534,-0.003 11.198,6.676 h -5.013 c 0,0 -2.317,-5.255 -13.188,-4.356 0,0 -11.006,-0.253 -10.952,4.356 0,0 -0.221,2.373 2.914,6.488" style="fill:#fefefd;fill-opacity:1;fill-rule:nonzero;stroke:none" id="path36"/>
        </g>
        <g id="g38" transform="translate(429.2656,307.1514)">
          <path d="m 0,0 3.672,-1.363 c 0,0 -2.603,-3.365 2.588,-4.387 0,0 2.412,-0.449 3.884,1.594 l 1.634,-0.532 c 0,0 -0.941,-3.963 -9.686,-2.042 0,0 -6.718,0.667 -2.092,6.73" style="fill:#52b845;fill-opacity:1;fill-rule:nonzero;stroke:none" id="path40"/>
        </g>
        <g id="g42" transform="translate(344.4414,297.5596)">
          <path d="m 0,0 h 39.562 c 0,0 6.893,0.164 10.082,-3.27 l 6.906,-5.435 -4.086,-7.557 c 0,0 -1.106,-2.457 1.265,-4.459 H 7.751 c 0,0 -12.956,-1.471 -13.282,7.479 0,0 -0.259,5.15 5.531,13.242" style="fill:#2d597f;fill-opacity:1;fill-rule:nonzero;stroke:none" id="path44"/>
        </g>
      </g>
    </g>
  </g>
</svg>