<?xml version="1.0" encoding="utf-8"?>
<svg version="1.1" id="svg2" width="1122.52" height="793.70667" viewBox="394.181 247.329 334.158 312.96" xmlns="http://www.w3.org/2000/svg">
  <defs id="defs6">
    <clipPath clipPathUnits="userSpaceOnUse" id="clipPath16">
      <path d="M 0,595.28 H 841.89 V 0 H 0 Z" id="path14"/>
    </clipPath>
  </defs>
  <g id="g8" transform="matrix(1.3333333,0,0,-1.3333333,0,793.70667)">
    <g id="g10">
      <g id="g12" clip-path="url(#clipPath16)">
        <g id="g18" transform="translate(473.0654,363.564)">
          <path d="m 0,0 c 46.904,-35.692 11.21,-41.039 -25.413,-46.248 0,0 -15.462,4.263 -42.241,17.569 -60.736,30.173 -41.616,44.389 6.121,52.987 -76.41,33.286 -140.09,-24.668 -69.832,-81.023 l -19.283,-13.782 c 15.845,-9.707 48.642,-30.076 43.877,-61.259 l -16.279,-11.637 49.73,-22.531 39.237,17.775 c 0.292,17.277 31.156,26.244 44.44,61.375 C 83.46,-70.004 64.837,-5.688 0,0" style="fill:#ffffff;fill-opacity:1;fill-rule:nonzero;stroke:none" id="path20"/>
        </g>
        <g id="g22" transform="translate(486.2412,357.98)">
          <path d="m 0,0 c 31.493,-24.662 9.632,-40.409 -28.771,-44.692 9.714,-40.948 -20.07,-78.455 -51.607,-107.506 l 28.915,13.107 c 2.144,16.641 31.478,25.297 45.371,62.229 C 59.206,-62.298 48.556,-15.436 0,0" style="fill:#b21e35;fill-opacity:1;fill-rule:nonzero;stroke:none" id="path24"/>
        </g>
        <g id="g26" transform="translate(416.5264,256.9502)">
          <path d="m 0,0 -14.099,16.026 -16.192,-2.415 7.488,12.333 -14.094,16.047 18.72,-8.433 7.463,12.327 L -6.625,28.363 12.1,19.947 -4.096,17.529 Z M 23.123,57.075 C -68.645,92.524 -74.728,121.6 -17.44,131.65 -89.082,151.113 -130.86,99.193 -59.98,49.676 L -79.006,36.084 c 20.2,-13.5 41.604,-33.48 34.339,-64.928 l -9.583,-6.844 36.81,-16.681 c 34.257,37.514 52.175,73.967 40.563,109.444" style="fill:#06192e;fill-opacity:1;fill-rule:nonzero;stroke:none" id="path28"/>
        </g>
        <g id="g30" transform="translate(416.5264,256.9502)">
          <path d="m 0,0 -14.099,16.026 -16.192,-2.415 7.488,12.333 -14.094,16.047 18.72,-8.433 7.463,12.327 L -6.625,28.363 12.1,19.947 -4.096,17.529 Z M 23.123,57.075 C -68.645,92.524 -74.728,121.6 -17.44,131.65 -89.082,151.113 -130.86,99.193 -59.98,49.676 L -79.006,36.084 c 20.2,-13.5 41.604,-33.48 34.339,-64.928 l -9.583,-6.844 36.81,-16.681 c 34.257,37.514 52.175,73.967 40.563,109.444" style="fill:#06192e;fill-opacity:1;fill-rule:nonzero;stroke:none" id="path32"/>
        </g>
        <g id="g34" transform="translate(486.2412,357.98)">
          <path d="m 0,0 c 31.493,-24.662 9.632,-40.409 -28.771,-44.692 9.714,-40.948 -20.07,-78.455 -51.607,-107.506 l 28.915,13.107 c 2.144,16.641 31.478,25.297 45.371,62.229 C 59.206,-62.298 48.556,-15.436 0,0" style="fill:#b21e35;fill-opacity:1;fill-rule:nonzero;stroke:none" id="path36"/>
        </g>
        <g id="g38" transform="translate(435.0859,208.6885)">
          <path d="M 0,0 H -1.649 V -4.587 H -2.601 V 0 H -4.247 V 0.782 H 0.001 L 0.001,0 Z M 3.923,-3.166 5.435,0.782 H 6.882 V -4.587 H 5.931 V -0.22 H 5.906 L 4.233,-4.587 H 3.586 L 1.913,-0.22 H 1.883 V -4.587 H 0.935 v 5.369 h 1.457 z" style="fill:#ffffff;fill-opacity:1;fill-rule:nonzero;stroke:none" id="path40"/>
        </g>
      </g>
    </g>
  </g>
</svg>