<?xml version="1.0" encoding="utf-8"?>
<!-- Generator: Adobe Illustrator 18.1.1, SVG Export Plug-In . SVG Version: 6.00 Build 0)  -->
<!DOCTYPE svg PUBLIC "-//W3C//DTD SVG 1.1//EN" "http://www.w3.org/Graphics/SVG/1.1/DTD/svg11.dtd">
<svg version="1.1" id="Layer_1" xmlns="http://www.w3.org/2000/svg" xmlns:xlink="http://www.w3.org/1999/xlink" x="0px" y="0px"
	 viewBox="0 0 400 400" enable-background="new 0 0 400 400" xml:space="preserve">
<g>
	<path fill="#FFFFFF" d="M131,223c0.4,4.6,2,13.7,7.3,23.8c6.5,12.5,20.1,29.3,48.2,38.7c4.5,7,9.7,13.5,15.6,19.5
		c21.3,21.3,49.7,33,79.9,32.9c30.1,0,58.5-11.8,79.8-33.2c21.3-21.3,33-49.7,32.9-79.9c0-30.1-11.8-58.5-33.2-79.7
		c-16.9-16.9-38.1-27.7-61.5-31.5C268.4,85,231.5,95.3,230,95.8c-0.5,0.2-1.3,0.4-2.3,0.7c-11.3,3.8-17.2-0.5-21-3.5
		c-4.2-3.3-8.8-6.7-13.2-9.2c-15.1-8.5-36.5-8.8-54.5-1.5c-11.9,4.1-17.9-1.2-21.4-3.6C93.9,62.4,65,58.5,34.3,65.3
		C13.6,69.8,5.3,74,5.3,74s14.2,2,28.9,8.2c12.2,5.1,21.8,11.6,29.1,23.3c0,0,4.6,6.8,1.6,8.8c-3.3,2.2-6.8-3.2-6.8-3.2
		c-0.1,3.9-0.1,7.8,0.2,10.8c1.7,31.2,8.1,50,23.1,64.3c6.8,6.5,18.4,12.9,36.3,19.9C125.8,209.3,130.2,213.5,131,223z"/>
	<path fill="#002D65" d="M356.4,150.2c-16.4-16.3-37.2-26.6-59.7-29.8c-29.3-28.1-64.8-17.8-64.8-17.8c7.5,1.1,12.5,5.6,10.6,10.5
		c-1.3,3.3-6.7,3.5-9.2,3.5c-7.9,0.1-14.8-4.8-20.2-9.2c-5.7-4.6-14.9-12.8-23.2-17.5c-15.4-8.7-40-7.6-57.7,3.7
		c10.6,0.7,23.4,3.8,31,10.1c4.3,3.5,9.7,10.6,5.3,13.9c-3.9,2.9-13.5,1.4-18.3-1.4c-7.8-4.5-14.7-11.3-18.9-16.2
		C103,67,63.2,65.2,30.3,73.3c21.6,6.1,35.9,18.3,44.8,39.5C84.1,134,91,143,105.6,148.7c9.2,3.6,11.6,4.3,10.9,8.3
		c-1.1,6-11.9,3.1-20.2-0.1C86.2,152.9,73,142.1,65,121.7c1.4,26.4,6.5,45.1,21.4,59.3c6.3,6,17.9,12.2,36.1,19.2
		c11.6,4.5,20.8,7.2,29.4,14.9c10.1,9,5.8,15-0.9,13.9c-7.6-1.3-13-9-13-9s0,43,53.2,59.6c4.4,7.3,9.8,14.2,16,20.4
		c20,19.9,46.5,30.9,74.8,30.8c28.2,0,54.7-11.1,74.7-31c19.9-20,30.9-46.5,30.8-74.8C387.4,196.7,376.4,170.2,356.4,150.2z"/>
	<path fill="#648FCC" d="M350.8,155.6c-15.9-15.9-36.2-25.6-58.2-28c-18.9-18.8-37.8-18-37.8-18c8.3,5.2,4,16.7-14.4,19.3
		c-18.2,2.5-41.4-3.7-52.7-16.8C176.2,98.6,167.4,98,167.4,98c10.1,6.3,10.8,13.9,16.9,25.4c6.1,11.5,18.7,15.7,29.7,16.4
		c11.6,0.8,11.8,6,2.5,11.5c-10.2,6-19.2,0.3-25.7-6.1c-10.3-10.2-20.6-12.2-34.8-12c-14.2,0.2-33,2-48.9-3.9
		c-15.9-5.9-26.3-26.8-26.3-26.8c7.9,27.7,25.3,40.9,41.5,44c21.4,4.2,36.1,9.3,45.2,16.6c8.8,7.2,13.5,14.3,16.8,24.2
		c2.6,7.6,3,17.7,0.5,18.3c-2.9,0.7-3.6-3.4-7-10.4c-3.8-7.8-8.4-13.9-17.6-18.9c-12.5-6.7-24.8-6.3-37.3-6.1
		c-9.9,0.1-15.7-1-15.7-1s0.4,1.3,16.5,4.9c18,4,35.3,14.2,46.9,38.8c9.8,21,4.7,35.8-17.1,29.1c0,0,10.2,22.6,43.4,30.7
		c4.3,7.5,9.6,14.5,15.9,20.9c18.4,18.4,42.9,28.6,69,28.6c26.1,0,50.6-10.2,69-28.6c18.4-18.4,28.6-42.9,28.6-69
		C379.4,198.5,369.2,174,350.8,155.6z"/>
	<path fill="#FFFFFF" d="M281.8,131.8c24.8,0,48.1,9.7,65.6,27.2c17.5,17.5,27.2,40.8,27.2,65.6c0,51.2-41.6,92.8-92.8,92.8
		c-24.8,0-48.1-9.7-65.6-27.2c-17.5-17.5-27.2-40.8-27.2-65.6c0-24.8,9.7-48.1,27.2-65.6C233.7,141.4,257,131.8,281.8,131.8z"/>
	<g>
		<g>
			<g>
				<g>
					<g>
						<g>
							<path fill="#002D65" d="M281.9,309.4c-46.8,0.1-84.8-37.8-84.9-84.7c-0.1-46.8,37.8-84.8,84.7-84.9
								c46.8-0.1,84.8,37.8,84.9,84.7C366.7,271.3,328.8,309.3,281.9,309.4z"/>
						</g>
					</g>
				</g>
			</g>
		</g>
		<path fill="#FFFFFF" d="M261.1,207.4H236l-8.3,14.8l-11.1-31.6h130.3l-11.1,31.6l-8.2-14.8h-24.7l-20.9,91.5L261.1,207.4z"/>
		<polygon fill="#C5C9D1" points="346.9,190.6 216.5,190.6 218.7,196.6 280.8,196.6 261.1,207.4 281.9,298.9 281.9,196.6 
			344.7,196.6 		"/>
	</g>
	<path fill="#C0001D" d="M217.8,117.4c-18.9-0.5-26.6-8-38.3-17.5c-14.4-11.5-30.3-8.3-30.3-8.3c9.5-5.5,28.3-5.7,41.8,6.2
		C203.1,108.3,209,114.1,217.8,117.4z"/>
	<path fill="#C0001D" d="M56.5,75.8c0,0,17.7-0.4,33.1,27.3c13,23.3,37.8,28,55.9,22.8c0,0-23.9-0.6-37-23.8
		C95.3,78.4,77.6,71.9,56.5,75.8z"/>
	<g>
		<g>
			<path fill="#C0001D" d="M156.6,210c0,0-2.5-25.8-39.2-33.2c-37-7.5-41.7-26.8-41.7-26.8s0.2,27.8,32.1,36.3
				C130,192.2,146.3,195.7,156.6,210z"/>
		</g>
	</g>
	<g>
		<polygon fill="#C0001D" points="294.6,182.5 289.6,167.6 302.2,158.3 286.5,158.5 281.6,143.6 276.9,158.5 261.2,158.6 274,167.7 
			269.2,182.7 281.8,173.3 		"/>
		<polygon fill="#C0001D" points="238.6,235 228.2,246.8 213.9,240.5 221.8,254 211.4,265.7 226.7,262.3 234.6,275.8 236.1,260.2 
			251.4,256.8 237.1,250.6 		"/>
		<polygon fill="#C0001D" points="312.1,257.2 327.5,260.3 329.2,275.9 336.9,262.2 352.2,265.4 341.6,253.9 349.4,240.2 
			335.1,246.7 324.6,235.1 326.4,250.7 		"/>
	</g>
</g>
</svg>
